<?xml version="1.0" encoding="iso-8859-1"?>
<!-- Generator: Adobe Illustrator 19.0.0, SVG Export Plug-In . SVG Version: 6.00 Build 0)  -->
<svg version="1.1" id="Layer_1" xmlns="http://www.w3.org/2000/svg" xmlns:xlink="http://www.w3.org/1999/xlink" x="0px" y="0px"
	 viewBox="0 0 512 512" style="enable-background:new 0 0 512 512;" xml:space="preserve">
<path style="fill:#91CC04;" d="M217.081,418.866c23.418,7.837,48.756-4.794,56.594-28.213c7.837-23.419-4.794-48.756-28.213-56.594
	c-23.419-7.837-229.718-55.766-237.555-32.348C0.07,325.129,193.662,411.029,217.081,418.866z"/>
<path style="fill:#85BB04;" d="M245.462,334.059c-14.861-4.973-103.365-26.091-168.066-34.876
	c6.584,7.874,72.569,80.301,91.733,99.441c23.381,10.518,41.712,18.152,47.953,20.24c23.418,7.837,48.756-4.794,56.594-28.213
	C281.512,367.235,268.881,341.897,245.462,334.059z"/>
<path style="fill:#9CDD05;" d="M294.891,418.866c-23.418,7.837-48.756-4.794-56.594-28.213
	c-7.837-23.418,4.794-48.756,28.213-56.594c23.419-7.837,229.718-55.767,237.556-32.349
	C511.903,325.129,318.309,411.029,294.891,418.866z"/>
<path style="fill:#91CC04;" d="M434.577,299.183c-64.702,8.786-153.206,29.903-168.066,34.876
	c-23.418,7.837-36.049,33.175-28.213,56.593c7.837,23.418,33.175,36.049,56.594,28.213c6.241-2.089,24.571-9.723,47.953-20.24
	C362.008,379.484,427.993,307.058,434.577,299.183z"/>
<g>
	<path style="fill:#85BB04;" d="M198.507,350.579c10.667,22.273,37.369,31.681,59.642,21.015
		c22.273-10.667,31.681-37.369,21.015-59.642c-10.667-22.273-119.792-203.79-142.064-193.124S187.84,328.306,198.507,350.579z"/>
	<path style="fill:#85BB04;" d="M319.087,350.579c-10.667,22.273-37.369,31.681-59.642,21.015
		c-22.273-10.667-31.681-37.369-21.015-59.642c10.667-22.273,119.792-203.79,142.064-193.124
		C402.767,129.495,329.752,328.306,319.087,350.579z"/>
</g>
<g>
	<path style="fill:#79AB03;" d="M279.163,311.952c-6.06-12.654-43.905-76.716-79.545-127.727
		c-0.57,3.526-13.827,104.832-15.573,129.776c6.725,18.169,12.109,31.666,14.461,36.578c10.667,22.273,37.369,31.681,59.642,21.015
		C280.422,360.927,289.83,334.225,279.163,311.952z"/>
	<path style="fill:#79AB03;" d="M333.662,313.688c-1.437-25.455-13.205-127.4-13.89-132.029
		c-36.154,51.405-75.181,117.424-81.343,130.292c-10.667,22.273-1.257,48.975,21.015,59.642
		c22.273,10.667,48.975,1.257,59.642-21.015C321.451,345.639,326.884,332.015,333.662,313.688z"/>
</g>
<path style="fill:#91CC04;" d="M214.084,326.516c-0.201,24.694,19.654,44.876,44.348,45.077
	c24.694,0.201,44.876-19.654,45.077-44.348S285.411,91.549,260.718,91.348S214.285,301.821,214.084,326.516z"/>
<path style="fill:#9CDD05;" d="M210.663,395.976c18.87,15.93,47.081,13.547,63.011-5.323c15.93-18.87,13.547-47.081-5.323-63.011
	c-18.87-15.93-192.895-136.646-208.825-117.776S191.793,380.046,210.663,395.976z"/>
<path style="fill:#C2FB3B;" d="M301.309,395.976c-18.87,15.93-47.081,13.547-63.011-5.323c-15.93-18.87-13.547-47.081,5.323-63.011
	c18.87-15.93,192.895-136.646,208.825-117.776C468.375,228.736,320.179,380.046,301.309,395.976z"/>
<g>
	<path style="fill:#9CDD05;" d="M334.907,318.788c-3.198-2.769-3.261-7.733-0.376-10.828c1.712-1.834,3.438-3.693,5.178-5.574
		c2.873-3.106,7.721-3.297,10.826-0.422c3.106,2.873,3.295,7.72,0.422,10.826c-1.755,1.896-3.496,3.771-5.221,5.622
		C344.226,320.028,338.977,322.312,334.907,318.788z"/>
	<path style="fill:#9CDD05;" d="M275.69,377.502c-2.839-3.138-2.321-8.065,0.912-10.794c4.139-3.495,21.084-20.045,42.132-42.032
		c2.925-3.056,7.774-3.162,10.831-0.236c3.056,2.925,3.162,7.775,0.236,10.831c-20.273,21.176-38.27,38.883-43.316,43.144
		C285.047,379.628,279.99,382.255,275.69,377.502z"/>
</g>
<path d="M511.33,299.279c-3.308-9.883-16.77-13.078-46.463-11.036c-16.728,1.152-32.94,3.025-57.259,7.2
	c15.658-18.179,28.034-33.743,36.875-46.387c16.435-23.504,20.438-36.289,13.816-44.131c-2.641-3.129-6.562-4.715-11.652-4.715
	c-14.495,0-44.757,15.011-77.849,34.514c8.482-27.034,14.924-50.456,18.817-68.486c7.294-33.791,6.19-49.528-3.811-54.318
	c-9.733-4.661-22.101,3.628-42.688,28.608c-2.69,3.264-2.226,8.093,1.041,10.784c3.261,2.69,8.092,2.227,10.784-1.041
	c13.813-16.76,20.808-21.936,23.786-23.531c1.217,6.207,1.33,30.683-27.884,120.057c-14.056,8.705-28.157,17.826-41.37,26.607
	c-1.212-13.095-3.055-31.438-5.515-51.718c13.638-20.865,26.12-38.907,37.11-53.638c2.531-3.391,1.832-8.192-1.558-10.721
	c-3.391-2.53-8.191-1.832-10.721,1.558c-8.473,11.354-17.798,24.619-27.828,39.57c-1.705-12.414-3.617-25.061-5.737-37.274
	c-11.145-64.185-21.03-77.399-32.443-77.492c-0.041,0-0.08,0-0.12,0c-11.576,0-21.841,13.785-34.245,80.463
	c-2.248,12.085-4.302,24.546-6.151,36.746c-15.849-23.725-30.153-43.562-41.82-57.964c-21.726-26.816-34.665-35.797-44.654-31.014
	c-10.254,4.911-11.236,20.539-3.501,55.743c4.898,22.294,12.725,48.855,19.837,71.278c-23.401-14.059-42.648-24.422-57.209-30.798
	c-21.474-9.405-33.21-10.365-39.246-3.216c-6.62,7.842-2.618,20.628,13.817,44.131c8.858,12.669,21.262,28.267,36.963,46.49
	c-23.446-3.891-43.042-6.369-58.395-7.373c-28.989-1.894-42.143,1.322-45.416,11.107c-3.639,10.876,8.83,21.617,21.508,30.689
	c12.178,8.714,29.914,19.276,52.716,31.392c1.145,0.609,6.967,2.764,10.36-3.171c2.1-3.673,0.566-8.375-3.17-10.36
	c-50.649-26.914-62.893-39.146-65.845-43.346c5.57-1.812,26.962-4.65,104.381,9.42c36.111,40.329,75.722,79.983,85.128,87.923
	c7.334,6.192,16.11,10.162,25.361,11.667c-3.89-0.017-7.795-0.631-11.57-1.895c-9.586-3.208-47.783-19.599-88.216-39.004
	c-3.813-1.828-8.39-0.224-10.221,3.592c-1.83,3.814-0.223,8.391,3.592,10.221c42.575,20.432,80.229,36.454,89.983,39.72
	c5.412,1.811,28.569,4.898,41.355-3.515c17.832,8.668,35.826,5.353,41.318,3.515c12.138-4.062,67.272-27.925,117.325-53.159
	c28.814-14.527,51.541-27.238,67.548-37.78C506.146,319.417,514.586,309.012,511.33,299.279z M445.748,215.565
	c-1.411,5.896-10.576,26.482-65.972,88.335c-36.012,40.207-74.469,78.675-83.407,86.222c-6.677,5.637-15.159,8.741-23.881,8.741
	c-10.952,0-21.279-4.794-28.336-13.152c-6.384-7.563-9.441-17.159-8.609-27.022c0.832-9.862,5.457-18.809,13.019-25.194
	c8.318-7.021,50.448-36.963,94.325-64.814C415.113,222.835,438.557,216.073,445.748,215.565z M260.646,100.112
	c2.893,4.002,10.011,18.53,18.524,69.826c7.293,43.946,11.938,92.018,13.797,113.203c-14.496,9.831-27.289,18.799-36.893,25.695
	c-8.789-6.329-19.459-13.791-31.189-21.773c1.948-19.165,7.336-68.432,15.465-113.919
	C250.002,119.13,257.62,104.156,260.646,100.112z M140.896,126.721c5.594,2.941,24.738,18.19,76.089,97.029
	c-2.925,21.492-5.116,40.704-6.493,53.617c-12.957-8.64-26.693-17.566-40.261-26.073c-10.591-32.097-18.815-60.326-23.787-81.672
	C139.83,141.236,140.183,130.502,140.896,126.721z M132.196,303.9c-55.555-62.03-64.613-82.555-65.985-88.386
	c5.467,0.354,24.219,4.998,81.601,39.931c33.646,20.485,70.948,45.603,95.25,62.919c-2.043,1.542-3.544,2.711-4.385,3.424
	c-42.957,36.467-6.151,75.254-5.576,76.51c-6.382-1.118-12.429-3.897-17.499-8.176C206.666,382.576,168.209,344.108,132.196,303.9z
	 M401.809,362.268c-48.312,24.07-98.254,45.621-109.349,49.334c-3.878,1.298-7.823,1.908-11.705,1.911
	c9.345-1.501,18.186-5.513,25.496-11.683c9.406-7.941,49.017-47.595,85.128-87.924c77.458-14.08,98.835-11.23,104.389-9.417
	C492.347,309.396,476.359,325.127,401.809,362.268z"/>
<path d="M110.805,362.588c-2.816-1.402-5.626-2.811-8.422-4.227c-3.776-1.908-8.385-0.398-10.295,3.377s-0.398,8.384,3.377,10.295
	c2.826,1.429,5.666,2.854,8.511,4.271c1.096,0.545,7.479,2.377,10.272-3.443C116.078,369.046,114.592,364.473,110.805,362.588z"/>
<g>
</g>
<g>
</g>
<g>
</g>
<g>
</g>
<g>
</g>
<g>
</g>
<g>
</g>
<g>
</g>
<g>
</g>
<g>
</g>
<g>
</g>
<g>
</g>
<g>
</g>
<g>
</g>
<g>
</g>
</svg>
