<svg height="512" viewBox="0 0 64 64" width="512" xmlns="http://www.w3.org/2000/svg"><g id="Filled_outline" data-name="Filled outline"><path d="m41 15h8v46h-8z" fill="#894c1f"/><path d="m15 15h26v46h-26z" fill="#ad6327"/><path d="m41 15h-26l4-6h26z" fill="#c67132"/><path d="m49 15h-8l4-6z" fill="#703d1b"/><path d="m19 3h26v6h-26z" fill="#ceac9a"/><g fill="#ad6327"><path d="m40 3h2v3h-2z"/><path d="m36 3h2v3h-2z"/><path d="m22 3h2v3h-2z"/></g><path d="m15 27h26v26h-26z" fill="#ceac9a"/><path d="m15 36s4-5 10-5 7 5 16 0v22h-26z" fill="#f4f4e6"/><path d="m41 27h8v26h-8z" fill="#aa8777"/><path d="m29 45a4 4 0 0 1 -8 0c0-2.209-.209-6 2-6s6 3.791 6 6z" fill="#ad6327"/><path d="m35 42a3 3 0 0 1 -6 0c0-1.657 2.343-5 4-5s2 3.343 2 5z" fill="#ceac9a"/><path d="m22.5 38.646h2v6.708h-2z" fill="#703d1b" transform="matrix(.894 -.447 .447 .894 -16.302 14.944)"/><path d="m25 34h2v2h-2z" fill="#ffd782"/><path d="m35 48h2v2h-2z" fill="#ffd782"/><path d="m20 27h-2v-8a1 1 0 0 1 1-1h5v2h-4z" fill="#f4f4e6"/><path d="m19 56h2v2h-2z" fill="#ffd782"/><path d="m49.928 14.643a1.77 1.77 0 0 0 -.1-.2l-3.828-5.743v-5.7a1 1 0 0 0 -1-1h-26a1 1 0 0 0 -1 1v5.7l-3.832 5.748a1.77 1.77 0 0 0 -.1.2 2 2 0 0 0 -.068.352v46a1 1 0 0 0 1 1h34a1 1 0 0 0 1-1v-46a2 2 0 0 0 -.072-.357zm-1.928 37.357h-6v-24h6zm-8-24v2.4c-5.081 2.692-7.206 1.843-9.645.852a13.3 13.3 0 0 0 -5.355-1.252 14.085 14.085 0 0 0 -9 3.594v-5.594zm0-2h-20v-6h4v-2h-5a1 1 0 0 0 -1 1v7h-2v-10h24zm-24 10.373c.866-.957 4.284-4.373 9-4.373a11.309 11.309 0 0 1 4.6 1.1c2.518 1.024 5.123 2.068 10.4-.465v19.365h-24zm26-10.373v-10h6v10zm.869-12 2.131-3.2 2.131 3.2zm-22.869-10h2v2h2v-2h12v2h2v-2h2v2h2v-2h2v4h-24zm-.465 6h23.6l-2.666 4h-23.6zm-3.535 44h24v6h-24zm26 6v-6h6v6z"/><path d="m33 36c-2.049 0-4.322 2.971-4.873 5.116-1.48-1.716-3.55-3.116-5.127-3.116a2.47 2.47 0 0 0 -1.79.73c-1.243 1.253-1.226 3.744-1.212 5.745l.002.525a4.987 4.987 0 0 0 9.957.421 3.977 3.977 0 0 0 6.043-3.421c0-1.407-.216-6-3-6zm-8 12a3 3 0 0 1 -3-3v-.539a19.941 19.941 0 0 1 .133-2.963l1.974 3.949 1.79-.894-2.2-4.4c1.737.672 4.303 3.418 4.303 4.847a3 3 0 0 1 -3 3zm7-4a2 2 0 0 1 -2-2c0-1.271 2.047-4 3-4 .4 0 1 1.68 1 4a2 2 0 0 1 -2 2z"/><path d="m25 34h2v2h-2z"/><path d="m35 48h2v2h-2z"/><path d="m19 56h2v2h-2z"/></g></svg>