<svg height="512" viewBox="0 0 60 60" width="512" xmlns="http://www.w3.org/2000/svg"><g id="Page-1" fill="none" fill-rule="evenodd"><g id="007---Fruit" fill-rule="nonzero" transform="translate(-1)"><path id="Shape" d="m42.98 28.65c-2.6305248 3.7170263-5.9631786 6.8832173-9.81 9.32-6.0544375 3.6861861-13.1288574 5.3400376-20.19 4.72-.22-.03-.43-.05-.64-.08-2.82-2.12-5.34-5.96-5.34-12.78 0-12.9 6-15.18 10.5-15.18s3.75 2.28 7.5 2.28 3-2.28 7.5-2.28c4.36 0 10.13 2.14 10.48 14z" fill="#f44335"/><path id="Shape" d="m32.5 14.65c-.4871339-.0025741-.9737922.0308503-1.456.1 4.067.523 8.626 3.4 8.936 13.9-2.6305248 3.7170263-5.9631786 6.8832173-9.81 9.32-4.7605268 2.8703888-10.1499453 4.5349296-15.7 4.849 6.5727814.2414496 13.0727541-1.4440246 18.7-4.849 3.8468214-2.4367827 7.1794752-5.6029737 9.81-9.32-.35-11.86-6.12-14-10.48-14z" fill="#c81e1e"/><path id="Shape" d="m11 30.83c-.5522847 0-1-.4477153-1-1 0-12.18 5.645-12.18 7.5-12.18.5522847 0 1 .4477153 1 1s-.4477153 1-1 1c-1.646 0-5.5 0-5.5 10.18 0 .5522847-.4477153 1-1 1z" fill="#f5f5f5"/><path id="Shape" d="m36.958 1.011c.2074241.00845907.4023017.10162042.5391387.25773558s.2036571.36152055.1848613.56826442c-.146 1.75-.8 6.06-3.711 8.669-3.721 3.334-9.721 2.63-9.721 2.63s.032-6.11 3.75-9.444c2.915-2.61 7.223-2.745 8.958-2.681z" fill="#60a917"/><path id="Shape" d="m36.958 1.011c-.88523-.03036728-1.7714858.00707544-2.651.112.2522923.14571026.3982329.42358113.375.714-.146 1.75-.8 6.06-3.711 8.669-1.9099977 1.5556354-4.2617689 2.4696104-6.721 2.612v.018s6 .7 9.721-2.63c2.912-2.609 3.565-6.919 3.711-8.669.0190916-.20680876-.0476241-.41237827-.1845215-.56856231-.1368973-.15618404-.3319513-.24926326-.5394785-.25743769z" fill="#549414"/><path id="Shape" d="m8.03 41.87c-.03 1.17-1.21 2.97-4.52 5.38-1.42-2.43-2.04-4.57-.96-5.25 1.72-1.08 2.9-.68 5.48-.13z" fill="#a0522d"/><path id="Shape" d="m60 27c0 8.92-5.05 17.97-17.5 25.79s-23.37 7.61-30.95 2.92c-3.22918524-2.2418565-5.96533525-5.1209397-8.04-8.46 3.31-2.41 4.49-4.21 4.52-5.38 1.06.21 2.44.49 4.31.74.21.03.42.05.64.08 7.0611426.6200376 14.1355625-1.0338139 20.19-4.72 3.8468214-2.4367827 7.1794752-5.6029737 9.81-9.32 1.4820215-2.0602732 2.564095-4.3804561 3.19-6.84 1.2-5.25 1.17-8.03 3.2-10.06.280258.9576475.4513445 1.9439112.51 2.94 1.3072658.7442476 2.9260195.6703142 4.16-.19.1385117-.9547708.1418781-1.9242904.01-2.88 2.84 2.82 5.95 6.41 5.95 15.38z" fill="#ffdc00"/><path id="Shape" d="m54.05 11.62c.1318781.9557096.1285117 1.9252292-.01 2.88-.108.067-.213.123-.318.179 1.825 2.576 3.278 6.192 3.278 12.321 0 8.92-5.05 17.97-17.5 25.79-6.248 3.93-12.111 5.83-17.359 6.157 5.977.324 12.889-1.459 20.359-6.157 12.45-7.82 17.5-16.87 17.5-25.79 0-8.97-3.11-12.56-5.95-15.38z" fill="#fec108"/><path id="Shape" d="m54.04 14.5c-1.2339805.8603142-2.8527342.9342476-4.16.19-.0586555-.9960888-.229742-1.9823525-.51-2.94-.3832649-1.4437889-.9798344-2.82230265-1.77-4.09-2.18-3.47-3.5-3.86-3.5-3.86s1.98-3.66 5.91-2.5c0 0 3.4 5.39 4.04 10.31v.01c.1318781.9557096.1285117 1.9252292-.01 2.88z" fill="#a0522d"/><path id="Shape" d="m54.05 11.62v-.01c-.64-4.92-4.04-10.31-4.04-10.31-.9719867-.3097813-2.0175588-.30067109-2.984.026.171.273 3.4 5.494 4.024 10.284v.01c.1318781.9557096.1285117 1.9252292-.01 2.88-.2440017.1523874-.5010029.2828958-.768.39 1.2412539.5147539 2.658487.3680657 3.768-.39.1385117-.9547708.1418781-1.9242904.01-2.88z" fill="#783e22"/><path id="Shape" d="m22.7 52.587c-4.5740856.1094597-9.0426372-1.3828873-12.633-4.219-.40399627-.3769343-.4259343-1.0100037-.049-1.414.3769344-.4039963 1.0100037-.4259343 1.414-.049.4.374 10.087 9.034 26.537-1.311 17.263-10.859 14.417-24.252 14.036-25.743-.1380712-.5348878.1836122-1.0804288.7185-1.2185s1.0804288.1836122 1.2185.7185c.418 1.636 3.555 16.319-14.909 27.933-6.373 4.016-11.881 5.303-16.333 5.303z" fill="#a0522d"/><path id="Shape" d="m50.857.766c-.1295144-.20667283-.330096-.35888726-.564-.428-2.7670691-.79866158-5.7154767.44885395-7.069 2.991-.1520497.2576811-.1781931.5706645-.071.85.1065322.27334879.3336191.48197334.615.565.01 0 1.128.5 2.983 3.445.6427898 1.03404673 1.1489973 2.1469637 1.506 3.311-1.379 1.642-1.775 3.642-2.333 6.546-.2 1.041-.425 2.213-.73 3.545-.3244369 1.3415996-.813127 2.6380557-1.455 3.86-1.239-9.658-6.667-11.801-11.239-11.801-1.6837302-.1013255-3.3496936.390891-4.708 1.391-.543445.4304977-1.1877849.71515-1.872.827-.0711364-.5615756-.1749795-1.1185221-.311-1.668h.033c2.149 0 6.136-.388 9-2.95 3.18-2.85 3.884-7.475 4.04-9.332.0382222-.48118367-.1213966-.95715086-.442-1.318-.3174374-.35759594-.7671743-.57000182-1.245-.588-1.842-.069-6.474.081-9.659 2.935-1.8872441 1.84030313-3.1623052 4.21690252-3.652 6.807-.8923701-1.36175243-2.0271838-2.54808689-3.348-3.5-.2895638-.20935765-.6688227-.24833167-.9949136-.10224092-.3260909.14609076-.5494729.45505162-.586.81050002-.0365272.3554484.1193498.70338327.4089136.9127409 2.5720331 1.91573069 4.2728983 4.7789437 4.725 7.954-.6120394-.1352551-1.1862733-.4051212-1.681-.79-1.3585721-.9993988-3.0245118-1.4909006-4.708-1.389-5.246 0-11.5 2.807-11.5 16.18 0 5.412 1.56 8.97 3.4 11.286-.422-.08-.816-.157-1.157-.226l-.648-.14c-2.208-.48-3.667-.8-5.576.4-1.081.68-1.849 2.378.631 6.6 2.15928304 3.478122 5.01024167 6.4754407 8.376 8.806 3.7360188 2.2846345 8.0400697 3.4705966 12.419 3.422 6.174 0 12.9-2.13 19.586-6.337 11.755-7.394 17.969-16.607 17.969-26.641 0-8.88-2.941-12.758-6.025-15.878-.764-4.963-3.95-10.09-4.118-10.356zm-22.187 3.67c2.511-2.248 6.249-2.475 7.992-2.436-.175 1.751-.84 5.5-3.358 7.759-2.5 2.241-6.241 2.459-7.992 2.431.174-1.744.838-5.496 3.358-7.754zm16.851-.909c.9233938-1.14113074 2.4093342-1.6671034 3.845-1.361.861 1.46 4.154 7.379 3.745 11.705-.7047261.3599047-1.5246111.4211708-2.275.17-.2767031-2.4537161-1.0936121-4.81564859-2.392-6.916-.7820029-1.34355358-1.7681094-2.55737884-2.923-3.598zm-37.521 26.303c0-9.409 3.2-14.18 9.5-14.18 1.2830986-.1022478 2.5589244.2715293 3.584 1.05 1.1219232.8541835 2.5071612 1.2892813 3.916 1.23 1.4088388.0592813 2.7940768-.3758165 3.916-1.23 1.0250756-.7784707 2.3009014-1.1522478 3.584-1.05 5.96 0 9.14 4.282 9.464 12.715-2.5315509 3.4773471-5.6941152 6.4479119-9.323 8.757-5.8596084 3.5688375-12.7059541 5.1727764-19.541 4.578-.126-.015-.23-.032-.351-.048-3.144-2.481-4.749-6.452-4.749-11.822zm-4.918 13.017c1.137-.716 1.906-.612 3.7-.225-.77295848 1.2228495-1.77582002 2.2841236-2.953 3.125-1.039-2.054-.845-2.839-.747-2.9zm38.884 9.1c-10.9 6.856-21.794 7.915-29.888 2.908-2.84334134-1.9901587-5.29391993-4.48922-7.228-7.371 2.1-1.631 3.417-3.12 3.927-4.449 1.055.2 2.386.439 4.082.645 7.2896259.6421751 14.59368-1.0624312 20.846-4.865 5.166-3.249 11.785-9.593 13.439-16.778.311-1.359.541-2.555.745-3.616.2135184-1.3577807.5386197-2.6956458.972-4 .018.188.023.3.023.3.0104059.3216554.1739249.6189627.44.8.7386538.4470651 1.5866047.6810303 2.45.676.995811-.0090549 1.9679223-.3048544 2.8-.852.2428775-.1525226.4085786-.4019846.455-.685.026-.155.031-.316.048-.474 2.209 2.656 3.923 6.145 3.923 12.814 0 9.312-5.891 17.938-17.034 24.948z" fill="#000"/></g></g></svg>