<?xml version="1.0" encoding="iso-8859-1"?>
<!-- Generator: Adobe Illustrator 19.0.0, SVG Export Plug-In . SVG Version: 6.00 Build 0)  -->
<svg version="1.1" id="Capa_1" xmlns="http://www.w3.org/2000/svg" xmlns:xlink="http://www.w3.org/1999/xlink" x="0px" y="0px"
	 viewBox="0 0 479.999 479.999" style="enable-background:new 0 0 479.999 479.999;" xml:space="preserve">
<path style="fill:#6A3311;" d="M149.528,263.998c-4.418,0-8-3.582-8-8v-48c0-4.418,3.582-8,8-8s8,3.582,8,8v48
	C157.528,260.417,153.946,263.998,149.528,263.998z"/>
<path style="fill:#5E9F51;" d="M149.528,207.998c-26.51,0-48-21.49-48-48v-16c26.51,0,48,21.49,48,48V207.998z"/>
<path style="fill:#77BD63;" d="M149.528,207.998v16c26.51,0,48-21.49,48-48v-16C171.018,159.998,149.528,181.489,149.528,207.998z"
	/>
<path style="fill:#F36D60;" d="M206.096,231.998h10.184c18.724,0,36.681,7.439,49.92,20.68c21.46,21.456,28.18,53.582,17.12,81.84
	l-41.136,105.128c-7.634,19.513-26.447,32.353-47.4,32.352c-8.489,0-16.63-3.372-22.632-9.376
	c-12.496-12.497-32.758-12.498-45.255-0.001c0,0-0.001,0.001-0.001,0.001c-6,6.002-14.138,9.374-22.624,9.376
	c-20.955,0-39.769-12.839-47.408-32.352L15.728,334.518c-11.056-28.259-4.336-60.382,17.12-81.84
	c13.273-13.273,31.154-20.912,49.92-21.328l8.16-0.176c11.108-0.244,21.833,4.062,29.688,11.92l1.984,1.976
	c14.773,14.956,38.873,15.105,53.83,0.332c0.236-0.233,0.469-0.469,0.698-0.708l0.552-0.568
	C185.101,236.377,195.366,231.996,206.096,231.998L206.096,231.998z"/>
<path style="fill:#D1EEF6;" d="M453.528,127.998h-240l24,344h192L453.528,127.998z"/>
<path style="fill:#F36D60;" d="M237.528,471.998h192l18.416-264h-228.84L237.528,471.998z"/>
<path style="fill:#E9E4E3;" d="M469.528,31.998l-64,64v368h-32v-384l72-72L469.528,31.998z"/>
<path style="fill:#AFD9E8;" d="M373.528,127.998h32v80h-32V127.998z"/>
<g>
	<path style="fill:#DC5B4D;" d="M373.528,207.998h32v256h-32V207.998z"/>
	<path style="fill:#DC5B4D;" d="M266.2,252.678c-12.641-12.61-29.595-19.957-47.44-20.56
		c-23.371,87.982-82.501,162.166-163.056,204.568l1.16,2.96c7.639,19.513,26.453,32.352,47.408,32.352
		c8.486-0.002,16.624-3.374,22.624-9.376c12.496-12.497,32.758-12.498,45.255-0.001c0,0,0.001,0.001,0.001,0.001
		c6.002,6.004,14.143,9.376,22.632,9.376c20.953,0.001,39.766-12.839,47.4-32.352l41.136-105.128
		C294.384,306.26,287.663,274.132,266.2,252.678z"/>
</g>
<path d="M451.184,2.342c-3.124-3.123-8.188-3.123-11.312,0l-72,72c-1.5,1.5-2.344,3.534-2.344,5.656v40h-152
	c-4.418-0.011-8.009,3.563-8.019,7.981c0,0.191,0.006,0.381,0.019,0.571l6.672,95.448h-6.112c-13.173,0.092-25.73,5.587-34.736,15.2
	c-3.784,3.9-8.565,6.687-13.824,8.056v-15.896c27.517-3.993,47.947-27.555,48-55.36v-16c0-4.418-3.582-8-8-8
	c-16.889,0.009-32.869,7.654-43.472,20.8c-8.069-22.061-29.038-36.751-52.528-36.8c-4.418,0-8,3.582-8,8v16
	c0.053,27.805,20.483,51.367,48,55.36v31.744c-5.016-1.383-9.59-4.036-13.28-7.704l-1.976-1.96
	c-9.376-9.437-22.23-14.589-35.528-14.24l-8.16,0.176c-20.831,0.43-40.684,8.915-55.392,23.672
	C3.484,270.744-3.94,306.232,8.28,337.446l41.128,105.112c8.757,22.648,30.582,37.542,54.864,37.44
	c10.615,0.028,20.8-4.189,28.288-11.712c9.493-9.072,24.443-9.072,33.936,0c7.484,7.525,17.667,11.742,28.28,11.712
	c12.396,0.005,24.475-3.916,34.504-11.2l0.248,3.76c0.295,4.198,3.791,7.45,8,7.44h192c4.209,0.01,7.705-3.242,8-7.44l24-344
	c0.309-4.407-3.013-8.231-7.42-8.54c-0.193-0.014-0.386-0.02-0.58-0.02h-40V99.31l61.656-61.656c3.123-3.124,3.123-8.188,0-11.312
	L451.184,2.342z M365.528,135.998v64h-138.96l-4.464-64H365.528z M381.528,135.998h16v64h-16V135.998z M189.528,168.798v7.2
	c-0.021,19.002-13.387,35.375-32,39.2v-7.2C157.548,188.996,170.915,172.623,189.528,168.798z M109.528,159.998v-7.2
	c18.613,3.825,31.979,20.198,32,39.2v7.2C122.915,195.374,109.548,179,109.528,159.998z M194.776,463.998
	c-6.36-0.018-12.456-2.542-16.968-7.024c-15.62-15.615-40.94-15.615-56.56,0c-4.495,4.512-10.607,7.041-16.976,7.024
	c-17.686,0.078-33.582-10.773-39.952-27.272L23.184,331.598c-9.902-25.296-3.888-54.055,15.32-73.264
	c11.797-11.843,27.728-18.648,44.44-18.984l8.184-0.152c8.913-0.092,17.498,3.361,23.864,9.6l1.976,1.968
	c8.751,8.944,20.802,13.884,33.312,13.656c12.614-0.15,24.613-5.471,33.192-14.72c5.913-6.165,14.074-9.667,22.616-9.704h10.192
	c16.612-0.046,32.551,6.556,44.264,18.336c19.207,19.209,25.224,47.966,15.328,73.264l-41.144,105.128
	C228.358,453.225,212.461,464.077,194.776,463.998z M244.216,452.91c2.142-3.265,3.959-6.732,5.424-10.352l41.136-105.128
	c12.211-31.216,4.785-66.701-18.92-90.4c-11.782-11.813-27.046-19.531-43.544-22.016l-0.624-9.016h137.84v248H244.992
	L244.216,452.91z M381.528,463.998v-248h16v248H381.528z M422.064,463.998h-8.536v-248h25.84L422.064,463.998z M444.952,135.998
	l-4.464,64h-26.96v-64H444.952z M399.872,90.342c-1.5,1.5-2.344,3.534-2.344,5.656v24h-16V83.31l64-64l12.688,12.688L399.872,90.342
	z"/>
<g>
</g>
<g>
</g>
<g>
</g>
<g>
</g>
<g>
</g>
<g>
</g>
<g>
</g>
<g>
</g>
<g>
</g>
<g>
</g>
<g>
</g>
<g>
</g>
<g>
</g>
<g>
</g>
<g>
</g>
</svg>
