<svg id="Capa_1" enable-background="new 0 0 512.12 512.12" height="512" viewBox="0 0 512.12 512.12" width="512" xmlns="http://www.w3.org/2000/svg"><g><path d="m159.359 403.831 70.175-115.494-18.674 207.068c-33.288.005-60.269-26.979-60.264-60.271.001-11.464 3.207-22.178 8.763-31.303z" fill="#fb9c59"/><path d="m180.596 435.134c0-11.464 1.987-22.178 5.432-31.303l43.506-115.494 53.018-.063 70.221 115.557c5.557 9.125 8.762 19.84 8.763 31.303.005 33.291-26.976 60.275-60.264 60.271-18.007-.003-34.195-7.912-45.241-20.434-11.046 12.522-27.164 20.432-45.171 20.434-16.717.005-30.266-26.979-30.264-60.271z" fill="#fbb860"/><path d="m81.63 206.882 131.527 31.051-202.704 46.227c-10.291-31.657 7.035-65.657 38.698-75.939 10.903-3.541 22.084-3.804 32.479-1.339z" fill="#fb9c59"/><path d="m58.422 236.753c10.903-3.542 21.707-4.963 31.45-4.507l123.286 5.687 16.444 50.403-88.203 102.494c-6.962 8.104-16.161 14.464-27.063 18.008-31.66 10.292-65.661-7.03-75.943-38.69-5.562-17.127-3.042-34.966 5.454-49.341-15.323-6.636-27.826-19.521-33.393-36.646-5.171-15.898 16.305-37.123 47.968-47.408z" fill="#fbb860"/><path d="m244.92 72.097 11.113 134.685-106.604-178.498c26.928-19.57 64.617-13.599 84.181 13.337 6.737 9.276 10.442 19.828 11.31 30.476z" fill="#fb9c59"/><path d="m209.34 59.255c6.738 9.275 11.428 19.111 14.005 28.518l32.689 119.009-42.855 31.214-124.734-52.213c-9.859-4.116-18.75-10.901-25.489-20.174-19.572-26.93-13.605-64.62 13.329-84.182 14.57-10.582 32.315-13.698 48.612-10.06 1.576-16.623 9.967-32.496 24.533-43.083 13.521-9.83 40.343 4.036 59.91 30.971z" fill="#fbb860"/><path d="m423.568 185.744-124.659 52.189 136.819-156.545c26.933 19.562 32.901 57.252 13.329 84.182-6.739 9.274-15.63 16.058-25.489 20.174z" fill="#fb9c59"/><path d="m424.786 147.936c-6.739 9.274-14.644 16.774-22.795 22.132l-103.083 67.865-42.93-31.112 11.113-134.763c.868-10.649 4.573-21.201 11.31-30.476 19.564-26.936 57.253-32.908 84.181-13.337 14.566 10.586 23.013 26.5 24.59 43.124 16.297-3.638 33.986-.563 48.555 10.019 13.528 9.822 8.63 39.617-10.941 66.548z" fill="#fbb860"/><path d="m370.688 390.767-88.156-102.43 191.163 81.748c-10.282 31.66-44.283 48.982-75.943 38.69-10.903-3.544-20.102-9.904-27.064-18.008z" fill="#fb9c59"/><path d="m407.022 380.243c-10.903-3.543-20.479-8.744-28.093-14.84l-96.397-77.066 16.323-50.443 131.601-31.075c10.396-2.465 21.576-2.202 32.479 1.339 31.663 10.283 48.989 44.282 38.698 75.939-5.567 17.125-18.092 30.076-33.415 36.712 8.496 14.375 11.037 32.148 5.476 49.275-5.16 15.901-35.011 20.449-66.672 10.159z" fill="#fbb860"/><path d="m256.054 206.775v90.178c24.853 0 45-20.187 45-45.089s-20.148-45.089-45-45.089z" fill="#5e403d"/><path d="m271.054 251.864c0-24.902-6.716-45.089-15-45.089-24.853 0-45 20.187-45 45.089s20.147 45.089 45 45.089c8.284 0 15-20.187 15-45.089z" fill="#79493c"/><path d="m504.7 234.77c-8.219-16.129-22.229-28.09-39.448-33.682-11.834-3.844-24.466-4.363-36.522-1.505l-42.837 10.132 40.639-17.011c11.439-4.777 21.352-12.622 28.666-22.687 10.644-14.645 14.947-32.557 12.116-50.436-2.831-17.88-12.457-33.585-27.104-44.224-13.571-9.857-30.253-14.279-46.771-12.59-3.494-16.229-12.835-30.714-26.372-40.553-14.645-10.644-32.555-14.942-50.435-12.111-17.878 2.832-33.584 12.46-44.224 27.108-7.312 10.067-11.709 21.919-12.716 34.271l-3.602 43.871-3.621-43.906c-1.007-12.354-5.404-24.206-12.717-34.274-10.64-14.648-26.345-24.276-44.224-27.108-17.877-2.835-35.79 1.469-50.435 12.111-13.567 9.861-22.928 24.361-26.427 40.593-16.511-1.689-33.177 2.717-46.716 12.55-14.648 10.639-24.273 26.344-27.104 44.224-2.831 17.879 1.472 35.79 12.116 50.436 7.314 10.064 17.227 17.909 28.66 22.684l40.595 16.995-42.857-10.137c-12.06-2.858-24.691-2.341-36.526 1.504-11.549 3.75-21.885 10.537-29.889 19.626-2.738 3.109-2.437 7.848.672 10.586 3.109 2.737 7.849 2.435 10.585-.672 6.228-7.072 14.272-12.354 23.265-15.274 9.217-2.993 19.048-3.398 28.437-1.173l124.317 29.404c-.435 2.719-.668 5.503-.668 8.343 0 14.51 5.898 27.666 15.417 37.19l-83.262 96.826c-6.284 7.315-14.477 12.767-23.693 15.762-13.405 4.357-27.705 3.234-40.264-3.164s-21.873-17.305-26.226-30.711c-4.665-14.364-2.916-30.089 4.799-43.144 1.095-1.853 1.341-4.087.676-6.133-.665-2.047-2.177-3.71-4.152-4.565-13.914-6.025-24.58-17.743-29.262-32.147-2.923-8.992-3.378-18.604-1.315-27.799.906-4.042-1.635-8.054-5.677-8.96-4.047-.908-8.053 1.636-8.96 5.677-2.65 11.818-2.067 24.17 1.687 35.719 5.185 15.95 16.083 29.335 30.439 37.678-6.712 15.183-7.669 32.393-2.5 48.308 5.592 17.219 17.554 31.227 33.684 39.443 16.129 8.219 34.495 9.66 51.711 4.063 11.833-3.847 22.357-10.851 30.432-20.251l28.7-33.375-22.878 37.648c-6.447 10.587-9.856 22.76-9.858 35.203-.002 18.104 7.045 35.125 19.844 47.925 12.797 12.799 29.812 19.847 47.922 19.847 16.772-.003 32.869-6.23 45.24-17.307 12.364 11.076 28.437 17.304 45.181 17.307 18.099-.001 35.115-7.049 47.912-19.847 12.799-12.8 19.846-29.82 19.844-47.925-.002-12.443-3.411-24.616-9.854-35.197l-22.854-37.612 28.715 33.393c8.077 9.403 18.602 16.407 30.434 20.254 17.217 5.598 35.582 4.155 51.712-4.063 16.129-8.217 28.092-22.225 33.684-39.443 5.181-15.952 4.231-33.186-2.479-48.373 14.354-8.338 25.245-21.699 30.418-37.612 5.593-17.218 4.149-35.582-4.07-51.71zm-230.058-162.063c.784-9.612 4.208-18.838 9.903-26.679 8.285-11.406 20.514-18.902 34.435-21.107 13.92-2.208 27.866 1.145 39.269 9.43 12.216 8.88 20.044 22.63 21.476 37.725.203 2.143 1.317 4.095 3.058 5.359 1.741 1.265 3.941 1.718 6.042 1.253 14.799-3.303 30.315-.093 42.571 8.809 11.405 8.283 18.899 20.512 21.104 34.433s-1.146 27.867-9.435 39.271c-5.697 7.839-13.412 13.946-22.318 17.666l-117.835 49.325c-7.49-14.814-21.764-25.623-38.711-28.279zm-183.233 106.117c-8.9-3.717-16.616-9.824-22.313-17.663-8.288-11.404-11.639-25.351-9.435-39.271s9.699-26.149 21.104-34.433c12.221-8.876 27.717-12.072 42.514-8.768 2.1.466 4.301.013 6.042-1.253 1.741-1.265 2.855-3.217 3.058-5.359 1.432-15.095 9.28-28.859 21.533-37.765 11.402-8.288 25.351-11.64 39.269-9.431 13.921 2.205 26.15 9.701 34.435 21.107 5.695 7.842 9.12 17.067 9.904 26.686l10.491 127.219c-16.975 2.625-31.28 13.432-38.791 28.252zm127.145 73.041c0-20.727 16.822-37.589 37.5-37.589s37.5 16.862 37.5 37.589c0 20.726-16.822 37.588-37.5 37.588s-37.5-16.863-37.5-37.588zm127.768 155.866c5.016 8.237 7.668 17.713 7.669 27.404.002 14.098-5.485 27.351-15.451 37.317-9.964 9.965-23.211 15.452-37.313 15.452-15.103-.003-29.517-6.525-39.547-17.896-1.424-1.613-3.472-2.538-5.625-2.538-2.152 0-4.201.925-5.624 2.538-10.03 11.371-24.471 17.894-39.625 17.896-14.093 0-27.341-5.487-37.305-15.452-9.966-9.967-15.453-23.22-15.451-37.317.001-9.691 2.654-19.167 7.673-27.41l66.311-109.123c7.204 3.73 15.367 5.851 24.02 5.851 8.635 0 16.782-2.112 23.974-5.827zm148.179-125.889c-4.669 14.361-15.327 26.055-29.242 32.082-1.975.855-3.487 2.518-4.152 4.564s-.419 4.28.676 6.134c7.715 13.053 9.456 28.802 4.777 43.209-4.354 13.406-13.668 24.313-26.226 30.711-12.558 6.397-26.858 7.521-40.266 3.162-9.216-2.995-17.408-8.446-23.695-15.765l-83.279-96.846c9.543-9.527 15.459-22.699 15.459-37.229 0-2.82-.229-5.586-.658-8.287l124.291-29.398c9.385-2.225 19.216-1.818 28.433 1.174 13.408 4.354 24.316 13.668 30.716 26.227 6.399 12.558 7.524 26.856 3.166 40.262z"/></g></svg>