<svg height="512" viewBox="0 0 512 512" width="512" xmlns="http://www.w3.org/2000/svg"><g id="filled_outline" data-name="filled outline"><rect fill="#683b0d" height="32" rx="16" width="288" x="112" y="88"/><path d="m384 376h-256l-8-24 8-16-2.4-15.588a603 603 0 0 1 -.952-176.965l3.352-23.447h256l3.35 23.447a603 603 0 0 1 -.952 176.965l-2.398 15.588 8 16z" fill="#834b10"/><path d="m248 376v-230a8 8 0 0 1 16 0v230z" fill="#d18d28"/><path d="m256 216-8.251-24.752a34 34 0 0 0 -32.255-23.248h-23.494l8.894 22.235a34 34 0 0 0 25.979 20.91z" fill="#ea9d2d"/><path d="m256 280-8.251-24.752a34 34 0 0 0 -32.255-23.248h-23.494l8.894 22.235a34 34 0 0 0 25.979 20.91z" fill="#fbb540"/><path d="m256 344-8.251-24.752a34 34 0 0 0 -32.255-23.248h-23.494l8.894 22.235a34 34 0 0 0 25.979 20.91z" fill="#ea9d2d"/><path d="m256 216 8.251-24.752a34 34 0 0 1 32.255-23.248h23.494l-8.894 22.235a34 34 0 0 1 -25.979 20.91z" fill="#fbb540"/><path d="m256 280 8.251-24.752a34 34 0 0 1 32.255-23.248h23.494l-8.894 22.235a34 34 0 0 1 -25.979 20.91z" fill="#ea9d2d"/><path d="m256 344 8.251-24.752a34 34 0 0 1 32.255-23.248h23.494l-8.894 22.235a34 34 0 0 1 -25.979 20.91z" fill="#fbb540"/><path d="m256 88-15.924 26.539a23.346 23.346 0 0 0 1.343 26.019l14.581 19.442 14.581-19.442a23.346 23.346 0 0 0 1.343-26.019z" fill="#fbb540"/><path d="m385.768 88a87.939 87.939 0 0 0 -69.253-39.886 87.984 87.984 0 0 0 -121.971.909 88.022 88.022 0 0 0 -60.312 38.977z" fill="#ea9d2d"/><path d="m151.994 280a8 8 0 0 1 -7.755-6.061c-.695-2.778-1.321-5.617-1.861-8.437a8 8 0 0 1 15.715-3.008c.484 2.529 1.045 5.073 1.668 7.563a8.007 8.007 0 0 1 -7.767 9.943z" fill="#683b0d"/><path d="m147.66 248a8 8 0 0 1 -7.993-7.805 154.948 154.948 0 0 1 2.957-34.108l1.531-7.656a8 8 0 1 1 15.69 3.138l-1.532 7.656a138.939 138.939 0 0 0 -2.651 30.58 8 8 0 0 1 -7.8 8.193z" fill="#683b0d"/><path d="m158.494 448.972a16 16 0 0 0 -12.235.519l-17 7.9a16 16 0 0 0 -8.284 9.019 16 16 0 0 0 9.538 20.519 16 16 0 0 0 12.235-.519l17-7.9a16 16 0 0 0 8.284-9.018 16 16 0 0 0 -9.538-20.52z" fill="#bf6d48"/><g fill="#683b0d"><path d="m111.956 409.724a15.981 15.981 0 0 0 -8.557-8.737l-17.2-7.329a15.912 15.912 0 0 0 -12.211-.109 16.016 16.016 0 0 0 -8.821 20.826 15.981 15.981 0 0 0 8.557 8.737l17.2 7.328a15.912 15.912 0 0 0 12.211.11 16.016 16.016 0 0 0 8.821-20.826z"/><path d="m416.67 435.579a16.043 16.043 0 0 0 1.573 12.144l9.318 16.25a15.964 15.964 0 0 0 9.675 7.471 15.95 15.95 0 0 0 19.564-11.281 16.039 16.039 0 0 0 -1.574-12.144l-9.326-16.249a15.96 15.96 0 0 0 -9.675-7.471 15.948 15.948 0 0 0 -19.555 11.28z"/><path d="m230.586 408a15.929 15.929 0 0 0 -11.387 4.422l-13.521 12.943a16.028 16.028 0 0 0 -4.934 11.2 15.981 15.981 0 0 0 15.579 16.368 15.933 15.933 0 0 0 11.387-4.422l13.52-12.943a16.02 16.02 0 0 0 4.934-11.2 15.98 15.98 0 0 0 -15.578-16.368z"/></g><path d="m288.015 469.037a16 16 0 0 0 8.127 9.16l16.858 8.194a16 16 0 0 0 12.224.73 16 16 0 0 0 9.891-20.351 16 16 0 0 0 -8.128-9.161l-16.859-8.193a16 16 0 0 0 -12.224-.731 16 16 0 0 0 -9.889 20.352z" fill="#bf6d48"/><path d="m346.231 439.542a16 16 0 0 0 12.21-.936l16.72-8.477a16 16 0 0 0 7.971-9.3 16 16 0 0 0 -10.232-20.177 16 16 0 0 0 -12.211.936l-16.719 8.476a16 16 0 0 0 -7.972 9.3 16 16 0 0 0 10.233 20.178z" fill="#bf6d48"/><g fill="#834b10"><circle cx="239" cy="63" r="7"/><circle cx="281" cy="65" r="7"/><circle cx="263" cy="47" r="7"/></g><path d="m390.645 80.943a96.336 96.336 0 0 0 -70.79-40.625 95.987 95.987 0 0 0 -129.047 1.22 96.093 96.093 0 0 0 -60.784 38.462h-2.024a24 24 0 0 0 -8.974 46.253l-2.3 16.062a610.52 610.52 0 0 0 .964 179.313l2.011 13.072-6.861 13.722a8 8 0 0 0 -.434 6.108l8 24a8 8 0 0 0 7.594 5.47h256a8 8 0 0 0 7.589-5.47l8-24a8 8 0 0 0 -.434-6.108l-6.861-13.722 2.011-13.072a610.52 610.52 0 0 0 .964-179.313l-2.3-16.062a23.992 23.992 0 0 0 -2.329-45.31zm-6.645 31.057h-104.349c-.278-.529-.557-1.059-.867-1.577l-8.654-14.423h113.87a8 8 0 0 1 0 16zm-128 34.667-8.181-10.909a15.286 15.286 0 0 1 -.883-17.1l9.064-15.109 9.064 15.106a15.289 15.289 0 0 1 -.882 17.1zm-60.242-89.737a8 8 0 0 0 4.374-2.182 79.985 79.985 0 0 1 110.881-.827 8 8 0 0 0 5.1 2.183 80.192 80.192 0 0 1 53.004 23.896h-218.249a79.927 79.927 0 0 1 44.89-23.07zm-67.758 39.07h113.87l-8.654 14.424c-.31.518-.589 1.047-.867 1.576h-104.349a8 8 0 0 1 0-16zm.637 256.614 6.518-13.036a8 8 0 0 0 .752-4.794l-2.4-15.588a594.529 594.529 0 0 1 -.939-174.618l2.37-16.578h93.826a31.285 31.285 0 0 0 6.255 17.358l12.981 17.308v12.734a41.941 41.941 0 0 0 -32.506-15.4h-23.494a8 8 0 0 0 -7.428 10.971l8.894 22.236a42.244 42.244 0 0 0 32.092 25.83l22.442 3.74v16.623a41.941 41.941 0 0 0 -32.506-15.4h-23.494a8 8 0 0 0 -7.428 10.971l8.894 22.236a42.244 42.244 0 0 0 32.092 25.83l22.442 3.74v16.623a41.941 41.941 0 0 0 -32.506-15.4h-23.494a8 8 0 0 0 -7.428 10.971l8.894 22.236a42.244 42.244 0 0 0 32.092 25.83l22.442 3.74v17.223h-114.234zm115.572-146.69-16.021-2.67a26.147 26.147 0 0 1 -19.866-15.99l-4.506-11.264h11.678a25.968 25.968 0 0 1 24.666 17.778zm0 64-16.021-2.67a26.147 26.147 0 0 1 -19.866-15.99l-4.506-11.264h11.678a25.968 25.968 0 0 1 24.666 17.778zm0 64-16.021-2.67a26.147 26.147 0 0 1 -19.866-15.99l-4.506-11.264h11.678a25.968 25.968 0 0 1 24.666 17.778zm134.282-14.724-2.4 15.588a8 8 0 0 0 .752 4.794l6.518 13.036-5.127 15.382h-114.234v-17.223l22.443-3.74a42.245 42.245 0 0 0 32.091-25.83l8.894-22.236a8 8 0 0 0 -7.428-10.971h-23.494a41.941 41.941 0 0 0 -32.506 15.4v-16.623l22.443-3.74a42.245 42.245 0 0 0 32.091-25.83l8.894-22.236a8 8 0 0 0 -7.428-10.971h-23.494a41.941 41.941 0 0 0 -32.506 15.4v-16.623l22.443-3.74a42.245 42.245 0 0 0 32.091-25.83l8.894-22.236a8 8 0 0 0 -7.428-10.971h-23.494a41.941 41.941 0 0 0 -32.506 15.4v-12.73l12.982-17.308a31.291 31.291 0 0 0 6.254-17.362h93.826l2.368 16.578a594.529 594.529 0 0 1 -.939 174.622zm-110.7 14.728 4.049-12.146a25.968 25.968 0 0 1 24.666-17.782h11.678l-4.506 11.264a26.147 26.147 0 0 1 -19.866 15.99zm0-64 4.049-12.146a25.968 25.968 0 0 1 24.666-17.782h11.678l-4.506 11.264a26.147 26.147 0 0 1 -19.866 15.99zm0-64 4.049-12.146a25.968 25.968 0 0 1 24.666-17.782h11.678l-4.506 11.264a26.147 26.147 0 0 1 -19.866 15.99z"/><path d="m158.093 262.5a8 8 0 0 0 -15.715 3.008c.54 2.82 1.166 5.659 1.861 8.437a8 8 0 1 0 15.522-3.882c-.623-2.494-1.184-5.038-1.668-7.563z"/><path d="m153.569 192.155a8 8 0 0 0 -9.414 6.276l-1.531 7.656a154.948 154.948 0 0 0 -2.957 34.108 8 8 0 0 0 7.993 7.805h.2a8 8 0 0 0 7.8-8.193 138.939 138.939 0 0 1 2.651-30.58l1.532-7.656a8 8 0 0 0 -6.274-9.416z"/><path d="m127.769 494.444a23.845 23.845 0 0 0 18.352-.779l17-7.9a24 24 0 0 0 -20.232-43.528l-17 7.9a24 24 0 0 0 1.881 44.307zm.721-25.288a7.952 7.952 0 0 1 4.142-4.51l17-7.9a8 8 0 0 1 6.744 14.509l-17 7.9a8 8 0 0 1 -10.886-10z"/><path d="m69.885 386.13a24 24 0 0 0 -.4 44.345l17.255 7.325a24 24 0 0 0 31.638-31.074 23.838 23.838 0 0 0 -12.871-13.1l-17.254-7.326a23.844 23.844 0 0 0 -18.368-.17zm33.657 26.589a8 8 0 0 1 -10.542 10.358l-17.254-7.329a8 8 0 1 1 6.254-14.726l17.253 7.329a7.948 7.948 0 0 1 4.289 4.368z"/><path d="m464.517 462.247a23.843 23.843 0 0 0 -2.367-18.216l-9.345-16.249a24 24 0 1 0 -41.61 23.929l9.346 16.249a24 24 0 0 0 43.976-5.713zm-30.106-2.263-9.346-16.249a8 8 0 0 1 13.87-7.977l9.345 16.25a8 8 0 1 1 -13.869 7.976z"/><path d="m230.118 400.006a23.9 23.9 0 0 0 -17.13 6.634l-13.559 12.942a24 24 0 0 0 16.013 41.355c.191 0 .382.006.572.006a23.836 23.836 0 0 0 16.558-6.64l13.559-12.942a24 24 0 0 0 -16.013-41.355zm4.965 29.781-13.559 12.942a8 8 0 1 1 -11.047-11.573l13.559-12.943a7.944 7.944 0 0 1 5.519-2.213h.191a8 8 0 0 1 5.337 13.785z"/><path d="m295.291 441.125a24 24 0 0 0 -2.646 44.267l16.86 8.194a24 24 0 1 0 20.981-43.172l-16.86-8.194a23.843 23.843 0 0 0 -18.335-1.095zm32.265 28.26a8 8 0 0 1 -11.056 9.815l-16.861-8.2a8 8 0 1 1 6.994-14.39l16.859 8.194a7.941 7.941 0 0 1 4.064 4.581z"/><path d="m343.744 447.146a23.854 23.854 0 0 0 18.315-1.405l16.719-8.476a24 24 0 1 0 -21.705-42.812l-16.719 8.476a24 24 0 0 0 3.39 44.217zm-.141-25.3a7.947 7.947 0 0 1 3.986-4.647l16.719-8.477a7.963 7.963 0 0 1 3.609-.869 8.049 8.049 0 0 1 2.5.4 8 8 0 0 1 1.13 14.739l-16.719 8.477a8 8 0 0 1 -11.221-9.624z"/><circle cx="239" cy="63" r="7"/><circle cx="281" cy="65" r="7"/><circle cx="263" cy="47" r="7"/></g></svg>