<svg id="Capa_1" enable-background="new 0 0 512 512" height="512" viewBox="0 0 512 512" width="512" xmlns="http://www.w3.org/2000/svg"><g><g><path d="m408.604 368.226c5.099 0 10.151.973 14.886 2.867l25.747 10.299c4.734 1.894 9.787 2.867 14.886 2.867h32.362c4.427 0 8.016-3.589 8.016-8.016v-240.485c0-4.427-3.589-8.016-8.016-8.016h-32.362c-5.099 0-10.151.973-14.886 2.867l-25.747 10.299c-4.734 1.894-9.787 2.867-14.886 2.867h-305.208c-5.099 0-10.151-.973-14.886-2.867l-25.747-10.299c-4.734-1.894-9.787-2.867-14.886-2.867h-32.361c-4.427 0-8.016 3.589-8.016 8.016v240.484c0 4.427 3.589 8.016 8.016 8.016h32.362c5.099 0 10.151-.973 14.886-2.867l25.747-10.299c4.734-1.894 9.787-2.867 14.886-2.867h305.207z" fill="#f0a673"/><path d="m456.403 358.357-23.983-9.593c-7.609-3.044-15.622-4.587-23.816-4.587h-305.208c-8.194 0-16.207 1.543-23.816 4.587l-23.983 9.593v25.137c2.442-.479 4.845-1.174 7.167-2.102l25.747-10.299c4.734-1.894 9.787-2.867 14.885-2.867h305.208c5.098 0 10.151.973 14.885 2.867l25.747 10.299c2.322.929 4.724 1.623 7.167 2.102z" fill="#de966c"/><path d="m55.597 352.194v-223.688c-2.538-.499-5.121-.764-7.719-.764h-32.362c-4.427 0-8.016 3.589-8.016 8.016v216.435h48.097z" fill="#f7b97e"/><path d="m456.403 352.194v-223.688c2.538-.499 5.121-.764 7.719-.764h32.362c4.427 0 8.016 3.589 8.016 8.016v216.435h-48.097z" fill="#f7b97e"/><path d="m252.527 177.664-62.511 36.09c-2.149 1.241-3.473 3.534-3.473 6.015v72.181c0 2.481 1.324 4.774 3.473 6.015l62.511 36.091c2.149 1.241 4.797 1.241 6.946 0l62.511-36.091c2.149-1.241 3.473-3.534 3.473-6.015v-72.18c0-2.481-1.324-4.774-3.473-6.015l-62.511-36.09c-2.149-1.241-4.797-1.241-6.946-.001z" fill="#f8d7ae"/><path d="m256 267.89v67.097c1.199 0 2.398-.311 3.473-.931l62.51-36.091c2.149-1.241 3.473-3.533 3.473-6.015v-72.18c0-1.241-.331-2.434-.931-3.473l-58.107 33.549c-6.447 3.722-10.418 10.6-10.418 18.044z" fill="#ffcd89"/><path d="m256 267.89v67.097c-1.199 0-2.398-.311-3.473-.931l-62.51-36.091c-2.149-1.241-3.473-3.533-3.473-6.015v-72.18c0-1.241.331-2.434.931-3.473l58.107 33.549c6.447 3.722 10.418 10.6 10.418 18.044z" fill="#f7b97e"/></g><g><path d="m496.484 120.242h-32.362c-6.081 0-12.026 1.145-17.671 3.403l-25.747 10.299c-3.865 1.546-7.937 2.331-12.1 2.331h-305.208c-4.164 0-8.235-.784-12.1-2.331l-25.747-10.299c-5.646-2.258-11.591-3.403-17.671-3.403h-32.362c-8.556 0-15.516 6.96-15.516 15.516v240.484c0 8.556 6.96 15.516 15.516 15.516h32.362c6.081 0 12.026-1.145 17.671-3.403l25.747-10.299c3.865-1.546 7.937-2.331 12.1-2.331h305.207c4.164 0 8.235.784 12.1 2.331l25.747 10.299c5.646 2.258 11.591 3.403 17.671 3.403h32.362c8.556 0 15.516-6.96 15.516-15.516v-240.484c.001-8.556-6.959-15.516-15.515-15.516zm-32.581 175.322h33.097v17.064h-33.097zm0-15v-17.064h33.097v17.064zm0-32.064v-17.064h33.097v17.064zm0-32.064v-17.064h33.097v17.064zm0-32.065v-17.064h33.097v17.064zm0 143.258h33.097v17.064h-33.097zm32.581-192.387c.285 0 .516.231.516.516v16.549h-33.097v-17.06c.073 0 .146-.005.219-.005zm-448.387 96.194v17.064h-33.097v-17.064zm-33.097-15v-17.064h33.097v17.064zm33.097 47.064v17.064h-33.097v-17.064zm0 32.064v17.064h-33.097v-17.064zm0-111.193h-33.097v-17.064h33.097zm-33.097 143.258h33.097v17.064h-33.097zm.516-192.387h32.362c.073 0 .146.004.219.005v17.06h-33.097v-16.549c0-.284.231-.516.516-.516zm0 241.516c-.285 0-.516-.231-.516-.516v-16.549h33.097v17.06c-.073 0-.146.005-.219.005zm410.759-12.629c-5.646-2.258-11.591-3.403-17.671-3.403h-305.208c-6.081 0-12.026 1.146-17.671 3.403l-22.628 9.051v-234.36l22.628 9.051c5.646 2.258 11.591 3.403 17.671 3.403h305.207c6.081 0 12.026-1.146 17.671-3.403l22.628-9.051v234.36zm70.209 12.629h-32.362c-.073 0-.146-.004-.219-.005v-17.06h33.097v16.549c0 .284-.231.516-.516.516z"/><path d="m329.172 209.424-69.422-40.08c-2.32-1.34-5.18-1.34-7.5 0l-69.422 40.08c-2.32 1.34-3.75 3.816-3.75 6.495v80.162c0 2.679 1.43 5.156 3.75 6.495l69.422 40.081c1.16.67 2.455 1.005 3.75 1.005s2.59-.335 3.75-1.005l69.422-40.081c2.32-1.339 3.75-3.816 3.75-6.495v-80.162c0-2.679-1.43-5.155-3.75-6.495zm-135.094 19.486 47.758 27.573c4.11 2.373 6.664 6.795 6.664 11.542v55.146l-54.422-31.42zm69.422 94.261v-55.146c0-10.088-5.427-19.487-14.163-24.532l-47.759-27.574 54.422-31.42 54.422 31.42-32.84 18.96c-3.587 2.071-4.816 6.658-2.745 10.245 1.389 2.406 3.91 3.751 6.502 3.751 1.272 0 2.562-.324 3.743-1.006l32.84-18.96v62.841z"/><path d="m95.677 176.354c-4.142 0-7.5 3.358-7.5 7.5v144.291c0 4.142 3.358 7.5 7.5 7.5s7.5-3.358 7.5-7.5v-144.291c0-4.141-3.358-7.5-7.5-7.5z"/><path d="m416.323 176.354c-4.142 0-7.5 3.358-7.5 7.5v144.291c0 4.142 3.358 7.5 7.5 7.5s7.5-3.358 7.5-7.5v-144.291c0-4.141-3.358-7.5-7.5-7.5z"/></g></g></svg>