<svg id="Capa_1" enable-background="new 0 0 506.821 506.821" height="512" viewBox="0 0 506.821 506.821" width="512" xmlns="http://www.w3.org/2000/svg"><g><g><path d="m342.564 382.984h-292.869c-3.918 0-7.523-2.14-9.4-5.579l-29.047-53.238c-3.893-7.135 1.271-15.836 9.4-15.836h465.528c8.128 0 13.293 8.701 9.4 15.836l-29.047 53.238c-1.876 3.439-5.482 5.579-9.4 5.579h-33.421" fill="#99ebfa"/><path d="m108.76 308.33h346.723v-165.473c0-11.046-8.954-20-20-20h-145.908v78.747c0 17.273-14.003 31.276-31.276 31.276-17.273 0-31.276-14.003-31.276-31.276v35.356c0 17.273-14.003 31.276-31.276 31.276-17.273 0-31.276-14.003-31.276-31.276v-114.103h-55.71" fill="#ffc144"/><g fill="#ffda8f"><path d="m195.747 268.235c17.273 0 31.276-14.003 31.276-31.276v-35.356c0 17.273 14.003 31.276 31.276 31.276 17.273 0 31.276-14.003 31.276-31.276v-78.747h-125.104v114.103c0 17.273 14.003 31.276 31.276 31.276z"/><path d="m108.76 161.397v-38.541h-38.362c-11.046 0-20 8.954-20 20v165.474h58.363v-67.473"/></g></g><g><path d="m486.176 318.33c.604.113.811.462.621 1.047l-29.046 53.238c-.124.227-.362.368-.622.368h-33.42c-12.84 0-12.859 20 0 20h33.42c7.582 0 14.547-4.135 18.178-10.79l29.046-53.237c7.405-13.572-2.79-30.626-18.178-30.626h-20.693v-155.473c0-16.542-13.458-30-30-30h-365.085c-16.542 0-30 13.458-30 30v155.473h-19.749c-15.369 0-25.595 17.032-18.178 30.625l29.047 53.238c3.631 6.655 10.596 10.79 18.178 10.79h292.87c12.84 0 12.859-20 0-20h-292.87c-.259 0-.497-.142-.621-.368l-29.047-53.239c-.19-.584.017-.933.622-1.046zm-249.153-116.726c0-12.84-20-12.859-20 0v35.355c0 27.377-42.552 27.427-42.552 0v-104.102h105.104v68.747c0 11.731-9.544 21.275-21.276 21.275s-21.276-9.544-21.276-21.275zm-118.262 96.726v-57.473c0-12.84-20-12.859-20 0v57.473h-38.364v-155.473c0-5.514 4.486-10 10-10h28.363v28.54c0 12.84 20 12.859 20 0v-28.54h35.71v104.103c0 22.76 18.516 41.276 41.276 41.276 22.758 0 41.273-18.516 41.276-41.273 27.052 16.339 62.552-3.937 62.552-35.358v-68.747h135.909c5.514 0 10 4.486 10 10v155.472z"/><path d="m391.848 380.16c-2.095-5.026-8.017-7.504-13.06-5.41-5.031 2.088-7.497 8.022-5.41 13.061 2.083 5.028 8.031 7.498 13.06 5.41 5.026-2.086 7.504-8.03 5.41-13.061z"/><path d="m117.999 197.191c-1.613-3.939-5.733-6.461-9.972-6.145-4.176.311-7.773 3.27-8.894 7.301-2.409 8.659 7.451 15.878 14.993 11.095 4.04-2.562 5.715-7.832 3.873-12.251z"/></g></g></svg>