<svg height="479pt" viewBox="0 0 479.92997 479" width="479pt" xmlns="http://www.w3.org/2000/svg"><path d="m440.683594 39.695312c-48.761719-48.753906-136.929688-39.632812-196.9375 20.375-26.035156 25.449219-43.4375 58.414063-49.769532 94.265626-9.683593 54.984374-36.417968 105.527343-76.414062 144.480468-14.304688 14.308594-30.132812 27.015625-47.199219 37.886719l-33.601562 21.382813c-17.890625 11.367187-28.730469 31.09375-28.734375 52.289062.003906 34.226562 27.75 61.972656 61.976562 61.976562 21.1875 0 40.910156-10.824218 52.285156-28.703124l21.386719-33.601563c10.867188-17.070313 23.574219-32.894531 37.886719-47.199219 38.949219-40 89.488281-66.734375 144.472656-76.417968 35.851563-6.328126 68.816406-23.734376 94.261719-49.765626 60.015625-60.042968 69.136719-148.210937 20.386719-196.96875zm0 0" fill="#95573a"/><path d="m146.667969 264.773438c-8.820313 12.074218-18.550781 23.453124-29.105469 34.042968-14.304688 14.308594-30.132812 27.015625-47.199219 37.886719l-33.601562 21.382813c-17.890625 11.367187-28.730469 31.09375-28.734375 52.289062 0 27.554688 18.191406 51.800781 44.648437 59.503906s54.820313-2.984375 69.613281-26.230468l21.386719-33.601563c10.871094-17.082031 23.578125-32.921875 37.894531-47.238281 38.949219-39.996094 89.492188-66.726563 144.472657-76.410156 35.851562-6.328126 68.816406-23.734376 94.261719-49.765626 41.464843-41.464843 58.601562-96.371093 49.160156-142.402343-67.566406 135.433593-227.695313 165.273437-322.796875 170.542969zm0 0" fill="#8f4d2e"/><path d="m336.027344 208.351562h16c8.835937 0 16 7.164063 16 16 0 8.835938-7.164063 16-16 16h-16c-8.835938 0-16-7.164062-16-16 0-8.835937 7.164062-16 16-16zm0 0" fill="#c7c7c5"/><path d="m400.027344 152.351562h16c8.835937 0 16 7.164063 16 16 0 8.835938-7.164063 16-16 16h-16c-8.835938 0-16-7.164062-16-16 0-8.835937 7.164062-16 16-16zm0 0" fill="#c7c7c5"/><path d="m110.296875 211.160156 12.539063-12.539062c4.585937-4.457032 6.414062-11.039063 4.789062-17.226563-1.628906-6.183593-6.457031-11.015625-12.644531-12.640625-6.183594-1.628906-12.769531.203125-17.226563 4.789063l-12.535156 12.535156c-6.761719 6.953125-6.683594 18.046875.175781 24.90625 6.855469 6.855469 17.949219 6.933594 24.902344.175781zm0 0" fill="#c7c7c5"/><path d="m384.027344 384.351562h16c8.835937 0 16 7.164063 16 16 0 8.835938-7.164063 16-16 16h-16c-8.835938 0-16-7.164062-16-16 0-8.835937 7.164062-16 16-16zm0 0" fill="#c7c7c5"/><g fill="#a3a3a1"><path d="m336.027344 48.351562h16c8.835937 0 16 7.164063 16 16 0 8.835938-7.164063 16-16 16h-16c-8.835938 0-16-7.164062-16-16 0-8.835937 7.164062-16 16-16zm0 0"/><path d="m344.023438 121.726562 11.316406 11.3125c6.246094 6.25 6.246094 16.378907 0 22.628907-6.25 6.246093-16.378906 6.246093-22.628906 0l-11.3125-11.316407c-6.25-6.246093-6.25-16.378906 0-22.625 6.246093-6.25 16.378906-6.25 22.625 0zm0 0"/><path d="m160.027344 40.351562h16c8.835937 0 16 7.164063 16 16 0 8.835938-7.164063 16-16 16h-16c-8.835938 0-16-7.164062-16-16 0-8.835937 7.164062-16 16-16zm0 0"/><path d="m448.027344 296.351562v16c0 8.835938-7.164063 16-16 16-8.835938 0-16-7.164062-16-16v-16c0-8.835937 7.164062-16 16-16 8.835937 0 16 7.164063 16 16zm0 0"/><path d="m320.027344 424.351562v16c0 8.835938-7.164063 16-16 16-8.835938 0-16-7.164062-16-16v-16c0-8.835937 7.164062-16 16-16 8.835937 0 16 7.164063 16 16zm0 0"/></g><path d="m424.027344 88.351562v16c0 8.835938-7.164063 16-16 16-8.835938 0-16-7.164062-16-16v-16c0-8.835937 7.164062-16 16-16 8.835937 0 16 7.164063 16 16zm0 0" fill="#d6d6d4"/><path d="m278.296875 123.160156 12.539063-12.539062c4.585937-4.457032 6.414062-11.039063 4.789062-17.226563-1.628906-6.183593-6.457031-11.015625-12.644531-12.640625-6.183594-1.628906-12.769531.203125-17.226563 4.789063l-12.535156 12.535156c-4.585938 4.460937-6.417969 11.042969-4.789062 17.226563 1.625 6.1875 6.457031 11.019531 12.640624 12.644531 6.1875 1.625 12.769532-.203125 17.226563-4.789063zm0 0" fill="#d6d6d4"/><path d="m288.027344 176.351562v16c0 8.835938-7.164063 16-16 16-8.835938 0-16-7.164062-16-16v-16c0-8.835937 7.164062-16 16-16 8.835937 0 16 7.164063 16 16zm0 0" fill="#d6d6d4"/><path d="m312.027344 325.035156 11.3125 11.316406c6.25 6.246094 6.25 16.378907 0 22.625-6.25 6.25-16.378906 6.25-22.628906 0l-11.3125-11.3125c-6.25-6.246093-6.25-16.378906 0-22.628906 6.25-6.246094 16.378906-6.246094 22.628906 0zm0 0" fill="#d6d6d4"/><path d="m64.027344 88.351562h16c8.835937 0 16 7.164063 16 16 0 8.835938-7.164063 16-16 16h-16c-8.835938 0-16-7.164062-16-16 0-8.835937 7.164062-16 16-16zm0 0" fill="#d6d6d4"/><path d="m70.003906 480.351562c23.941406.058594 46.234375-12.179687 59.039063-32.410156l21.382812-33.597656c10.558594-16.585938 22.898438-31.96875 36.800781-45.871094 37.6875-38.90625 86.734376-64.871094 140.097657-74.167968 37.496093-6.636719 71.984375-24.816407 98.644531-52 63.035156-63.027344 72.175781-156.449219 20.378906-208.25-51.800781-51.800782-145.226562-42.671876-208.257812 20.359374-27.183594 26.664063-45.363282 61.152344-52 98.648438-9.308594 53.359375-35.277344 102.402344-74.183594 140.089844-13.90625 13.898437-29.292969 26.238281-45.878906 36.796875l-33.601563 21.378906c-26.261719 16.699219-38.335937 48.734375-29.632812 78.613281 8.699219 29.878906 36.089843 50.421875 67.210937 50.410156zm-28.976562-115.511718 33.597656-21.386719c17.574219-11.179687 33.871094-24.253906 48.601562-38.980469 41.289063-40.0625 68.828126-92.171875 78.65625-148.859375 6.09375-34.179687 22.710938-65.605469 47.527344-89.886719 29.21875-30.414062 69.210938-48.144531 111.367188-49.375 27.636718-.683593 54.386718 9.757813 74.25 28.984376 45.550781 45.597656 36.414062 128.800781-20.378906 185.597656-24.277344 24.820312-55.699219 41.433594-89.878907 47.53125-56.6875 9.839844-108.804687 37.386718-148.863281 78.6875-14.726562 14.726562-27.796875 31.023437-38.984375 48.589844l-21.382813 33.601562c-11.875 18.667969-33.941406 28.203125-55.675781 24.046875-21.734375-4.152344-38.730469-21.148437-42.886719-42.882813-4.152343-21.734374 5.378907-43.800781 24.050782-55.675781zm0 0"/><path d="m336.027344 88.351562h16c13.253906 0 24-10.746093 24-24 0-13.253906-10.746094-24-24-24h-16c-13.253906 0-24 10.746094-24 24 0 13.253907 10.746094 24 24 24zm0-32h16c4.417968 0 8 3.582032 8 8 0 4.417969-3.582032 8-8 8h-16c-4.417969 0-8-3.582031-8-8 0-4.417968 3.582031-8 8-8zm0 0"/><path d="m408.027344 128.351562c13.253906 0 24-10.746093 24-24v-16c0-13.253906-10.746094-24-24-24s-24 10.746094-24 24v16c0 13.253907 10.746094 24 24 24zm-8-40c0-4.417968 3.582031-8 8-8 4.417968 0 8 3.582032 8 8v16c0 4.417969-3.582032 8-8 8-4.417969 0-8-3.582031-8-8zm0 0"/><path d="m327.058594 161.320312c6.027344 6.238282 14.949218 8.738282 23.339844 6.542969 8.390624-2.195312 14.945312-8.75 17.140624-17.140625 2.195313-8.390625-.304687-17.3125-6.542968-23.339844l-11.3125-11.320312c-9.5-9.054688-24.4375-9.054688-33.9375 0-9.375 9.375-9.375 24.570312 0 33.945312zm0-33.945312c3.125-3.121094 8.1875-3.121094 11.3125 0l11.3125 11.320312c3.03125 3.140626 2.988281 8.128907-.097656 11.214844-3.085938 3.085938-8.078126 3.128906-11.214844.097656l-11.3125-11.3125c-1.503906-1.5-2.347656-3.535156-2.347656-5.660156s.84375-4.160156 2.347656-5.660156zm0 0"/><path d="m265.761719 136.351562c6.824219.019532 13.375-2.695312 18.183593-7.535156l12.546876-12.539062c10.046874-10.046875 10.046874-26.339844 0-36.390625-10.195313-9.691407-26.195313-9.691407-36.386719 0l-12.542969 12.535156c-7.355469 7.363281-9.554688 18.429687-5.570312 28.042969 3.980468 9.617187 13.363281 15.882812 23.769531 15.886718zm-6.886719-32.617187 12.542969-12.535156c3.828125-3.632813 9.855469-3.550781 13.585937.183593 3.730469 3.730469 3.808594 9.757813.175782 13.585938l-12.546876 12.535156c-3.847656 3.679688-9.910156 3.679688-13.757812 0-3.796875-3.800781-3.796875-9.960937 0-13.761718zm0 0"/><path d="m352.027344 200.351562h-16c-13.253906 0-24 10.746094-24 24 0 13.253907 10.746094 24 24 24h16c13.253906 0 24-10.746093 24-24 0-13.253906-10.746094-24-24-24zm0 32h-16c-4.417969 0-8-3.582031-8-8 0-4.417968 3.582031-8 8-8h16c4.417968 0 8 3.582032 8 8 0 4.417969-3.582032 8-8 8zm0 0"/><path d="m272.027344 152.351562c-13.253906 0-24 10.746094-24 24v16c0 13.253907 10.746094 24 24 24s24-10.746093 24-24v-16c0-13.253906-10.746094-24-24-24zm8 40c0 4.417969-3.582032 8-8 8-4.417969 0-8-3.582031-8-8v-16c0-4.417968 3.582031-8 8-8 4.417968 0 8 3.582032 8 8zm0 0"/><path d="m400.027344 192.351562h16c13.253906 0 24-10.746093 24-24 0-13.253906-10.746094-24-24-24h-16c-13.253906 0-24 10.746094-24 24 0 13.253907 10.746094 24 24 24zm0-32h16c4.417968 0 8 3.582032 8 8 0 4.417969-3.582032 8-8 8h-16c-4.417969 0-8-3.582031-8-8 0-4.417968 3.582031-8 8-8zm0 0"/><path d="m160.027344 32.351562c-13.253906 0-24 10.746094-24 24 0 13.253907 10.746094 24 24 24h16c13.253906 0 24-10.746093 24-24 0-13.253906-10.746094-24-24-24zm24 24c0 4.417969-3.582032 8-8 8h-16c-4.417969 0-8-3.582031-8-8 0-4.417968 3.582031-8 8-8h16c4.417968 0 8 3.582032 8 8zm0 0"/><path d="m456.027344 312.351562v-16c0-13.253906-10.746094-24-24-24s-24 10.746094-24 24v16c0 13.253907 10.746094 24 24 24s24-10.746093 24-24zm-32 0v-16c0-4.417968 3.582031-8 8-8 4.417968 0 8 3.582032 8 8v16c0 4.417969-3.582032 8-8 8-4.417969 0-8-3.582031-8-8zm0 0"/><path d="m328.996094 330.695312-11.3125-11.3125c-9.5-9.058593-24.4375-9.058593-33.9375 0-9.375 9.375-9.375 24.570313 0 33.945313l11.3125 11.320313c6.046875 6.144531 14.925781 8.574218 23.257812 6.363281 8.332032-2.210938 14.839844-8.71875 17.046875-17.050781 2.207031-8.335938-.222656-17.210938-6.367187-23.257813zm-11.3125 22.625c-3.125 3.121094-8.1875 3.121094-11.3125 0l-11.3125-11.3125c-1.503906-1.5-2.347656-3.539062-2.347656-5.660156 0-2.125.84375-4.160156 2.347656-5.660156 3.164062-3.015625 8.140625-3.015625 11.304687 0l11.3125 11.3125c1.5 1.5 2.347657 3.535156 2.347657 5.65625.003906 2.125-.839844 4.160156-2.339844 5.664062zm0 0"/><path d="m92.105469 167.886719-12.542969 12.535156c-10.050781 10.046875-10.050781 26.339844-.003906 36.390625 10.046875 10.046875 26.339844 10.050781 36.386718.003906l12.546876-12.539062c10.046874-10.046875 10.046874-26.339844 0-36.390625-10.195313-9.691407-26.195313-9.691407-36.386719 0zm27.921875 18.191406c.007812 2.585937-1.015625 5.066406-2.847656 6.890625l-12.546876 12.535156c-3.847656 3.679688-9.910156 3.679688-13.757812 0-3.796875-3.800781-3.796875-9.960937 0-13.761718l12.542969-12.535157c2.785156-2.773437 6.964843-3.601562 10.597656-2.097656s6.003906 5.046875 6.011719 8.976563zm0 0"/><path d="m384.027344 376.351562c-13.253906 0-24 10.746094-24 24 0 13.253907 10.746094 24 24 24h16c13.253906 0 24-10.746093 24-24 0-13.253906-10.746094-24-24-24zm24 24c0 4.417969-3.582032 8-8 8h-16c-4.417969 0-8-3.582031-8-8 0-4.417968 3.582031-8 8-8h16c4.417968 0 8 3.582032 8 8zm0 0"/><path d="m280.027344 424.351562v16c0 13.253907 10.746094 24 24 24s24-10.746093 24-24v-16c0-13.253906-10.746094-24-24-24s-24 10.746094-24 24zm32 0v16c0 4.417969-3.582032 8-8 8-4.417969 0-8-3.582031-8-8v-16c0-4.417968 3.582031-8 8-8 4.417968 0 8 3.582032 8 8zm0 0"/><path d="m64.027344 128.351562h16c13.253906 0 24-10.746093 24-24 0-13.253906-10.746094-24-24-24h-16c-13.253906 0-24 10.746094-24 24 0 13.253907 10.746094 24 24 24zm0-32h16c4.417968 0 8 3.582032 8 8 0 4.417969-3.582032 8-8 8h-16c-4.417969 0-8-3.582031-8-8 0-4.417968 3.582031-8 8-8zm0 0"/></svg>