<svg id="Filled" height="512" viewBox="0 0 512 512" width="512" xmlns="http://www.w3.org/2000/svg"><path d="m400 144a72 72 0 1 0 72 72 72 72 0 0 0 -72-72zm0 112a40 40 0 1 1 40-40 40 40 0 0 1 -40 40z" fill="#e1e3e6"/><rect fill="#ad6643" height="48" rx="16" width="112" x="280" y="24"/><path d="m376 221.983v-149.983h-80v149.983a136.02 136.02 0 0 0 -48 233.7v16.317a16 16 0 0 0 16 16h144a16 16 0 0 0 16-16v-16.317a136.02 136.02 0 0 0 -48-233.7z" fill="#e9eef2"/><path d="m423.651 296h-175.3a103.511 103.511 0 0 0 -16.351 55.816v.1s0 .055 0 .083a103.817 103.817 0 0 0 40 81.978v6.023a16 16 0 0 0 16 16h96a16 16 0 0 0 16-16v-6.022a104.034 104.034 0 0 0 23.651-137.978z" fill="#dadcde"/><path d="m211.365 291.243a120 120 0 0 1 -181.225 157.267c-1.11-1.223-2.192-2.475-3.26-3.754-.24-.283-.48-.58-.707-.877l-.014-.014c-9.913-18.611 15.09-65.874 59.022-109.807 44.06-44.06 91.479-69.091 109.97-58.93 1.5 1.23 2.977 2.5 4.426 3.818a120.109 120.109 0 0 1 11.788 12.297z" fill="#ad6643"/><path d="m198.318 277.49a13.7 13.7 0 0 1 1.259 1.456c12.869 17.112-12.332 66.185-57.827 111.681-45.432 45.431-94.427 70.625-111.61 57.883a13.626 13.626 0 0 1 -1.527-1.315 13.879 13.879 0 0 1 -2.44-3.316l-.014-.014c-9.913-18.611 15.09-65.874 59.022-109.807 44.06-44.06 91.479-69.091 109.97-58.93a13.73 13.73 0 0 1 3.167 2.362z" fill="#e1e3e6"/><circle cx="112" cy="456" r="8"/><circle cx="128" cy="440" r="8"/><circle cx="144" cy="456" r="8"/><path d="m211.573 279.469c-1.981-2.072-4.034-4.071-6.138-6a21.57 21.57 0 0 0 -1.457-1.637 21.748 21.748 0 0 0 -4.978-3.715c-14.65-8.055-36.916.5-53.014 9.084-21.1 11.257-44.7 29.44-66.465 51.2-21.691 21.692-39.838 45.231-51.1 66.284-8.578 16.035-17.159 38.236-9.325 52.941.055.105.113.208.173.311a20.895 20.895 0 0 0 5.382 6.424 127.334 127.334 0 0 0 85.254 41.305q4.7.34 9.363.339a128.058 128.058 0 0 0 104.32-54.032 144.919 144.919 0 0 0 16.412 17.348v12.679a24.027 24.027 0 0 0 24 24h144a24.028 24.028 0 0 0 24-24v-12.679a144.031 144.031 0 0 0 24.3-186.493 80 80 0 0 0 -72.3-135.213v-58.991a24.039 24.039 0 0 0 16-22.624v-16a24.028 24.028 0 0 0 -24-24h-80a24.028 24.028 0 0 0 -24 24v16a24.039 24.039 0 0 0 16 22.624v137.576a144.138 144.138 0 0 0 -76.427 63.269zm-120.735 60.246c47.491-47.491 88.855-63.953 100.485-57.562a5.766 5.766 0 0 1 1.337.992 5.7 5.7 0 0 1 .524.61c4.91 6.53-1.1 23.86-7.742 36.717-10.435 20.205-27.961 43.11-49.349 64.5-47.012 47.01-90.621 64.951-101.193 57.11a5.541 5.541 0 0 1 -.632-.544 5.826 5.826 0 0 1 -1.033-1.414c-.035-.067-.072-.134-.109-.2-5.972-11.935 10.655-53.152 57.712-100.209zm99.924 114.377a112.075 112.075 0 0 1 -137.786 4.318c27.353-6.049 64.182-31.877 94.431-62.126s56.061-67.051 62.119-94.39a112.14 112.14 0 0 1 -18.764 152.198zm86.166-26.417a95.94 95.94 0 0 1 -31.027-42.5 128.573 128.573 0 0 0 -4.039-53.457 7.983 7.983 0 0 0 .709-1.874 95.094 95.094 0 0 1 10.27-25.844h166.316a96.045 96.045 0 0 1 -24.084 123.675 8 8 0 0 0 -3.073 6.3v6.025a8.009 8.009 0 0 1 -8 8h-96a8.009 8.009 0 0 1 -8-8v-6.022a8 8 0 0 0 -3.072-6.303zm141.892 21.912a8 8 0 0 0 -2.82 6.1v16.313a8.009 8.009 0 0 1 -8 8h-144a8.009 8.009 0 0 1 -8-8v-16.316a8 8 0 0 0 -2.82-6.1 128.889 128.889 0 0 1 -20.648-22.247 127.792 127.792 0 0 0 7.533-17.515 112.105 112.105 0 0 0 23.935 27.969v2.209a24.028 24.028 0 0 0 24 24h96a24.028 24.028 0 0 0 24-24v-2.208a112.032 112.032 0 0 0 22.388-146.1 8 8 0 0 0 -6.738-3.692h-175.3a8 8 0 0 0 -6.737 3.687 111.436 111.436 0 0 0 -8.979 17.145 127.579 127.579 0 0 0 -10.059-16.2 128.1 128.1 0 0 1 75.776-63 8 8 0 0 0 5.65-7.648v-141.984h64v141.982a8 8 0 0 0 5.65 7.648 129.072 129.072 0 0 1 64.8 45.623 128 128 0 0 1 -19.631 174.334zm4.686-211.864a144.7 144.7 0 0 0 -39.506-21.523v-27.9a31.7 31.7 0 0 1 16-4.3 32.036 32.036 0 0 1 32 32 31.7 31.7 0 0 1 -8.494 21.723zm-23.506-85.723a63.981 63.981 0 0 1 46.607 107.835 144 144 0 0 0 -10.947-11.7 47.545 47.545 0 0 0 12.34-32.135 48.037 48.037 0 0 0 -64-45.27v-16.713a64.089 64.089 0 0 1 16-2.017zm-112-112a8.009 8.009 0 0 1 8-8h80a8.009 8.009 0 0 1 8 8v16a8.009 8.009 0 0 1 -8 8h-80a8.009 8.009 0 0 1 -8-8z"/></svg>