<svg height="512pt" viewBox="0 -23 512.00043 512" width="512pt" xmlns="http://www.w3.org/2000/svg"><path d="m431.1875 20.402344c42.578125 36.085937 13.882812 135.496094-61.617188 223.269531-30.605468 35.585937-64.539062 63.628906-96.902343 81.992187 9.300781 22.855469 15.417969 45.164063 13.707031 62.5 62.132812 2.335938 124.703125-22.542968 168.210938-73.125 75.503906-87.777343 65.027343-219.691406-23.398438-294.636718zm0 0" fill="#9e6b57"/><path d="m312.960938 341.554688c-2.9375-11.128907-7.027344-22.554688-12.140626-34.078126-9.4375 6.816407-18.859374 12.914063-28.15625 18.1875 9.304688 22.855469 15.421876 45.164063 13.707032 62.5 10.632812.402344 21.277344-.015624 31.835937-1.203124.792969-13.800782-.929687-29.042969-5.246093-45.40625zm0 0" fill="#875848"/><path d="m431.1875 20.402344c-42.574219-36.085938-138.296875 7.816406-213.796875 95.589844-22.28125 25.902343-35.621094 56.046874-48.875 82.167968 20.828125 13.769532 37.347656 27.277344 56.804687 49.898438 22.265626 25.886718 39.007813 53.199218 49.347657 78.609375 32.363281-18.367188 66.296875-46.410157 96.902343-81.992188 75.503907-87.777343 102.195313-188.1875 59.617188-224.273437zm0 0" fill="#875848"/><path d="m301.636719 309.328125c-11.835938-27.226563-29.476563-55.042969-51.4375-80.761719-20.5-24.007812-43.394531-44.582031-66.714844-60.191406-5.285156 10.195312-10.136719 20.257812-14.96875 29.785156 20.828125 13.769532 37.347656 27.277344 56.804687 49.898438 22.265626 25.886718 39.007813 53.199218 49.347657 78.605468 8.902343-5.050781 17.929687-10.863281 26.96875-17.335937zm0 0" fill="#7a4c40"/><path d="m409.070312 30.082031c-38.171874-32.355469-123.988281 5.214844-191.679687 83.910157-22.535156 26.195312-40.210937 53.644531-52.371094 79.808593 20.445313 13.6875 41.214844 32.066407 60.300781 54.257813 16.488282 19.167968 29.945313 39.121094 40.023438 58.5 30.03125-16.402344 61.761719-42.25 90.277344-75.402344 67.691406-78.695312 91.625-168.71875 53.449218-201.074219zm0 0" fill="#e4eaf8"/><path d="m292.140625 289.683594c-11.050781-20.796875-25.246094-41.566406-41.941406-61.117188-21.574219-25.269531-45.808594-46.734375-70.394531-62.609375-5.582032 9.367188-10.527344 18.683594-14.785157 27.84375 20.445313 13.6875 41.210938 32.066407 60.300781 54.257813 16.488282 19.167968 29.945313 39.121094 40.019532 58.503906 8.828125-4.824219 17.804687-10.480469 26.800781-16.878906zm0 0" fill="#d8dce5"/><path d="m373.421875 56.203125c-24.40625-20.6875-86.519531 11.75-138.734375 72.449219-23.128906 26.890625-40.429688 54.8125-50.410156 79.378906 14.039062 11.359375 27.9375 24.789062 41.042968 40.027344 6.347657 7.375 12.246094 14.871094 17.675782 22.40625 25.175781-13.085938 53.875-36.429688 80.082031-66.894532 52.210937-60.699218 74.753906-126.679687 50.34375-147.367187zm0 0" fill="#d8dce5"/><path d="m269.757812 253.609375c-6.054687-8.5-12.585937-16.878906-19.558593-25.042969-16.066407-18.816406-33.605469-35.523437-51.667969-49.386718-5.730469 9.9375-10.507812 19.628906-14.257812 28.851562 14.042968 11.359375 27.941406 24.789062 41.046874 40.027344 6.347657 7.375 12.246094 14.871094 17.675782 22.40625 8.589844-4.464844 17.589844-10.125 26.761718-16.855469zm0 0" fill="#c3c8d1"/><path d="m64.140625 176.074219c-32.503906 27.757812-9.125 101.984375 48.519531 169.492187 57.644532 67.511719 127.722656 102.742188 160.230469 74.988282-67.511719 57.640624-168.96875 49.644531-226.613281-17.867188-57.644532-67.511719-49.644532-168.96875 17.863281-226.613281zm0 0" fill="#9e6b57"/><path d="m75.460938 402.6875c-41.769532-48.917969-49.0625-115.652344-24.238282-170.632812-4.5625-24.269532-.800781-44.265626 12.917969-55.980469-67.507813 57.644531-75.507813 159.101562-17.863281 226.613281 35.207031 41.234375 86.761718 60.261719 136.945312 55.695312-40.355468-3.644531-79.375-22.445312-107.761718-55.695312zm0 0" fill="#875848"/><path d="m227.359375 248.074219c-57.640625-67.511719-130.71875-99.742188-163.222656-71.988281-32.507813 27.753906-12.132813 104.980468 45.507812 172.492187 57.636719 67.511719 130.714844 99.738281 163.222657 71.988281 32.507812-27.753906 12.132812-104.980468-45.507813-172.492187zm0 0" fill="#e4eaf8"/><path d="m139.671875 348.570312c-57.640625-67.511718-78.019531-144.738281-45.515625-172.496093 4.609375-3.933594 10.039062-6.660157 16.121094-8.253907-18.703125-3.777343-34.863282-1.371093-46.136719 8.253907-32.507813 27.757812-12.128906 104.984375 45.515625 172.496093 49.472656 57.9375 110.308594 89.886719 147.113281 80.238282-35.210937-7.109375-79.445312-36.144532-117.097656-80.238282zm0 0" fill="#d8dce5"/><path d="m214.152344 259.347656c-42.207032-49.433594-92.417969-75.855468-112.152344-59.007812-19.730469 16.847656-1.511719 70.582031 40.695312 120.015625 42.207032 49.4375 92.417969 75.855469 112.152344 59.007812 19.730469-16.847656 1.511719-70.578125-40.695312-120.015625zm0 0" fill="#d8dce5"/><path d="m172.726562 320.347656c-42.210937-49.4375-60.433593-103.167968-40.703124-120.015625.832031-.710937 1.71875-1.335937 2.652343-1.890625-13.785156-4.652344-25.332031-4.375-32.667969 1.890625-19.730468 16.847657-1.507812 70.578125 40.703126 120.015625 40.433593 47.359375 88.214843 73.585938 109.507812 60.894532-23.296875-7.867188-52.972656-29.835938-79.492188-60.894532zm0 0" fill="#c3c8d1"/><path d="m458.425781 60.355469c23.242188 31.566406 36.671875 69.265625 38.574219 109.617187.195312 4.140625 3.714844 7.34375 7.851562 7.140625 4.140626-.191406 7.335938-3.707031 7.140626-7.847656-1.378907-29.25-8.476563-57.40625-21.097657-83.691406-13.066406-27.214844-31.425781-51.03125-54.5625-70.789063-22.753906-19.429687-58.894531-19.71875-101.761719-.8125-69.191406 30.511719-135.527343 101.167969-171.363281 168.363282-31.398437-19.339844-76.324219-35.6875-104.210937-11.878907-.019532.019531-.039063.035157-.058594.050781-103.070312 88.085938-64.335938 254.832032 64.773438 290.148438 3.992187 1.085938 8.125-1.261719 9.21875-5.261719 1.09375-3.996093-1.261719-8.125-5.257813-9.21875-100.53125-27.496093-144.960937-146.132812-86.738281-233.082031-2.984375 85.546875 106.476562 214.019531 191.648437 224.417969-22.15625 10.265625-46.597656 15.128906-71.519531 13.945312-4.167969-.183593-7.652344 3.003907-7.847656 7.144531-.195313 4.140626 3.003906 7.652344 7.140625 7.847657 41.691406 1.976562 83.609375-11.476563 117.136719-40.097657 8.679687-7.414062 14.273437-17.761718 16.710937-30.453124 112.175781.816406 203.539063-83.148438 216.46875-190.363282.496094-4.113281-2.4375-7.851562-6.550781-8.347656-4.109375-.476562-7.855469 2.4375-8.351563 6.550781-11.851562 98.300781-95.234375 177.167969-200.164062 177.167969.097656-17.015625-4.296875-34.875-10.214844-50.910156 96.042969-57.832032 182.4375-185.878906 173.035156-269.640625zm-211.613281 200.449219c-14.730469-19.734376-32.351562-38.789063-51.378906-54.917969 39.179687-89.660157 144.433594-168.96875 173.808594-143.886719 30.253906 25.832031-37.085938 149.820312-122.429688 198.804688zm8.738281 12.277343c24.773438-14.480469 50.875-37.121093 74.296875-64.550781 96.191406-112.652344 70.816406-199.757812-17.734375-153.175781-50.269531 26.445312-103.777343 86.425781-128.765625 140.828125-2.1875-1.660156-4.386718-3.273438-6.585937-4.839844 30.003906-61.335938 90.050781-126.84375 151.621093-153.996094 115.164063-50.785156 120.675782 73.882813 22.355469 189.023438-24.957031 29.230468-52.800781 53.273437-80.917969 69.925781-4.328124-7.832031-9.097656-15.582031-14.269531-23.214844zm-186.824219-91.199219c.007813-.003906.011719-.007812.015626-.011718.003906 0 .003906-.003906.007812-.007813 49.46875-42.214843 192.292969 79.832031 210.144531 180.605469 9.824219 55.773438-23.621093 73.886719-75.4375 51.039062-101.050781-44.558593-179.90625-193.007812-134.730469-231.625zm210.914063 134.03125c-.933594-2.085937-1.90625-4.175781-2.914063-6.269531 127.222657-74.804687 209.71875-260.671875 122.105469-294.378906 100.246094 9.289063 22.84375 213.574219-119.191406 300.648437zm0 0"/><path d="m259.46875 385.148438c12.035156-10.277344 13.851562-30.132813 5.109375-55.90625-26.058594-76.839844-128.972656-167.609376-167.714844-134.527344-12.035156 10.277344-13.851562 30.128906-5.113281 55.902344 26.132812 77.054687 129.066406 167.527343 167.71875 134.53125zm-152.859375-179.019532c13.9375-11.902344 59.289063 8.640625 101.578125 58.167969 42.167969 49.386719 55.734375 97.3125 41.535156 109.4375-13.871094 11.84375-59.140625-8.464844-101.578125-58.167969-42.445312-49.710937-55.402343-97.601562-41.535156-109.4375zm0 0"/></svg>