<svg id="Capa_1" enable-background="new 0 0 512.094 512.094" height="512" viewBox="0 0 512.094 512.094" width="512" xmlns="http://www.w3.org/2000/svg"><g><g><path d="m313.529 127.481 30.281-82.874 70.289 28.835c3.848 1.578 8.246-.261 9.825-4.109l6.429-15.672c1.579-3.848-.261-8.247-4.109-9.825l-85.681-35.15c-4.024-1.651-8.549-1.593-12.532.165-3.98 1.757-7.075 5.06-8.568 9.146l-40.004 109.482-49.702 115.532h47.048z" fill="#f9f3f1"/><g><g id="XMLID_381_"><g><path d="m359.137 131.063c-2.53-2.3-5.83-3.58-9.26-3.58h-187.66c-3.43 0-6.73 1.28-9.26 3.58l-31.27 28.5 16.93 35.087h215.085l36.705-35.087z" fill="#fef1da"/><path d="m163.794 194.65 55.49-37.318 31.27-28.5c.552-.502 1.147-.946 1.767-1.349h-90.104c-3.43 0-6.73 1.28-9.26 3.58l-31.27 28.5 16.93 35.087z" fill="#fae2c0"/><path d="m390.407 159.563h-238.791l-66.879 103.977 10.57 32.472 328.027 4.739 25.153-102.128z" fill="#faf7f7"/><path d="m132.063 257.667c-1.35-24.38 10.24-47.67 30.51-61.29l54.762-36.829-95.648.015-58.09 39.067 33.079 97.367 37.528.542z" fill="#f9f3f1"/><path d="m448.487 198.623c20.27 13.62 31.86 36.91 30.51 61.29l-6.69 121.45c-3.81 69.13-60.97 123.23-130.2 123.23h-172.12c-69.23 0-126.39-54.1-130.2-123.23l-6.69-121.45c-1.35-24.38 10.24-47.67 30.51-61.29l19.67 13.75c11.34 7.93 24.72 12.04 38.25 12.04 6.38 0 12.8-.91 19.06-2.78 14.96-4.46 31.01-3.54 45.36 2.61l43.81 18.77c16.79 7.19 35.79 7.19 52.58 0l43.81-18.77c8.37-3.59 17.31-5.39 26.28-5.39 6.42 0 12.84.92 19.08 2.78 19.51 5.82 40.62 2.41 57.31-9.26z" fill="#bbec6c"/></g></g></g><path d="m137.384 385.817-6.69-124.648c-.753-13.964 2.52-27.564 9.086-39.301-6.007 1.712-12.144 2.545-18.253 2.545-13.53 0-26.91-4.11-38.25-12.04l-19.67-13.75c-20.27 13.62-31.86 36.91-30.51 61.29l6.69 121.45c3.81 69.13 60.97 123.23 130.2 123.23h53.932c-48.213-17.587-83.567-63.497-86.535-118.776z" fill="#a2e62e"/></g><path d="m452.676 192.395-57.623-38.752-30.861-28.117c-3.922-3.576-9.005-5.545-14.313-5.545h-25.623l23.923-65.476 63.075 25.877c7.664 3.142 16.463-.534 19.609-8.202l6.429-15.671c1.524-3.715 1.511-7.801-.038-11.505-1.55-3.703-4.448-6.582-8.162-8.105l-85.682-35.15c-5.879-2.414-12.589-2.325-18.407.242-5.816 2.567-10.403 7.464-12.585 13.434l-38.204 104.557h-49.446c-4.143 0-7.5 3.357-7.5 7.5s3.357 7.5 7.5 7.5h125.11c1.561 0 3.056.579 4.21 1.631l16.955 15.447h-229.992l16.957-15.449c1.152-1.05 2.646-1.629 4.208-1.629h30.589c4.143 0 7.5-3.357 7.5-7.5s-3.357-7.5-7.5-7.5h-30.589c-5.309 0-10.392 1.969-14.312 5.543l-30.864 28.119-57.622 38.752c-22.338 15.022-35.294 41.052-33.813 67.93l6.691 121.452c4.026 73.074 64.51 130.316 137.694 130.316h172.113c73.185 0 133.668-57.242 137.694-130.317l4.196-76.175c.229-4.136-2.939-7.673-7.076-7.9-4.13-.222-7.673 2.939-7.9 7.076l-4.196 76.174c-3.59 65.127-57.493 116.143-122.718 116.143h-172.113c-65.225 0-119.128-51.016-122.718-116.143l-6.691-121.45c-1.097-19.935 7.679-39.281 23.133-51.654l15.263 10.668c12.664 8.854 27.425 13.431 42.425 13.431 7.122 0 14.299-1.031 21.33-3.128 1.713-.51 3.526-.957 5.391-1.328 4.063-.808 6.7-4.757 5.892-8.819s-4.756-6.706-8.819-5.892c-2.318.461-4.588 1.021-6.747 1.664-17.427 5.194-35.971 2.2-50.877-8.222l-10.705-7.483 47.106-31.679h264.151l47.106 31.679-10.705 7.484c-14.904 10.419-33.447 13.417-50.877 8.221-16.61-4.949-34.527-3.917-50.456 2.907l-43.808 18.77c-14.831 6.353-31.842 6.353-46.671 0l-43.81-18.771c-2.582-1.105-5.324-2.091-8.152-2.928-3.968-1.175-8.145 1.09-9.32 5.063-1.176 3.972 1.091 8.145 5.063 9.32 2.27.672 4.458 1.457 6.503 2.333l43.81 18.77c9.292 3.981 19.267 5.972 29.242 5.972s19.95-1.99 29.243-5.972l43.809-18.77c12.71-5.445 27.009-6.271 40.263-2.319 21.84 6.51 45.077 2.756 63.756-10.302l15.263-10.669c15.454 12.373 24.229 31.719 23.132 51.654l-.733 13.313c-.229 4.136 2.939 7.673 7.076 7.9.141.008.279.012.419.012 3.953 0 7.262-3.092 7.481-7.088l.733-13.313c1.479-26.879-11.478-52.908-33.815-67.931zm-126.168-171.822c.788-2.159 2.447-3.931 4.552-4.859 2.104-.927 4.529-.96 6.657-.088l85.697 35.189-6.469 15.689-70.289-28.836c-1.889-.775-4.008-.747-5.875.077-1.866.823-3.316 2.371-4.017 4.287l-28.48 77.948h-18.099z"/></g></svg>