<svg height="511pt" viewBox="0 -7 511.04917 511" width="511pt" xmlns="http://www.w3.org/2000/svg"><path d="m257.84375 196.355469c-8.277344 8.191406-16.214844 16.382812-23.976562 24.488281-.085938-.085938-.171876-.167969-.257813-.167969-17.664063-15.019531-33.109375-24.832031-41.898437-26.285156 1.792968-3.070313 3.414062-6.226563 5.121093-9.472656l.082031-.082031c4.4375-4.695313 8.960938-9.386719 13.65625-13.996094l.253907-.257813c.125-.210937.300781-.386719.511719-.511719l.171874.171876c6.828126-2.558594 24.917969 8.019531 46.335938 26.113281zm0 0" fill="#fdd834"/><path d="m398.816406 205.910156c-2.730468 3.328125-5.546875 6.65625-8.363281 10.070313-.046875.050781-.105469.078125-.171875.085937-4.863281 5.886719-9.898438 11.777344-15.1875 17.664063-.34375-8.191407-10.496094-24.917969-26.796875-44.03125 8.105469-8.449219 15.957031-16.898438 23.46875-25.089844 11.457031 11.953125 20.597656 25.929687 26.964844 41.21875zm0 0" fill="#ffb301"/><path d="m331.914062 124.675781c-8.191406 7.59375-16.640624 15.445313-25.089843 23.550781-19.113281-16.300781-35.925781-26.539062-44.03125-26.878906 9.386719-8.277344 18.6875-16.214844 27.820312-23.640625 15.292969 6.402344 29.289063 15.539063 41.300781 26.96875zm0 0" fill="#ffb301"/><path d="m357.429688 101.464844c-8.277344 7.421875-16.8125 15.101562-25.515626 23.210937-12.011718-11.429687-26.007812-20.566406-41.300781-26.96875 9.8125-8.019531 19.371094-15.445312 28.839844-22.527343h.085937c13.765626 7.003906 26.511719 15.84375 37.890626 26.285156zm0 0" fill="#fdd834"/><path d="m421.429688 176.898438c-7.085938 9.472656-14.59375 19.199218-22.613282 29.011718l-.085937-.082031c-6.367188-15.289063-15.507813-29.265625-26.964844-41.21875 8.191406-8.703125 15.871094-17.238281 23.292969-25.515625 10.40625 11.375 19.246094 24.089844 26.285156 37.804688zm0 0" fill="#fdd834"/><path d="m442.503906 146.691406c-6.398437 9.8125-13.480468 19.882813-21.074218 30.207032h-.085938c-7.039062-13.714844-15.878906-26.429688-26.285156-37.804688 8.023437-9.042969 15.53125-17.746094 22.699218-26.109375 9.382813 10.359375 17.671876 21.652344 24.746094 33.707031zm0 0" fill="#ffb301"/><path d="m410.164062 56.75c-8.363281 6.65625-17.324218 14.078125-26.625 22.015625-10.367187-9.371094-21.660156-17.660156-33.707031-24.746094 11.09375-7.425781 21.847657-13.910156 32-19.542969 10.035157 6.640626 19.511719 14.089844 28.332031 22.273438zm0 0" fill="#fdd834"/><path d="m462.046875 114.605469c-5.632813 10.238281-12.203125 20.992187-19.542969 32.085937-7.074218-12.054687-15.363281-23.347656-24.746094-33.707031 7.9375-9.300781 15.359376-18.261719 22.015626-26.625 8.160156 8.8125 15.609374 18.257813 22.273437 28.246094zm0 0" fill="#fdd834"/><path d="m478.6875 79.617188v.085937c-4.792969 11.980469-10.351562 23.636719-16.640625 34.902344-6.664063-9.988281-14.113281-19.433594-22.273437-28.246094 8.109374-10.15625 15.191406-19.542969 21.164062-27.820313 6.742188 7.425782 12.714844 14.421876 17.75 21.078126zm0 0" fill="#ffb301"/><path d="m460.9375 58.539062c-5.972656 8.277344-13.054688 17.664063-21.164062 27.820313-4.4375-5.035156-9.300782-10.15625-14.335938-15.273437-5.035156-5.121094-10.238281-9.898438-15.273438-14.335938 10.238282-8.109375 19.542969-15.191406 27.902344-21.078125 3.839844 3.5 7.765625 7.253906 11.605469 11.179687 3.839844 3.925782 7.679687 7.765626 11.179687 11.605469zm0 0" fill="#fdd834"/><path d="m438.066406 35.671875c-8.359375 5.886719-17.664062 12.96875-27.902344 21.078125-8.820312-8.183594-18.296874-15.632812-28.332031-22.273438 11.304688-6.351562 23.023438-11.9375 35.074219-16.726562 6.65625 5.121094 13.738281 11.09375 21.160156 17.921875zm0 0" fill="#ffb301"/><path d="m479.964844 16.472656c-4.09375-4.097656-19.285156 3.15625-41.898438 19.199219-7.421875-6.828125-14.503906-12.800781-21.160156-17.921875 29.269531-11.433594 51.710938-12.628906 63.058594-1.277344zm0 0" fill="#fdd834"/><path d="m478.6875 79.617188c-5.035156-6.65625-11.007812-13.652344-17.75-21.078126 15.273438-21.671874 22.613281-36.519531 19.542969-41.386718-.113281-.261719-.289063-.496094-.515625-.679688 11.4375 11.433594 10.242187 33.789063-1.277344 63.144532zm0 0" fill="#fdd834"/><path d="m95.429688 467.800781-12.671876 12.671875c-4.824218 4.832032-11.371093 7.550782-18.199218 7.550782s-13.375-2.71875-18.195313-7.550782l-30.320312-30.320312c-4.832031-4.820313-7.550781-11.367188-7.550781-18.195313s2.71875-13.378906 7.550781-18.199219l7.945312-7.945312zm0 0" fill="#2e7d32"/><path d="m233.867188 220.84375c-8.195313 8.363281-16.042969 16.640625-23.640626 24.832031-.261718-.277343-.546874-.535156-.851562-.765625-10.300781-9.167968-21.675781-17.046875-33.878906-23.46875 5.121094-7.933594 10.753906-17.066406 16.214844-27.050781 8.789062 1.453125 24.234374 11.265625 41.898437 26.285156.085937 0 .171875.082031.257813.167969zm0 0" fill="#ffb301"/><path d="m196.914062 184.835938-.082031.082031c-1.707031 3.246093-3.328125 6.402343-5.121093 9.472656-5.460938 9.984375-11.09375 19.117187-16.214844 27.050781-8.019532 12.375-14.847656 21.675782-18.003906 25.855469-1.515626-18.171875-5.390626-36.070313-11.519532-53.246094 44.203125-62.039062 49.238282-102.230469 46.421875-124.074219-.464843-3.644531 1.417969-7.179687 4.699219-8.832031 3.28125-1.648437 7.242188-1.050781 9.890625 1.492188 29.015625 27.988281 11.949219 80.042969-10.070313 122.199219zm0 0" fill="#2e7d32"/><path d="m498.824219 215.554688c-10.515625 6.96875-21.945313 12.453124-33.960938 16.296874-53.417969 17.835938-48.726562.769532-173.3125 90.796876-.945312-.652344-1.945312-1.222657-2.988281-1.707032 4.523438-4.097656 9.046875-8.277344 13.65625-12.460937v-.082031c8.105469-7.511719 16.210938-15.191407 24.320312-23.296876 1.621094-1.535156 3.242188-3.15625 4.863282-4.78125 6.570312-6.484374 12.96875-13.054687 19.027344-19.625l.085937-.085937c8.617187-8.960937 16.8125-17.917969 24.578125-26.878906 5.289062-5.886719 10.324219-11.777344 15.1875-17.664063.066406-.007812.125-.035156.171875-.085937 20.832031-11.527344 44.632813-16.578125 68.351563-14.507813 11.015624 1.640625 22.238281 1.234375 33.109374-1.191406 3.984376-.964844 8.085938 1.042969 9.777344 4.773438 1.6875 3.734374.484375 8.140624-2.867187 10.5zm0 0" fill="#2e7d32"/><path d="m187.015625 270.851562c-11.605469 12.796876-22.328125 24.972657-32.167969 36.519532h-.085937c3.390625-19.257813 4.335937-38.871094 2.816406-58.367188 9.714844 5.957032 18.933594 12.691406 27.5625 20.140625.667969.519531 1.292969 1.089844 1.875 1.707031zm0 0" fill="#ffb301"/><path d="m210.226562 245.675781c-8.019531 8.535157-15.871093 16.980469-23.210937 25.175781-.582031-.617187-1.207031-1.1875-1.875-1.707031-8.628906-7.449219-17.847656-14.183593-27.5625-20.140625.011719-.570312-.015625-1.140625-.085937-1.707031 3.15625-4.179687 9.984374-13.480469 18.003906-25.855469 12.203125 6.421875 23.578125 14.300782 33.878906 23.46875.304688.230469.589844.488282.851562.765625zm0 0" fill="#fdd834"/><path d="m250.847656 286.296875c-6.058594 5.714844-12.117187 11.347656-18.089844 16.808594-4.527343-.621094-9.085937-.964844-13.65625-1.023438-3.753906-4.179687-7.765624-8.449219-12.03125-12.628906-6.742187-6.828125-13.566406-13.140625-20.054687-18.601563 7.339844-8.195312 15.191406-16.640624 23.210937-25.175781 6.828126 5.804688 13.996094 12.375 21.078126 19.457031 7.082031 7.082032 13.738281 14.335938 19.542968 21.164063zm0 0" fill="#ffb301"/><path d="m270.472656 312.664062c-1.875-.683593-3.753906-1.367187-5.800781-2.046874-10.371094-3.527344-21.058594-6.042969-31.914063-7.511719 5.972657-5.460938 12.03125-11.09375 18.089844-16.808594.277344.261719.535156.546875.765625.851563 6.910157 8.027343 13.214844 16.554687 18.859375 25.515624zm0 0" fill="#f9eab0"/><path d="m302.21875 308.398438v.082031c-4.609375 4.183593-9.132812 8.363281-13.65625 12.460937-5.765625-3.21875-11.789062-5.957031-18.003906-8.191406 0-.046875-.039063-.085938-.085938-.085938-5.644531-8.960937-11.949218-17.488281-18.859375-25.515624-.230469-.304688-.488281-.589844-.765625-.851563 8.191406-7.597656 16.46875-15.445313 24.832032-23.640625.085937.085938.085937.171875.167968.171875 17.410156 20.566406 27.820313 38.230469 26.371094 45.570313zm0 0" fill="#ffb301"/><path d="m342.664062 428.886719c-.296874 3.78125-3.058593 6.910156-6.773437 7.679687-3.710937.773438-7.488281-1-9.269531-4.351562-3.171875-6.027344-6.824219-11.792969-10.921875-17.238282-17.238281-22.867187-37.972657-31.570312-61.695313-25.597656-17.152344 4.351563-35.839844 16.382813-55.980468 36.523438-42.921876 42.835937-76.710938 46.335937-99.15625 42.496094-1.195313-.171876-2.304688-.34375-3.414063-.597657-6.367187-1.453125-12.636719-3.304687-18.773437-5.546875-23.933594-11.652344-42.71875-31.742187-52.734376-56.40625-10.667968-28.074218-7.679687-65.109375 34.558594-107.347656 39.765625-39.765625 55.125-76.117188 59.90625-104.449219v-.085937c2.011719-11.816406 2.269532-23.863282.765625-35.753906-.25-1.203126 0-2.457032.691407-3.46875.691406-1.015626 1.769531-1.703126 2.980468-1.90625 1.566406-.089844 3.074219.613281 4.007813 1.875 1.171875 1.601562 2.226562 3.285156 3.160156 5.035156 1.363281 2.304687 2.644531 4.695312 3.925781 7.082031 1.277344 2.390625 2.386719 4.523437 3.496094 6.828125s2.050781 4.523438 3.160156 6.910156c.9375 2.21875 1.875 4.523438 2.8125 6.742188.941406 2.21875 1.792969 4.523437 2.5625 6.742187 6.128906 17.175781 10.003906 35.074219 11.519532 53.246094.070312.566406.097656 1.136719.085937 1.707031 1.519531 19.496094.574219 39.109375-2.816406 58.367188l-.257813 1.792968c-.546875 3.386719.980469 6.769532 3.886719 8.59375 2.902344 1.824219 6.617187 1.734376 9.425781-.230468 10.667969-7.996094 23.277344-13.003906 36.523438-14.507813 4.886718-.710937 9.824218-1.027343 14.761718-.9375 4.570313.058594 9.128907.402344 13.65625 1.023438 10.855469 1.46875 21.542969 3.984375 31.914063 7.511719 2.046875.679687 3.925781 1.363281 5.800781 2.046874.046875 0 .085938.039063.085938.085938 6.214844 2.234375 12.238281 4.972656 18.003906 8.191406 1.042969.484375 2.042969 1.054688 2.988281 1.707032 49.238281 28.5 53.84375 76.285156 51.113281 106.238281zm0 0" fill="#2e7d32"/><path d="m315.699219 414.976562c-17.238281-22.867187-37.972657-31.570312-61.695313-25.597656-24.0625-6.742187-52.136718 5.121094-83.542968 36.523438-27.988282 27.902344-52.050782 39.082031-71.59375 42.496094-1.195313-.171876-2.304688-.34375-3.414063-.597657-6.367187-1.453125-12.636719-3.304687-18.773437-5.546875-23.933594-11.652344-42.71875-31.742187-52.734376-56.40625-10.667968-28.074218-7.679687-65.109375 34.558594-107.347656 39.765625-39.765625 55.125-76.117188 59.90625-104.449219 6.128906 17.175781 10.003906 35.074219 11.519532 53.246094.070312.566406.097656 1.136719.085937 1.707031 1.519531 19.496094.574219 39.109375-2.816406 58.367188l-.257813 1.792968c-.550781 3.386719.980469 6.769532 3.886719 8.59375 2.902344 1.824219 6.617187 1.734376 9.425781-.230468 4.394532-3.355469 9.179688-6.164063 14.25-8.363282 11.667969-5.082031 24.316406-7.503906 37.035156-7.082031 4.28125.070313 8.554688.382813 12.800782.9375.257812 0 .597656.085938.851562.085938 10.855469 1.46875 21.546875 3.984375 31.917969 7.511719 2.046875.679687 3.925781 1.363281 5.800781 2.046874.046875 0 .085938.039063.085938.085938 6.214844 2.234375 12.238281 4.972656 18.003906 8.191406 1.042969.484375 2.042969 1.054688 2.988281 1.707032 33.15625 18.671874 53.113281 54.300781 51.710938 92.328124zm0 0" fill="#4caf50"/><path d="m460.9375 58.539062-.085938-.082031c-3.5-3.839843-7.253906-7.765625-11.179687-11.605469-3.925781-3.839843-7.765625-7.679687-11.605469-11.179687 22.613282-16.042969 37.804688-23.296875 41.898438-19.199219.226562.183594.402344.417969.515625.679688 3.070312 4.867187-4.269531 19.714844-19.542969 41.386718zm0 0" fill="#ffb301"/><path d="m350.515625 260.609375-.085937.085937c-6.058594 6.570313-12.457032 13.140626-19.027344 19.625-1.621094 1.625-3.242188 3.246094-4.863282 4.78125l-.257812-.257812c2.390625-6.738281-8.191406-24.832031-26.113281-46.164062 2.390625-2.21875 4.695312-4.523438 7-6.828126 5.886719-5.886718 11.605469-11.6875 17.234375-17.492187 18.007812 21.25 28.503906 39.507813 26.113281 46.25zm0 0" fill="#ffb301"/><path d="m300.167969 238.679688c-8.277344 8.277343-16.382813 16.214843-24.488281 23.976562-5.972657-6.996094-12.714844-14.335938-20.054688-21.757812-7.339844-7.425782-14.761719-14.082032-21.757812-20.054688 7.761718-8.105469 15.699218-16.296875 23.976562-24.488281h.085938c7.082031 6.058593 14.507812 12.796875 21.929687 20.308593 7.425781 7.507813 14.25 14.847657 20.226563 21.929688zm0 0" fill="#ffb301"/><g fill="#fdd834"><path d="m326.28125 284.84375.257812.257812c-8.109374 8.105469-16.214843 15.785157-24.320312 23.296876 1.449219-7.339844-8.960938-25.003907-26.371094-45.570313-.082031 0-.082031-.085937-.167968-.171875 8.105468-7.761719 16.210937-15.699219 24.488281-23.976562 17.921875 21.332031 28.503906 39.425781 26.113281 46.164062zm0 0"/><path d="m275.679688 262.65625c-8.363282 8.195312-16.640626 16.042969-24.832032 23.640625-5.804687-6.828125-12.375-13.996094-19.542968-21.164063-7.167969-7.167968-14.25-13.652343-21.078126-19.457031 7.597657-8.191406 15.445313-16.46875 23.640626-24.832031 6.996093 5.972656 14.335937 12.628906 21.757812 20.054688 7.425781 7.421874 14.082031 14.761718 20.054688 21.757812zm0 0"/><path d="m350.515625 260.609375c2.390625-6.742187-8.105469-25-26.113281-46.25 8.195312-8.363281 16.128906-16.554687 23.894531-24.660156 16.300781 19.113281 26.453125 35.839843 26.796875 44.03125-7.765625 8.960937-15.960938 17.917969-24.578125 26.878906zm0 0"/></g><path d="m282.164062 172.121094c-5.800781 5.628906-11.605468 11.347656-17.492187 17.234375-2.304687 2.304687-4.609375 4.609375-6.828125 7-21.417969-18.09375-39.507812-28.671875-46.335938-26.113281l-.171874-.171876c1.539062-1.707031 3.242187-3.328124 4.867187-4.949218 6.570313-6.570313 13.054687-12.882813 19.625-19.113282 6.910156-2.476562 25.003906 8.105469 46.335937 26.113282zm0 0" fill="#ffb301"/><path d="m306.824219 148.226562c-8.105469 7.679688-16.382813 15.699219-24.660157 23.894532-21.332031-18.007813-39.425781-28.589844-46.335937-26.113282 8.960937-8.535156 18.003906-16.726562 26.878906-24.660156h.085938c8.105469.339844 24.917969 10.578125 44.03125 26.878906zm0 0" fill="#fdd834"/><path d="m324.402344 214.359375c-5.628906 5.804687-11.347656 11.605469-17.234375 17.492187-2.304688 2.304688-4.609375 4.609376-7 6.828126l-.082031-.085938c-5.976563-7.082031-12.800782-14.507812-20.226563-21.929688-7.421875-7.425781-14.847656-14.25-21.929687-20.308593h-.085938c2.21875-2.390625 4.523438-4.695313 6.828125-7 5.886719-5.886719 11.691406-11.605469 17.492187-17.234375 7.082032 6.058594 14.507813 12.796875 21.929688 20.308594 7.425781 7.507812 14.25 14.847656 20.308594 21.929687zm0 0" fill="#fdd834"/><path d="m348.296875 189.699219c-7.765625 8.105469-15.699219 16.296875-23.894531 24.660156-6.058594-7.082031-12.796875-14.507813-20.308594-21.929687-7.507812-7.425782-14.847656-14.25-21.929688-20.308594 8.277344-8.195313 16.554688-16.214844 24.660157-23.894532 6.914062 5.886719 14.25 12.542969 21.589843 19.882813 7.339844 7.339844 13.996094 14.675781 19.882813 21.589844zm0 0" fill="#ffb301"/><path d="m371.765625 164.609375c-7.511719 8.191406-15.363281 16.640625-23.46875 25.089844-5.886719-6.914063-12.542969-14.25-19.882813-21.589844-7.339843-7.339844-14.675781-13.996094-21.589843-19.882813 8.449219-8.105468 16.898437-15.957031 25.089843-23.550781 6.742188 5.714844 13.652344 12.199219 20.734376 19.199219 7.082031 6.996094 13.484374 13.910156 19.117187 20.734375zm0 0" fill="#fdd834"/><path d="m395.058594 139.09375c-7.421875 8.277344-15.101563 16.8125-23.292969 25.515625-5.632813-6.824219-12.117187-13.738281-19.117187-20.734375-6.996094-7-13.992188-13.484375-20.734376-19.199219 8.703126-8.109375 17.238282-15.789062 25.515626-23.210937 6.3125 5.460937 12.882812 11.605468 19.453124 18.175781 6.570313 6.570313 12.714844 13.140625 18.175782 19.453125zm0 0" fill="#ffb301"/><path d="m383.539062 78.765625c-8.363281 7.167969-17.066406 14.675781-26.109374 22.699219-11.378907-10.441406-24.125-19.28125-37.890626-26.285156 10.328126-7.679688 20.480469-14.761719 30.292969-21.160157 12.046875 7.085938 23.339844 15.375 33.707031 24.746094zm0 0" fill="#ffb301"/><path d="m417.757812 112.984375c-7.167968 8.363281-14.675781 17.066406-22.699218 26.109375-5.460938-6.3125-11.605469-12.96875-18.175782-19.453125-6.570312-6.488281-13.140624-12.714844-19.453124-18.175781 9.042968-8.023438 17.746093-15.53125 26.109374-22.699219 5.71875 5.035156 11.691407 10.664063 17.578126 16.554687 5.890624 5.886719 11.605468 11.945313 16.640624 17.664063zm0 0" fill="#fdd834"/><path d="m439.773438 86.359375c-6.65625 8.363281-14.078126 17.324219-22.015626 26.625-5.035156-5.71875-10.664062-11.691406-16.640624-17.664063-5.972657-5.972656-11.859376-11.519531-17.578126-16.554687 9.300782-7.9375 18.261719-15.359375 26.625-22.015625 5.035157 4.4375 10.15625 9.214844 15.273438 14.335938 5.121094 5.117187 9.898438 10.238281 14.335938 15.273437zm0 0" fill="#ffb301"/><path d="m219.101562 302.082031c-18.355468-.867187-36.457031 4.585938-51.285156 15.445313-2.808594 1.964844-6.523437 2.054687-9.425781.230468-2.90625-1.824218-4.433594-5.207031-3.886719-8.59375l.257813-1.792968h.085937c9.785156-11.546875 20.507813-23.722656 32.167969-36.519532 6.488281 5.460938 13.3125 11.773438 20.054687 18.601563 4.265626 4.179687 8.277344 8.449219 12.03125 12.628906zm0 0" fill="#fdd834"/><path d="m489.949219 191.917969c-9.828125 2.230469-19.988281 2.609375-29.960938 1.117187-14.378906-1.789062-28.976562-.613281-42.886719 3.457032 3.480469-4.5 6.921876-9.039063 10.316407-13.613282.207031-.246094.394531-.507812.570312-.773437 7.28125-9.859375 14.304688-19.867188 20.890625-29.867188.324219-.433593.613282-.894531.855469-1.375 6.824219-10.394531 13.132813-20.761719 18.773437-30.925781.578126-.722656 1.03125-1.539062 1.339844-2.414062 6.027344-10.871094 11.398438-22.089844 16.082032-33.605469.441406-.746094.757812-1.558594.949218-2.40625 11.785156-30.566407 13.746094-56.394531-.914062-71.046875-.554688-.558594-1.15625-1.070313-1.800782-1.527344-24.976562-21.605469-78.734374-1.996094-139.304687 38.050781-.171875.117188-.351563.203125-.511719.332031-9.839844 6.527344-19.859375 13.574219-29.953125 21.085938-.371093.222656-.71875.480469-1.042969.765625-18.6875 13.929687-37.621093 29.363281-56.242187 45.765625-.160156.136719-.324219.273438-.476563.425781-8.988281 7.921875-17.875 16.03125-26.660156 24.328125l-.074218.078125c-2.457032 2.328125-4.898438 4.683594-7.332032 7.039063 13.382813-40.285156 10.191406-71.105469-9.753906-90.289063-5.234375-5.070312-13.101562-6.28125-19.617188-3.015625-6.515624 3.265625-10.253906 10.292969-9.328124 17.519532 2.058593 16.214843-.339844 50.527343-36.042969 105.019531-.914063-2.054688-1.816407-4.058594-2.78125-6.097657-1.144531-2.40625-2.347657-4.761718-3.621094-7.179687-1.269531-2.414063-2.710937-4.9375-4.128906-7.386719l-.5625-.992187c-.992188-1.867188-2.160157-3.632813-3.488281-5.273438-2.769532-3.460937-7.117188-5.265625-11.523438-4.777343-3.515625.480468-6.683594 2.378906-8.761719 5.253906s-2.890625 6.480468-2.246093 9.96875c3.191406 24.796875-.246094 74.8125-58.316407 132.882812-45.207031 45.335938-46.488281 84.648438-38.175781 111.101563l-4.164062 4.164062c-6.4375 6.421875-10.054688 15.140625-10.054688 24.230469 0 9.09375 3.617188 17.808594 10.054688 24.230469l30.273437 30.335937c13.386719 13.371094 35.074219 13.371094 48.460937 0l9.609376-9.574218c4.566406.753906 9.1875 1.152343 13.816406 1.195312 30.300781 0 61.105468-15.472656 91.800781-46.164062 26.453125-26.453126 50.046875-38.351563 70.1875-35.433594 16.921875 2.492187 32.035156 15.882812 44.917969 39.828125 3.609375 6.605469 11.113281 10.082031 18.484375 8.558593 7.375-1.523437 12.886719-7.683593 13.585937-15.183593 2.472656-27.203125-.574218-75.59375-44.527344-107.414063 87.621094-62.738281 104.789063-67.21875 132.207032-74.164062 7.960937-2.015625 16.980468-4.265625 28.671875-8.210938 12.746093-4.097656 24.871093-9.921875 36.042969-17.304687 6.824218-4.558594 9.351562-13.382813 5.972656-20.863281-3.25-7.632813-11.542969-11.800782-19.609375-9.855469zm-224.773438-61.371094c10.492188 4.542969 20.21875 10.6875 28.832031 18.207031-4.085937 3.933594-8.1875 7.914063-12.304687 11.949219-8.792969-7.425781-18.367187-13.875-28.550781-19.234375 4.019531-3.710938 8.027344-7.351562 12.023437-10.921875zm26.988281-23.109375c9.621094 4.800781 18.628907 10.742188 26.828126 17.699219-4.144532 3.855469-8.328126 7.773437-12.542969 11.757812-8.460938-7.046875-17.570313-13.277343-27.203125-18.613281 4.335937-3.726562 8.640625-7.339844 12.917968-10.84375zm28.246094-22.289062c8.472656 4.816406 16.5 10.378906 23.988282 16.621093-4.199219 3.785157-8.464844 7.660157-12.800782 11.632813-7.851562-6.527344-16.199218-12.433594-24.96875-17.664063 4.660156-3.660156 9.25-7.203125 13.78125-10.617187zm29.585938-21.078126c7.089844 4.5 13.890625 9.449219 20.351562 14.8125-4.253906 3.671876-8.601562 7.460938-13.039062 11.367188-6.960938-5.8125-14.277344-11.1875-21.90625-16.09375 4.949218-3.53125 9.8125-6.902344 14.59375-10.113281zm31.394531-19.550781c4.949219 3.457031 10.171875 7.460938 15.554687 12-4.472656 3.644531-8.949218 7.363281-13.429687 11.152344-6.273437-5.25-12.273437-9.855469-17.921875-13.746094 5.417969-3.398437 10.675781-6.511719 15.796875-9.429687zm33.894531-17.03125c2.941406 2.339844 5.972656 4.820313 9.070313 7.519531-4.265625 3.179688-8.960938 6.765626-13.894531 10.640626-4.214844-3.644532-8.378907-7.015626-12.449219-10.121094 6.050781-3.039063 11.820312-5.742188 17.273437-8.039063zm60.253906 34.722657c-1.238281-1.441407-2.5625-2.917969-3.875-4.386719 2.738282-4.019531 5.171876-7.738281 7.175782-11.042969-.699219 5.222656-1.800782 10.378906-3.300782 15.429688zm-14.628906 36.136718c-3.085937-4.054687-6.433594-8.171875-10.042968-12.355468 3.882812-4.957032 7.457031-9.625 10.632812-13.902344 2.621094 3.03125 5.042969 5.976562 7.332031 8.832031-2.289062 5.566406-4.847656 11.316406-7.921875 17.460937zm-18.34375 32.429688c-3.832031-5.539063-8.414062-11.503906-13.65625-17.8125 3.777344-4.46875 7.496094-8.945313 11.15625-13.429688 4.503906 5.339844 8.53125 10.539063 11.945313 15.472656-2.9375 5.117188-6.085938 10.390626-9.421875 15.800782zm-20.21875 30.257812c-4.902344-7.605468-10.265625-14.90625-16.058594-21.863281 3.910157-4.4375 7.699219-8.785156 11.367188-13.046875 5.375 6.433594 10.3125 13.214844 14.789062 20.300781-3.199218 4.804688-6.546874 9.652344-10.097656 14.644531zm-37.953125 48.921875-.105469.09375-.578124.589844c-1.808594 2.175781-3.730469 4.359375-5.582032 6.535156-5.3125-9.597656-11.511718-18.671875-18.515625-27.109375 3.980469-4.222656 7.902344-8.40625 11.757813-12.554687 6.933594 8.175781 12.855468 17.160156 17.640625 26.753906-1.546875 1.902344-3.003907 3.753906-4.617188 5.691406zm-53.34375 58.546875c-5.292969-10.453125-11.785156-20.25-19.351562-29.191406.492187-.496094.996093-.972656 1.484375-1.460938 3.644531-3.644531 7.089844-7.183593 10.605468-10.75 7.875 8.789063 14.140626 18.902344 18.507813 29.863282-3.683594 3.851562-7.457031 7.699218-11.246094 11.539062zm-108.195312 25.121094c-3.128907-3.414062-6.296875-6.824219-9.734375-10.238281-4.796875-4.804688-9.464844-9.15625-13.996094-13.226563 3.789062-4.152344 7.675781-8.359375 11.65625-12.621094 4.984375 4.460938 9.882812 9 14.507812 13.652344s9.132813 9.488282 13.652344 14.507813c-3.097656 2.898437-6.203125 5.792969-9.273437 8.59375-2.269531-.230469-4.601563-.554688-6.8125-.667969zm28.527343-19.625c-4.589843-5.121094-9.25-10.128906-14-14.882812-4.753906-4.753907-9.875-9.507813-14.890624-13.996094 3.882812-4.117188 7.835937-8.273438 11.859374-12.464844 5.324219 4.734375 10.429688 9.445312 15.207032 14.222656 4.964844 5.027344 9.667968 10.113282 14.285156 15.265625-4.175781 4.035157-8.328125 7.992188-12.460938 11.871094zm-36.4375-95.4375c11.179688 4.164062 21.453126 10.433594 30.261719 18.472656-4.054687 4.097656-8.066406 8.183594-11.949219 12.230469-8.976562-7.550781-18.753906-14.101563-29.15625-19.535156 3.507813-3.71875 7.234376-7.4375 10.84375-11.152344zm46.714844 56.320312c-4.96875-4.976562-10.183594-9.78125-15.488281-14.507812 3.929687-4.050781 7.949219-8.144531 12.054687-12.289062 5.214844 4.625 10.4375 9.457031 15.601563 14.621093 5.160156 5.160157 9.957031 10.347657 14.589844 15.5625-4.113281 4.074219-8.210938 8.089844-12.296875 12.050781-4.589844-5.136718-9.316406-10.285156-14.4375-15.457031zm20.820313-51.046874c5.503906 4.898437 10.742187 9.746093 15.617187 14.675781 4.871094 4.933593 9.710938 10.046875 14.605469 15.539062-3.828125 3.902344-7.628906 7.792969-11.585937 11.75l-.511719.496094c-4.6875-5.253906-9.550781-10.496094-14.710938-15.65625-5.164062-5.164063-10.421875-10.035156-15.660156-14.714844.171875-.167969.332031-.347656.503906-.511719 3.933594-3.957031 7.832031-7.765624 11.742188-11.59375zm16.988281 67.488281c7.96875 8.824219 14.277344 19.015625 18.621094 30.082031-3.773438 3.695312-7.519532 7.390625-11.402344 11.09375-5.367188-10.429688-11.875-20.234375-19.402344-29.226562 4.0625-3.941407 8.121094-7.929688 12.183594-11.964844zm25.191406-49.492188c-4.863281-5.433593-9.683594-10.625-14.507812-15.359375-4.820313-4.734375-10.007813-9.703125-15.453125-14.574218 4.148437-4.058594 8.269531-8.054688 12.363281-11.988282 5.121094 4.53125 10.242188 9.25 15.277344 14.300782 5.035156 5.050781 9.769531 10.171874 14.300781 15.28125-3.90625 4.027343-7.917969 8.160156-11.980469 12.316406zm9.753906-39.703125c-4.933593-4.941406-9.941406-9.585937-14.941406-14.046875 4.230469-3.984375 8.429688-7.917969 12.59375-11.8125 4.683594 4.164063 9.507813 8.628907 14.507813 13.65625 5 5.023438 9.515625 9.855469 13.652343 14.503907-3.855468 4.15625-7.808593 8.363281-11.808593 12.605468-4.421875-4.992187-9.082031-9.992187-14.003907-14.933594zm23.039063-49.144531c4.523437 4.09375 9.019531 8.292969 13.421875 12.6875 4.40625 4.394531 8.601562 8.902344 12.691406 13.421875-3.777344 4.199219-7.65625 8.46875-11.632812 12.800781-4.0625-4.523437-8.351563-9.121093-13.25-14.019531-4.898438-4.898438-9.480469-9.171875-14.019532-13.253906 4.316407-3.984375 8.578126-7.875 12.78125-11.664063zm25.917969-22.777344c3.871094 3.542969 7.789062 7.238281 11.765625 11.207031 3.976562 3.964844 7.679687 7.875 11.203125 11.765626-3.667969 4.265624-7.457032 8.628906-11.363282 13.082031-3.902343-4.265625-7.894531-8.535157-12.035156-12.65625-4.136718-4.121094-8.386718-8.132813-12.652344-12.03125 4.449219-3.925781 8.804688-7.722657 13.070313-11.390625zm26.511718-22.1875c3.011719 2.800781 6.125 5.769531 9.515626 9.15625 3.386718 3.390625 6.3125 6.460938 9.144531 9.507813-3.617188 4.472656-7.3125 8.9375-11.089844 13.398437-3.285156-3.550781-6.691406-7.125-10.242187-10.71875-3.550782-3.59375-7.175782-7.007812-10.71875-10.238281 4.480468-3.832031 8.9375-7.546875 13.382812-11.144531zm27.367188-21.246093c2.132812 2.039062 4.265625 4.011718 6.398438 6.136718 2.132812 2.125 4.105468 4.265625 6.144531 6.40625-3.039063 4.15625-6.589844 8.824219-10.488281 13.84375-2.449219-2.5625-5.050782-5.257812-7.839844-8.046875-2.792969-2.792969-5.496094-5.429687-8.058594-7.84375 5.011719-3.941406 9.679688-7.5 13.835938-10.539062zm33.636719-21.085938c-3.144531 6.757812-6.855469 13.238281-11.09375 19.371094-1.371094-1.398438-2.636719-2.808594-4.035157-4.214844-1.398437-1.410156-2.808593-2.664062-4.214843-4.027344 6.121093-4.261718 12.589843-7.996094 19.335937-11.171875zm-87.746094 139.195312c3.980469-4.3125 7.859375-8.578124 11.636719-12.800781 6.214844 7.484375 11.773437 15.496094 16.605468 23.9375-3.410156 4.515625-6.953124 9.105469-10.621093 13.753907-5.222657-8.738282-11.113281-17.0625-17.621094-24.890626zm55.464844-140.039062c-1.554688-1.382812-3.132813-2.808594-4.652344-4.113281 5.34375-1.605469 10.8125-2.746094 16.351563-3.414063-3.449219 2.066406-7.40625 4.625-11.664063 7.527344zm-199.160157 129.527344c11.046876 4.210937 21.210938 10.457031 29.960938 18.40625-3.566406 3.515625-7.125 6.972656-10.734375 10.589844-.503906.503906-.964844.988281-1.46875 1.492187-8.949219-7.570313-18.757813-14.074219-29.21875-19.371094 3.835937-3.800781 7.65625-7.503906 11.460937-11.117187zm-43.742187 50.347656c9.15625 4.636719 17.746094 10.3125 25.601563 16.910156-3.984376 4.164063-7.90625 8.296875-11.777344 12.390625-6.960938-5.707031-14.292969-10.945312-21.945313-15.683593 2.644531-4.351563 5.367188-8.910157 8.121094-13.679688zm-17.40625 27.953125c6.792969 4.1875 13.308594 8.8125 19.5 13.851563-3.984375 4.238281-7.847656 8.425781-11.589844 12.566406-6.109375-4.972656-11.945312-9.386719-17.261719-12.917969 2.550782-3.601563 5.699219-8.175781 9.351563-13.558594zm-11.546875 32.855469c2.5625 1.910156 5.25 4.015625 8.011719 6.246094-2.839844 3.171874-5.691407 6.339843-8.421875 9.386718.308594-5.242187.445312-10.472656.410156-15.695312zm20.949219 17.378906c4.214843 3.789062 8.472656 7.777344 12.800781 12.09375-13.304688 1.996094-25.917969 7.199219-36.761719 15.164062 7.398438-8.6875 15.453125-17.835937 23.960938-27.316406zm88.59375 23.042969c-4.246094-6.5625-8.847657-12.886719-13.78125-18.945313 4.113281-3.867187 8.246093-7.800781 12.398437-11.800781 7.765625 8.78125 14.027344 18.785156 18.527344 29.609375-2.144531 1.964844-4.269531 3.933594-6.410156 5.898438-3.402344-1.691407-6.980469-3.285157-10.734375-4.78125zm78.675781-62.5c-5.304688-10.214844-11.738281-19.804688-19.171875-28.59375 4.0625-4.148438 8.027344-8.246094 11.945313-12.332031 7.484374 8.609374 13.597656 18.316406 18.132812 28.785156-3.574219 4.035156-7.183594 8.078125-10.90625 12.125zm-153.871094-174.625c25.601563 24.660156 7.988282 74.1875-11.46875 111.597656-.109375.1875-.222656.382813-.324218.582031-1.5625 3.011719-3.167969 5.972656-4.769532 8.832032-7.511718 13.574218-15.207031 25.648437-21.53125 34.984374-1.851562-9.957031-4.386718-19.773437-7.59375-29.378906 42.855469-61.464844 48.496094-102.671875 45.6875-126.617187zm-148.703125 405.613281-30.316406-30.328125c-6.46875-6.398437-6.753906-16.753906-.648437-23.5 11.726562 21.828125 30.183593 39.292969 52.625 49.800781l2.898437.972656 2.152344.691407-2.382813 2.382812c-6.730468 6.691407-17.605468 6.683594-24.328125-.019531zm281.746094-46.222656c-15.566406-28.929688-34.902344-45.28125-57.464844-48.597656-25.734375-3.796876-54.238281 9.753906-84.726562 40.242187-33.101563 33.101563-64.085938 46.078125-94.769531 39.585937-5.003907-1.117187-9.929688-2.542968-14.753907-4.265624l-3.074219-1.023438c-21.46875-10.875-38.296874-29.125-47.394531-51.40625-12.039062-31.488281-1.082031-64.527344 32.605469-98.191406 51.824219-51.816406 63.550781-98.773438 64.113281-129.402344.359375.710938.699219 1.425781 1.039063 2.152344 1.058594 2.21875 2.058594 4.386718 3.074218 6.722656.929688 2.101562 1.867188 4.265625 2.644532 6.222656l1.101562 2.925782c.484375 1.253906.964844 2.507812 1.414063 3.789062 5.90625 16.476562 9.621093 33.65625 11.050781 51.097656 1.660156 19.894532.695312 39.917969-2.867188 59.5625-1.246093 6.9375 1.925782 13.925782 7.972657 17.554688 5.871093 3.675781 13.40625 3.335937 18.925781-.855469 21.425781-16.210937 51.371094-18.105469 89.003906-5.554687 7.816406 2.535156 15.386719 5.792968 22.601563 9.726562.855469.4375 1.65625.855469 2.691406 1.503906 43.800781 25.359375 49.664063 67.371094 46.8125 98.210938zm128-204.496094c-11.09375 3.707031-19.78125 5.914062-27.453125 7.851562-21.570312 5.472657-37.222656 9.523438-79.777344 36.890626 14.582032-15.292969 28.304688-30.609376 40.753906-45.535157 18.921876-10.296875 40.449219-14.8125 61.910157-12.988281 12.125 1.789062 24.476562 1.316406 36.429687-1.398438-9.886718 6.484376-20.609375 11.589844-31.871094 15.179688zm0 0"/><path d="m143.4375 407.726562c-24.882812 24.863282-54.714844 5.808594-55.945312 5-2.535157-1.691406-5.78125-1.902343-8.515626-.554687-2.734374 1.351563-4.539062 4.058594-4.734374 7.101563-.199219 3.042968 1.242187 5.960937 3.777343 7.652343 10.734375 6.832031 23.175781 10.5 35.902344 10.582031 15.703125.019532 30.734375-6.394531 41.582031-17.75 2.21875-2.144531 3.109375-5.316406 2.328125-8.300781-.78125-2.980469-3.113281-5.3125-6.097656-6.09375-2.980469-.78125-6.152344.109375-8.296875 2.328125zm0 0"/><path d="m182.308594 389.496094c0 4.738281-3.839844 8.578125-8.578125 8.578125-4.734375 0-8.574219-3.839844-8.574219-8.578125 0-4.734375 3.839844-8.574219 8.574219-8.574219 4.738281 0 8.578125 3.839844 8.578125 8.574219zm0 0"/></svg>