<svg id="Capa_1" enable-background="new 0 0 496.803 496.803" height="512" viewBox="0 0 496.803 496.803" width="512" xmlns="http://www.w3.org/2000/svg"><g><path d="m334.097 100.421.492-1.641c10.126-33.779-6.554-69.802-38.865-83.931l-32.451-14.189c-5.138-2.247-10.893 1.518-10.893 7.126v8.173l-12.294 4.098c-11.914 3.971-21.34 13.2-25.563 25.026l-11.675 38.776 42.664 68.954h65.522z" fill="#fcf6ed"/><path d="m235.918 95.16 12.616-41.463c4.564-12.646 14.75-22.514 27.625-26.761l4.224-1.393c5.342-1.762 9.026-6.675 9.185-12.297.016-.579.034-.971.053-1.065l-26.347-11.521c-5.138-2.247-10.893 1.518-10.893 7.126v8.173l-12.294 4.098c-11.914 3.971-21.34 13.199-25.563 25.026l-11.675 38.776 42.664 68.954h26.455z" fill="#fcf1de"/><path d="m386.734 170.51c11.784-18.813 4.389-43.697-15.757-53.021l-166.324-76.974c-28.056-12.984-59.729 8.982-57.4 39.809l.874 11.567 9.247 67.271 191.591 53.529z" fill="#fcf6ed"/><path d="m183.278 124.776-.874-11.567c-2.328-30.827 29.345-52.793 57.4-39.809l151.818 70.262c-2.235-11.049-9.476-21.003-20.645-26.172l-166.324-76.975c-28.056-12.984-59.729 8.982-57.4 39.809l.874 11.567 9.248 67.271 31.854 8.899z" fill="#fcf1de"/><g id="XMLID_297_"><g><path d="m386.731 170.513c16.85 6.1 25.9 24.26 20.78 41.3l-23.87 60.89-263.66-32.22-14.17-78.79-1.28-7.76c-6.76-40.73 32.83-73.67 71.65-59.62z" fill="#fcf6ed"/></g></g><path d="m146.276 195.376-1.28-7.76c-6.76-40.73 32.83-73.67 71.65-59.62l191.965 69.474c-1.685-11.954-9.767-22.572-21.88-26.957l-210.55-76.2c-38.82-14.05-78.41 18.89-71.65 59.62l1.28 7.76 14.17 78.79 35.18 4.299z" fill="#fcf1de"/><path d="m424.774 245.391c3.068-15.849-7.323-31.174-23.182-34.19l-268.226-51.001c-41.957-7.978-77.441 31.353-65.202 72.27l3.865 12.921 38.347 120.919h289.891z" fill="#fcf6ed"/><path d="m114.772 279.675-3.865-12.92c-12.239-40.917 23.245-80.248 65.202-72.27l249.121 47.368c1.019-14.531-8.965-27.861-23.638-30.651l-268.226-51.002c-41.957-7.978-77.44 31.353-65.202 72.27l3.865 12.92 38.347 120.919h31.871z" fill="#fcf1de"/><g><path d="m247.546 253.039-22.594-15.953c-2.397-1.692-5.6-1.692-7.997 0l-22.594 15.953c-.513.362-1.198.362-1.711 0l-22.594-15.953c-2.397-1.692-5.6-1.692-7.997 0l-22.594 15.953c-.513.362-1.198.362-1.711 0l-22.594-15.953c-2.397-1.692-5.6-1.692-7.997 0l-22.594 15.953c-.513.362-1.198.362-1.711 0l-22.594-15.953c-2.397-1.692-5.6-1.692-7.997 0l-15.987 11.288c-4.529 3.198-6.72 8.783-5.574 14.207l43.42 205.529c3.533 16.725 18.293 28.692 35.386 28.692h277.778c17.094 0 31.853-11.967 35.386-28.692l43.417-205.529c1.146-5.424-1.046-11.01-5.574-14.207l-15.987-11.288c-2.397-1.692-5.6-1.692-7.997 0l-22.594 15.953c-.513.362-1.198.362-1.711 0l-22.594-15.953c-2.397-1.692-5.6-1.692-7.997 0l-22.594 15.953c-.513.362-1.198.362-1.711 0l-22.594-15.953c-2.397-1.692-5.6-1.692-7.997 0l-22.594 15.953c-.513.362-1.198.362-1.711 0l-22.594-15.953c-2.397-1.692-5.6-1.692-7.997 0l-22.594 15.953c-.509.362-1.194.362-1.707 0z" fill="#cfeffc"/></g><g id="XMLID_299_"><g><path d="m172.249 471.268c-19.293 0-35.953-11.967-39.94-28.692l-45.559-191.076-2.179 1.539c-.513.362-1.198.362-1.711 0l-22.594-15.953c-2.397-1.692-5.6-1.692-7.997 0l-15.987 11.288c-4.529 3.198-6.72 8.783-5.574 14.208l43.418 205.528c3.533 16.725 18.293 28.692 35.386 28.692h277.778c15.997 0 29.948-10.482 34.568-25.534z" fill="#a9e4f9"/><path d="m83.981 253.313 36 243.49h-10.47c-17.09 0-31.85-11.97-35.39-28.69l-43.41-205.53c-1.15-5.43 1.04-11.01 5.57-14.21l15.99-11.29c2.4-1.69 5.6-1.69 8 0l22.59 15.96c.33.23.73.31 1.11.24z" fill="#81d9f8"/><g fill="#a9e4f9"><path d="m193.901 253.313 6.37 241.49v2h-42.9l-18.49-243.49-.01-.03c.21-.03.42-.11.6-.24l22.59-15.96c2.4-1.69 5.6-1.69 8 0l22.59 15.96c.37.26.83.33 1.24.21z"/><path d="m303.191 253.303v.01l-6.37 241.49v2h-48.28v-243.5c.25-.02.5-.11.72-.26l22.59-15.96c2.4-1.69 5.6-1.69 8 0l22.59 15.96c.23.16.49.25.75.26z"/><path d="m413.111 253.313-36 243.49h-37.39l18.49-243.49c.29 0 .59-.09.84-.27l22.59-15.96c2.4-1.69 5.6-1.69 8 0l22.59 15.96c.26.19.58.28.88.27z"/></g></g></g><g fill="#81d9f8"><path d="m155.181 467.957 2.19 28.846h42.9v-2l-.621-23.535h-27.402c-6.051 0-11.843-1.179-17.067-3.311z"/><path d="m248.542 471.268v25.535h48.279v-2l.621-23.535z"/><path d="m380.887 471.268h-39.227l-1.938 25.535h37.389z"/></g></g></svg>