<svg height="503.60656pt" viewBox="0 0 503.60656 503.60656" width="503.60656pt" xmlns="http://www.w3.org/2000/svg"><path d="m251.804688 8.386719c-134.433594 0-243.410157 108.976562-243.410157 243.40625 0 134.433593 108.976563 243.410156 243.410157 243.410156 134.429687 0 243.410156-108.976563 243.410156-243.410156 0-134.429688-108.980469-243.40625-243.410156-243.40625zm0 453.246093c-81.945313.078126-156.421876-47.597656-190.660157-122.046874-34.238281-74.449219-21.957031-162.023438 31.433594-224.183594l25.601563 25.597656 218.984374 218.988281 51.03125 51.03125c-37.890624 32.738281-86.316406 50.707031-136.390624 50.613281zm160.144531-74.367187-295.53125-295.535156c83.242187-70.542969 206.675781-65.453125 283.832031 11.703125s82.242188 200.585937 11.699219 283.832031zm0 0" fill="#f44335"/><path d="m495.214844 251.792969c0 134.433593-108.980469 243.410156-243.410156 243.410156-4.199219 0-8.394532-.082031-12.507813-.335937 129.285156-6.796876 230.628906-113.605469 230.628906-243.074219 0-129.464844-101.34375-236.273438-230.628906-243.070313 4.113281-.253906 8.308594-.335937 12.507813-.335937 134.429687 0 243.410156 108.976562 243.410156 243.40625zm0 0" fill="#c52828"/><path d="m352.523438 175.332031v193.046875c-.027344 9.261719-7.527344 16.761719-16.785157 16.789063h-167.871093c-9.257813-.027344-16.757813-7.527344-16.785157-16.789063v-193.046875l33.574219-50.363281v-16.785156c.027344-9.261719 7.527344-16.757813 16.785156-16.789063h100.722656c9.257813.03125 16.757813 7.527344 16.785157 16.789063v16.785156zm0 0" fill="#0377bc"/><path d="m327.34375 175.332031v193.046875c-.027344 9.261719-7.527344 16.761719-16.785156 16.789063h-142.691406c-9.257813-.027344-16.757813-7.527344-16.785157-16.789063v-193.046875l33.574219-50.363281v-16.785156c.027344-9.261719 7.527344-16.757813 16.785156-16.789063h75.542969c9.257813.03125 16.757813 7.527344 16.785156 16.789063v16.785156zm0 0" fill="#02a9f4"/><path d="m352.523438 175.332031h-201.441407l33.574219-50.363281h134.292969zm0 0" fill="#283593"/><path d="m318.949219 175.332031h-167.867188l33.574219-50.363281h100.722656zm0 0" fill="#3f51b5"/><path d="m302.078125 274.457031c16.066406-11.378906 21.621094-32.664062 13.164063-50.445312-.992188-2.613281-3.234376-4.550781-5.960938-5.160157-2.726562-.609374-5.578125.195313-7.585938 2.140626-6.695312 5.742187-14.507812 10.03125-22.949218 12.589843h-53.886719c-8.4375-2.558593-16.253906-6.847656-22.945313-12.589843-2.011718-1.945313-4.859374-2.75-7.589843-2.140626-2.726563.609376-4.964844 2.546876-5.957031 5.160157-8.460938 17.78125-2.90625 39.066406 13.160156 50.445312zm0 0" fill="#37474f"/><path d="m235.015625 234.085938c-4.636719 0-8.394531-3.757813-8.394531-8.394532v-16.785156c0-4.636719 3.757812-8.394531 8.394531-8.394531s8.394531 3.757812 8.394531 8.394531v16.785156c0 4.636719-3.757812 8.394532-8.394531 8.394532zm0 0" fill="#e4c05c"/><path d="m268.589844 234.085938c-4.636719 0-8.394532-3.757813-8.394532-8.394532v-16.785156c0-4.636719 3.757813-8.394531 8.394532-8.394531 4.636718 0 8.394531 3.757812 8.394531 8.394531v16.785156c0 4.636719-3.757813 8.394532-8.394531 8.394532zm0 0" fill="#e4c05c"/><path d="m211.347656 306.015625c-15.425781-20.804687-12.554687-49.917969 6.636719-67.308594s48.445313-17.390625 67.636719 0 22.0625 46.503907 6.636718 67.308594" fill="#f5f5f5"/><path d="m235.015625 267.660156c-2.222656-.035156-4.347656-.902344-5.957031-2.4375-.761719-.800781-1.359375-1.742187-1.765625-2.769531-.429688-1.007813-.65625-2.089844-.671875-3.1875.015625-.5625.074218-1.125.167968-1.679687.09375-.527344.261719-1.035157.503907-1.511719.183593-.535157.4375-1.042969.757812-1.507813l1.007813-1.261718c.816406-.738282 1.75-1.335938 2.769531-1.761719 2.042969-.839844 4.335937-.839844 6.378906 0 1.015625.425781 1.953125 1.023437 2.769531 1.761719.359376.398437.695313.820312 1.007813 1.261718.316406.464844.570313.972656.753906 1.507813.242188.476562.414063.984375.503907 1.511719.097656.554687.152343 1.117187.167968 1.679687-.011718 1.097656-.242187 2.179687-.671875 3.1875-.40625 1.027344-1.003906 1.96875-1.761719 2.769531-1.609374 1.535156-3.738281 2.402344-5.960937 2.4375zm0 0" fill="#2c3e50"/><path d="m268.589844 267.660156c-2.222656-.035156-4.351563-.902344-5.960938-2.4375-.757812-.800781-1.355468-1.742187-1.761718-2.769531-.429688-1.007813-.65625-2.089844-.671876-3.1875.015626-.5625.070313-1.125.167969-1.679687.09375-.527344.261719-1.035157.503907-1.511719.183593-.535157.4375-1.042969.757812-1.507813l1.003906-1.261718c.816406-.738282 1.753906-1.335938 2.773438-1.761719 2.042968-.839844 4.332031-.839844 6.378906 0 1.015625.425781 1.953125 1.023437 2.769531 1.761719.359375.398437.695313.820312 1.007813 1.261718.316406.464844.570312.972656.753906 1.507813.242188.476562.410156.984375.503906 1.511719.097656.554687.152344 1.117187.167969 1.679687-.015625 1.097656-.242187 2.179687-.671875 3.1875-.40625 1.027344-1.003906 1.96875-1.761719 2.769531-1.609375 1.535156-3.738281 2.402344-5.960937 2.4375zm0 0" fill="#2c3e50"/><path d="m293.769531 318.019531c0-18.542969-18.789062-33.574219-41.964843-33.574219-23.179688 0-41.96875 15.03125-41.96875 33.574219s18.789062 33.574219 41.96875 33.574219c23.175781 0 41.964843-15.03125 41.964843-33.574219zm0 0" fill="#e91e63"/><path d="m235.015625 326.414062c-2.230469.019532-4.378906-.855468-5.960937-2.433593-1.578126-1.582031-2.453126-3.726563-2.433594-5.960938.019531-.5625.078125-1.125.167968-1.679687.09375-.523438.261719-1.035156.503907-1.511719.167969-.515625.425781-.996094.757812-1.425781.285157-.480469.625-.929688 1.007813-1.34375 2.128906-2.128906 5.230468-2.960938 8.140625-2.179688 2.90625.777344 5.179687 3.050782 5.957031 5.957032.78125 2.910156-.050781 6.011718-2.179688 8.140624-.410156.382813-.863281.722657-1.34375 1.007813-.429687.335937-.910156.589844-1.425781.757813-.476562.242187-.984375.410156-1.511719.503906-.554687.09375-1.117187.148437-1.679687.167968zm0 0" fill="#802d40"/><path d="m268.589844 326.414062c-2.234375.019532-4.378906-.855468-5.960938-2.433593-1.578125-1.582031-2.453125-3.726563-2.433594-5.960938.015626-1.097656.242188-2.179687.671876-3.191406.40625-1.027344 1.003906-1.964844 1.761718-2.769531l1.261719-1.007813c.46875-.316406.976563-.570312 1.511719-.753906.472656-.242187.984375-.410156 1.507812-.503906 1.636719-.34375 3.339844-.167969 4.871094.503906 1.027344.40625 1.964844 1.003906 2.769531 1.761719.738281.816406 1.335938 1.753906 1.761719 2.769531.429688 1.011719.65625 2.09375.671875 3.191406-.035156 2.222657-.902344 4.347657-2.433594 5.957031-.789062.777344-1.734375 1.378907-2.769531 1.765626-1.011719.429687-2.09375.65625-3.191406.671874zm0 0" fill="#802d40"/><path d="m251.804688 0c-139.070313 0-251.804688 112.734375-251.804688 251.804688 0 139.066406 112.734375 251.800781 251.804688 251.800781 139.066406 0 251.800781-112.734375 251.800781-251.800781-.15625-139.003907-112.800781-251.648438-251.800781-251.804688zm0 486.820312c-129.796876 0-235.019532-105.222656-235.019532-235.015624 0-129.796876 105.222656-235.019532 235.019532-235.019532 129.792968 0 235.015624 105.222656 235.015624 235.019532-.144531 129.734374-105.28125 234.871093-235.015624 235.015624zm0 0"/><path d="m251.804688 33.566406c-51.589844.039063-101.488282 18.386719-140.816407 51.769532-.09375.074218-.128906.183593-.210937.269531-.085938.082031-.210938.109375-.292969.191406-.277344.347656-.519531.714844-.730469 1.101563-.746094.8125-1.222656 1.835937-1.359375 2.929687-.148437.507813-.25 1.03125-.304687 1.558594.003906.539062.0625 1.070312.175781 1.597656.054687.523437.15625 1.042969.304687 1.550781.230469.519532.511719 1.011719.839844 1.476563.179688.398437.394532.785156.636719 1.152343.074219.089844.183594.125.269531.207032.082032.085937.109375.210937.191406.296875l49.371094 49.367187-9.511718 14.269532-51.828126-51.828126c-.074218-.078124-.183593-.101562-.269531-.175781-.082031-.078125-.109375-.175781-.191406-.253906-.375-.257813-.769531-.480469-1.183594-.664063-.453125-.328124-.941406-.609374-1.453125-.835937-.515625-.15625-1.042968-.261719-1.578125-.3125-.515625-.105469-1.042969-.167969-1.570312-.183594-.535157.046875-1.0625.152344-1.578125.308594-.519532.085937-1.03125.226563-1.527344.414063-.496094.261718-.964844.574218-1.402344.929687-.390625.214844-.765625.464844-1.113281.746094-.085937.078125-.101563.1875-.175781.261719-.078125.074218-.179688.117187-.253906.203124-74.179688 86.488282-69.25 215.515626 11.316406 296.09375 80.566406 80.578126 209.589844 85.53125 296.09375 11.363282.085937-.066406.117187-.175782.203125-.25.082031-.074219.175781-.09375.25-.167969.277343-.347656.523437-.71875.738281-1.109375.359375-.441406.675781-.914062.941406-1.417969.1875-.492187.324219-1.003906.410156-1.527343.15625-.511719.261719-1.035157.3125-1.570313-.015624-.53125-.082031-1.0625-.195312-1.585937-.046875-.53125-.148438-1.058594-.300781-1.570313-.234375-.511719-.515625-1-.839844-1.460937-.1875-.40625-.410156-.800782-.664063-1.171876-.074218-.085937-.175781-.117187-.242187-.195312-.066406-.074219-.101563-.183594-.175781-.257812l-33.53125-33.535157c.1875-1.046875.308594-2.105469.359375-3.171875v-20.277344l45.097656 45.097657c.085937.082031.203125.109375.292969.191406.09375.085937.128906.195313.21875.277344.480468.355469 1 .652343 1.546875.890625.265625.191406.546875.363281.835937.511718.953125.382813 1.964844.582032 2.988282.589844 1.140624-.011718 2.265624-.253906 3.308593-.714844.332031-.191406.652344-.40625.957031-.636718.601563-.296875 1.167969-.671875 1.679688-1.109375.089844-.09375.117188-.210938.199219-.300781.085937-.09375.195312-.109376.269531-.203126 54.914062-64.835937 67.183594-155.660156 31.441406-232.742187-35.738281-77.085937-112.984375-126.40625-197.949218-126.386719zm92.328124 334.8125c0 4.636719-3.757812 8.394532-8.394531 8.394532h-167.871093c-4.632813 0-8.390626-3.757813-8.390626-8.394532v-184.65625h184.65625zm-177.371093-201.441406 22.382812-33.574219h125.316407l22.382812 33.574219zm143.796875-50.359375h-117.507813v-8.394531c0-4.636719 3.757813-8.394532 8.390625-8.394532h100.722656c4.636719 0 8.394532 3.757813 8.394532 8.394532zm-260.199219 135.214844c.070313-44.902344 15.199219-88.484375 42.96875-123.777344l49.359375 49.363281v191c0 13.90625 11.273438 25.179688 25.179688 25.179688h167.871093c6.164063-.019532 12.105469-2.316406 16.675781-6.453125l23.167969 23.164062c-60.570312 47.601563-143.011719 56.398438-212.261719 22.65625-69.25-33.746093-113.125-104.097656-112.960937-181.132812zm360.792969 122.804687-50.234375-50.234375v-149.03125c-.039063-.253906-.085938-.503906-.152344-.75-.121094-1.117187-.449219-2.207031-.972656-3.203125-.082031-.242187-.175781-.476562-.285157-.707031l-32.164062-48.21875v-14.269531c0-13.90625-11.273438-25.179688-25.179688-25.179688h-100.722656c-13.90625 0-25.179687 11.273438-25.179687 25.179688v14.269531l-6.90625 10.363281-40.289063-40.285156c80.042969-61.992188 193.691406-54.800781 265.285156 16.785156 71.589844 71.585938 78.789063 185.234375 16.800782 265.28125zm0 0"/><path d="m304.859375 200.921875c-3.460937 1.125-5.800781 4.347656-5.800781 7.984375 0 4.910156-7.847656 11.011719-19.421875 15.417969-.839844-.460938-1.761719-.839844-2.652344-1.277344v-14.140625c0-4.636719-3.757813-8.394531-8.394531-8.394531-4.636719 0-8.394532 3.757812-8.394532 8.394531v9.0625c-5.558593-.894531-11.226562-.894531-16.785156 0v-9.0625c0-4.636719-3.757812-8.394531-8.394531-8.394531s-8.394531 3.757812-8.394531 8.394531v14.140625c-.886719.421875-1.785156.839844-2.652344 1.277344-11.574219-4.40625-19.421875-10.507813-19.421875-15.417969.003906-3.640625-2.339844-6.867188-5.804687-7.992188-3.460938-1.121093-7.25.113282-9.386719 3.0625-11.320313 15.636719-24.265625 50.539063 3.886719 74.492188.402343 10.628906 3.734374 20.9375 9.628906 29.789062-.929688 3.171876-1.410156 6.457032-1.429688 9.761719 0 23.140625 22.589844 41.96875 50.363282 41.96875 27.773437 0 50.359374-18.828125 50.359374-41.96875-.015624-3.304687-.496093-6.589843-1.425781-9.761719 5.890625-8.851562 9.222657-19.160156 9.625-29.789062 28.152344-23.953125 15.210938-58.855469 3.886719-74.492188-2.136719-2.945312-5.929688-4.179687-9.390625-3.054687zm-108.820313 25.96875c3.84375 3.640625 8.195313 6.699219 12.925782 9.082031-5.515625 5.886719-9.757813 12.84375-12.464844 20.4375-4.464844-9.296875-4.636719-20.085937-.460938-29.519531zm55.765626 116.308594c-18.515626 0-33.574219-11.296875-33.574219-25.179688 0-13.882812 15.058593-25.179687 33.574219-25.179687 18.515624 0 33.574218 11.296875 33.574218 25.179687 0 13.882813-15.058594 25.179688-33.574218 25.179688zm0-67.148438c-14.507813-.242187-28.515626 5.292969-38.9375 15.386719-1.976563-4.890625-3.007813-10.113281-3.03125-15.386719 0-23.175781 18.789062-41.964843 41.96875-41.964843 23.175781 0 41.964843 18.789062 41.964843 41.964843-.023437 5.273438-1.050781 10.496094-3.027343 15.386719-10.425782-10.09375-24.433594-15.628906-38.9375-15.386719zm55.304687-19.640625c-2.71875-7.597656-6.972656-14.554687-12.5-20.4375 4.726563-2.382812 9.082031-5.441406 12.925781-9.082031 4.183594 9.429687 4.027344 20.21875-.425781 29.519531zm0 0"/><path d="m229.058594 312.058594c-.382813.414062-.722656.863281-1.007813 1.34375-.332031.429687-.589843.910156-.757812 1.425781-.242188.476563-.410157.988281-.503907 1.511719-.089843.554687-.148437 1.117187-.167968 1.679687-.019532 2.234375.855468 4.378907 2.433594 5.960938 1.582031 1.578125 3.730468 2.453125 5.960937 2.433593.5625-.019531 1.125-.074218 1.679687-.167968.527344-.09375 1.035157-.261719 1.511719-.503906.515625-.167969.996094-.421876 1.425781-.757813.480469-.285156.933594-.625 1.34375-1.007813 3.289063-3.289062 3.289063-8.625 0-11.917968-3.292968-3.289063-8.628906-3.289063-11.917968 0zm0 0"/><path d="m274.550781 312.058594c-.804687-.757813-1.742187-1.355469-2.769531-1.761719-1.53125-.671875-3.234375-.847656-4.871094-.503906-.523437.09375-1.035156.261719-1.507812.503906-.535156.183594-1.042969.4375-1.511719.753906l-1.261719 1.007813c-.757812.804687-1.355468 1.742187-1.761718 2.769531-.429688 1.011719-.65625 2.09375-.671876 3.191406-.019531 2.234375.855469 4.378907 2.433594 5.960938 1.582032 1.578125 3.726563 2.453125 5.960938 2.433593 1.097656-.015624 2.179687-.242187 3.191406-.671874 1.035156-.386719 1.980469-.988282 2.769531-1.765626 1.53125-1.609374 2.398438-3.734374 2.433594-5.957031-.015625-1.097656-.242187-2.179687-.671875-3.191406-.425781-1.015625-1.023438-1.953125-1.761719-2.769531zm0 0"/><path d="m242.738281 256.074219c-.183593-.535157-.4375-1.042969-.753906-1.507813-.3125-.441406-.648437-.863281-1.007813-1.261718-.816406-.738282-1.753906-1.335938-2.769531-1.761719-2.042969-.839844-4.335937-.839844-6.378906 0-1.019531.425781-1.953125 1.023437-2.769531 1.761719l-1.007813 1.261718c-.320312.464844-.574219.972656-.757812 1.507813-.242188.476562-.410157.984375-.503907 1.511719-.09375.554687-.152343 1.117187-.167968 1.679687.015625 1.097656.242187 2.179687.671875 3.1875.40625 1.027344 1.003906 1.96875 1.765625 2.769531 3.308594 3.246094 8.605468 3.246094 11.917968 0 .757813-.800781 1.355469-1.742187 1.761719-2.769531.429688-1.007813.660157-2.089844.671875-3.1875-.015625-.5625-.070312-1.125-.167968-1.679687-.089844-.527344-.261719-1.035157-.503907-1.511719zm0 0"/><path d="m276.3125 256.074219c-.183594-.535157-.4375-1.042969-.753906-1.507813-.3125-.441406-.648438-.863281-1.007813-1.261718-.816406-.738282-1.753906-1.335938-2.769531-1.761719-2.046875-.839844-4.335938-.839844-6.378906 0-1.019532.425781-1.957032 1.023437-2.773438 1.761719l-1.003906 1.261718c-.320312.464844-.574219.972656-.757812 1.507813-.242188.476562-.410157.984375-.503907 1.511719-.097656.554687-.152343 1.117187-.167969 1.679687.015626 1.097656.242188 2.179687.671876 3.1875.40625 1.027344 1.003906 1.96875 1.761718 2.769531 3.3125 3.246094 8.609375 3.246094 11.921875 0 .757813-.800781 1.355469-1.742187 1.761719-2.769531.429688-1.007813.65625-2.089844.671875-3.1875-.015625-.5625-.070313-1.125-.167969-1.679687-.09375-.527344-.261718-1.035157-.503906-1.511719zm0 0"/></svg>