<svg id="Layer_1" enable-background="new 0 0 512.032 512.032" height="512" viewBox="0 0 512.032 512.032" width="512" xmlns="http://www.w3.org/2000/svg"><g><g clip-rule="evenodd" fill="#c68a86" fill-rule="evenodd"><path d="m169.319 238.583c-26.185-18.209-50.511-38.396-81.135-40.113-53.909-3.022-95.403 48.661-70.972 97.326 16.119 32.109 57.228 54.524 81.067 76.018 39.849 35.93 157.645 68.414 176.442-12.631 18.798-81.044-64.984-92.492-105.402-120.6z"/><path d="m203.528 86.599c-36.194 40.684-9.491 101.346 43.363 112.379 30.025 6.268 58.747-6.935 88.753-17.747 46.316-16.689 130.206-6.063 133.025-89.212 2.819-83.148-119.371-82.259-167.161-57.867-28.59 14.592-74.1 25.603-97.98 52.447z"/><path d="m378.5 236.343c-20.441 22.868-23.368 54.344-29.007 85.735-8.704 48.455-59.852 115.793 10.748 159.808 70.599 44.016 130.923-62.248 133.695-115.832 1.658-32.056 14.877-76.974 3.569-111.076-17.136-51.686-83.022-58.892-119.005-18.635z"/></g><g><path d="m506.997 251.832c-8.636-26.046-28.834-44.148-55.417-49.665-29.113-6.041-59.969 4.501-80.536 27.512-19.795 22.146-24.664 51.003-29.373 78.91-.657 3.897-1.317 7.81-2.021 11.722-1.938 10.792-6.28 22.984-10.878 35.892-19.527 50.371-28.465 100.967 26.177 134.17 12.749 7.948 25.947 11.932 39.171 11.931 64.351-.216 107.909-91.228 109.802-135.732.471-9.088 1.948-19.491 3.513-30.506 3.865-27.208 8.245-58.047-.438-84.234zm-19.363 81.421c-1.63 11.47-3.169 22.304-3.685 32.285-1.721 44.122-55.647 147.283-118.418 107.863-46.863-29.217-32.804-68.694-17.918-110.489 4.882-13.706 9.492-26.651 11.723-39.065.715-3.981 1.387-7.964 2.057-11.931 4.432-26.263 8.617-51.069 24.563-68.909 15.841-17.646 39.128-25.849 61.56-21.257 19.407 4.028 34.168 17.286 40.497 36.376 7.205 21.73 3.176 50.098-.379 75.127z"/><path d="m398.931 334.17c-4.689-2.917-10.857-1.48-13.773 3.209-5.999 9.643-8.378 21.319-10.289 30.7-1.13 5.547-2.298 11.284-3.769 13.933-11.689 21.057-12.588 24.581-12.018 47.128.132 5.526 4.757 9.892 10.25 9.744 5.521-.14 9.884-4.729 9.744-10.25-.479-18.922-.479-18.922 9.51-36.916 2.967-5.343 4.382-12.292 5.88-19.647 1.675-8.219 3.572-17.536 7.674-24.128 2.917-4.689 1.48-10.856-3.209-13.773z"/><path d="m448.708 249.132c-5.411 1.103-8.904 6.384-7.802 11.796 2.843 13.951 2.843 13.951-2.204 28.635-1.665 4.843-1.809 10.558-1.961 16.607-.161 6.386-.345 13.624-2.46 18.907-1.906 4.762.214 10.365 4.806 12.659 5.168 2.582 11.616.133 13.762-5.225 3.45-8.62 3.691-18.166 3.885-25.836.103-4.07.219-8.683.882-10.611 6.049-17.597 6.6-20.912 2.888-39.129-1.103-5.413-6.385-8.905-11.796-7.803z"/><path d="m433.512 372.564c-5.487-.286-10.212 3.968-10.49 9.484-.354 7.015-2.219 11.083-4.379 15.793-2.369 5.165-5.054 11.019-5.114 19.651-.039 5.523 4.407 10.031 9.93 10.07 5.514.041 10.033-4.406 10.07-9.93.03-4.339 1.328-7.17 3.294-11.456 2.507-5.467 5.627-12.271 6.174-23.124.278-5.514-3.969-10.211-9.485-10.488z"/><path d="m213.417 250.592c-4.982-2.381-10.953-.274-13.335 4.71-2.382 4.983-.273 10.953 4.71 13.335 41.143 19.666 71.699 38.654 60.188 88.288-4.643 20.016-16.562 33.171-35.425 39.101-40.508 12.731-100.841-10.233-124.58-31.638-7.423-6.693-16.172-13.265-25.434-20.224-20.212-15.184-43.121-32.394-53.391-52.854-9.023-17.974-7.961-37.787 2.913-54.357 12.409-18.909 34.848-29.83 58.562-28.499 12.386.694 24.904 4.977 39.396 13.479 4.764 2.794 10.891 1.198 13.685-3.565 2.795-4.764 1.198-10.891-3.565-13.686-17.338-10.171-32.716-15.317-48.396-16.196-30.796-1.731-60.089 12.639-76.401 37.494-14.896 22.698-16.378 49.78-4.067 74.303 16.991 33.846 55.951 54.996 83.308 78.958 27.205 25.09 96.734 51.468 143.971 35.864 53.027-14.403 67.771-90.521 33.534-127.448-14.449-16.553-35.426-27.387-55.673-37.065z"/><path d="m150.382 294.099c7.562 1.762 15.49 7.007 22.487 11.636 6.26 4.142 12.173 8.053 18.05 9.734 19.786 5.66 19.786 5.66 32.827 19.378 4.023 4.233 11.021 4.052 14.831-.371 3.309-3.84 3.156-9.737-.335-13.409-15.541-16.348-18.668-18.205-41.822-24.828-2.913-.833-7.795-4.063-12.517-7.187-7.985-5.282-17.923-11.857-28.984-14.434-13.039-2.494-17.332 15.962-4.537 19.481z"/><path d="m96.377 289.028c-4.386-4.17-8.529-8.109-13.131-10.357-13.954-6.816-13.954-6.816-21.807-18.689-3.048-4.608-9.252-5.871-13.857-2.824-4.606 3.047-5.871 9.251-2.824 13.857 10.255 15.505 12.989 17.459 29.711 25.627 1.832.895 5.177 4.074 8.127 6.88 5.561 5.287 12.48 11.866 21.016 15.521 5.365 2.299 11.7-.621 13.468-6.167 1.543-4.842-.926-10.219-5.595-12.218-5.232-2.24-10.479-7.229-15.108-11.63z"/><path d="m159.731 332.981c-4.096-3.704-10.421-3.386-14.124.712-3.704 4.097-3.385 10.42.712 14.124 8.061 7.287 15.078 9.892 20.717 11.985 4.42 1.641 7.34 2.725 10.43 5.771 4.165 4.106 11.163 3.69 14.823-.864 3.171-3.946 2.823-9.825-.78-13.377-6.147-6.062-12.186-8.303-17.514-10.28-4.858-1.804-9.054-3.361-14.264-8.071z"/><path d="m244.848 208.767c6.068 1.267 12.06 1.824 17.99 1.824 22.489-.001 44.045-8.026 65.032-15.84 3.705-1.379 7.424-2.765 11.164-4.112 10.316-3.717 23.045-6.052 36.521-8.525 23.067-4.232 46.921-8.608 66.521-20.761 45.018-25.741 51.735-105.1 3.231-133.486-44.004-27.983-115.646-19.312-148.345-2.622-8.105 4.137-17.854 8.059-28.175 12.211-25.496 10.257-54.393 21.882-72.73 42.496-42.055 46.065-9.898 117.585 48.791 128.815zm-33.848-115.522c15.216-17.104 41.798-27.799 65.251-37.234 10.748-4.324 20.9-8.408 29.803-12.952 31.08-15.794 95.751-19.826 128.522 1.685 16.687 10.61 24.795 26.402 24.099 46.937-1.871 55.193-43.09 62.755-86.729 70.762-14.31 2.625-27.826 5.105-39.691 9.38-3.807 1.372-7.593 2.781-11.363 4.186-24.96 9.293-48.54 18.071-71.956 13.181-43.84-8.334-69.59-61.067-37.936-95.945z"/><path d="m332.639 142.72c10.816-.095 21.496-3.571 30.156-6.466 5.369-1.795 10.921-3.651 13.949-3.702 24.081-.405 27.582-1.388 46.824-13.157 4.711-2.882 6.194-9.037 3.313-13.749-2.881-4.71-9.034-6.194-13.749-3.313-16.147 9.876-16.147 9.876-36.725 10.222-13.825.437-30.467 10.69-44.688 10.15-13.254-.013-14.53 20.383.92 20.015z"/><path d="m230.355 135.152c2.355 0 4.722-.828 6.625-2.512 10.659-9.437 10.659-9.437 25.899-12.408 5.027-.98 10.049-3.713 15.365-6.606 5.61-3.053 11.97-6.514 17.603-7.324 13.053-2.409 10.358-21.162-2.846-19.797-9.191 1.322-17.578 5.886-24.317 9.554-3.576 1.946-7.63 4.152-9.631 4.542-18.265 3.561-21.411 4.741-35.331 17.063-6.836 6.088-2.508 17.455 6.633 17.488z"/><path d="m346.265 88.67c1.534 0 3.092-.354 4.55-1.101 13.51-6.829 21.478-1.515 35.443-9.501 4.803-2.728 6.484-8.832 3.757-13.634-2.728-4.803-8.834-6.484-13.634-3.756-3.773 2.143-6.874 2.434-11.568 2.875-5.988.562-13.441 1.262-23.113 6.215-9.253 4.928-5.897 18.727 4.565 18.902z"/><path d="m169.319 248.583c13.268-.529 13.258-19.476 0-20h-.007c-13.268.53-13.251 19.478.007 20z"/></g></g></svg>