<?xml version="1.0"?>
<svg xmlns="http://www.w3.org/2000/svg" 
xmlns:xlink="http://www.w3.org/1999/xlink" 
xmlns:svgjs="http://svgjs.com/svgjs" 
version="1.1" width="512" height="512" x="0" y="0" viewBox="0 0 512 512" style="enable-background:new 0 0 512 512" xml:space="preserve" class="">
<g><g xmlns="http://www.w3.org/2000/svg"><g>
<path d="m256 7.5c-137.243 0-248.5 111.257-248.5 248.5 0 32.03 6.06 62.644 17.095 90.759 36.251 92.354 126.192 142.741 231.405 142.741s195.154-50.387 231.405-142.741c11.035-28.115 17.095-58.729 17.095-90.759 0-137.243-111.257-248.5-248.5-248.5zm0 311.857c-34.991 0-63.356-28.366-63.356-63.357s28.366-63.357 63.356-63.357 63.356 28.366 63.356 63.357-28.365 63.357-63.356 63.357z" fill="#feaee1" data-original="#feaee1" class=""/>
<g><path d="m256 7.5c-5.038 0-10.036.168-15 .464 130.256 7.757 233.5 115.831 233.5 248.036s-103.244 240.279-233.5 248.036c4.964.296 9.962.464 15 .464 53.766 0 101.029-23.876 141.692-52.899 38.909-27.772 71.987-59.682 89.713-104.842 11.035-28.115 17.095-58.729 17.095-90.759 0-137.243-111.257-248.5-248.5-248.5z" fill="#fe93d3" data-original="#fe93d3"  class=""/>
</g><path d="m487.401 346.757h-2.322c-38.181 0-38.181 44-76.363 44s-38.182-44-76.363-44c-38.18 0-38.18 44-76.36 44-38.178 0-38.178-44-76.357-44s-38.179 44-76.358 44-38.179-44-76.357-44h-2.322c36.251 92.354 126.188 157.743 231.401 157.743s195.15-65.389 231.401-157.743z" fill="#ffeeaa" data-original="#d1a08f"/><path d="m487.401 346.757h-2.322c-38.181 0-38.181 44-76.363 44s-38.182-44-76.363-44c-38.18 0-38.18 44-76.36 44-38.178 0-38.178-44-76.357-44s-38.179 44-76.358 44-38.179-44-76.357-44h-2.322c36.251 92.354 126.188 157.743 231.401 157.743s195.15-65.389 231.401-157.743z" fill="#ffeeaa" data-original="#d1a08f" /><path d="m487.401 346.757h-2.322c-18.157 0-27.679 9.951-36.78 20.388-38.687 77.215-116.41 131.478-207.299 136.891.008.006.016.011.024.017 4.955.295 9.948.446 14.976.446 105.213.001 195.15-65.388 231.401-157.742z" fill="#ffeeaa" data-original="#c68d7a" /><g><path d="m409.326 201.262c-7.488 3.544-16.431.346-19.974-7.143l-20.661-43.66c-3.543-7.489-.344-16.43 7.143-19.975 7.488-3.544 16.431-.346 19.974 7.143l20.661 43.66c3.592 7.575.157 16.521-7.143 19.975z" fill="#ffffff" data-original="#ffffff" /></g><g><path d="m195.006 149.653c7.736-2.963 11.605-11.636 8.643-19.373l-17.275-45.107c-2.964-7.736-11.637-11.604-19.373-8.643-7.736 2.963-11.605 11.636-8.643 19.373l17.275 45.107c2.991 7.832 11.83 11.532 19.373 8.643z" fill="#ffffff" data-original="#ffffff"/></g><g><path d="m58.48 211.719c4.036 7.234 13.173 9.827 20.407 5.79l42.181-23.534c7.234-4.037 9.825-13.173 5.791-20.408-4.036-7.234-13.173-9.827-20.407-5.79l-42.181 23.534c-7.324 4.079-9.726 13.355-5.791 20.408z" fill="#9ce6e6" data-original="#aee69c" /></g><g><path d="m67.719 276.941c-2.517 7.893 1.841 16.331 9.733 18.848l46.018 14.676c7.893 2.516 16.33-1.842 18.849-9.734 2.517-7.893-1.841-16.331-9.733-18.848l-46.018-14.676c-7.985-2.553-16.395 2.039-18.849 9.734z" fill="#ffe179" data-original="#ffe179" /></g><g><path d="m387.809 300.423c3.85 7.335 12.917 10.16 20.253 6.31l42.769-22.448c7.335-3.851 10.158-12.918 6.31-20.253-3.85-7.335-12.917-10.16-20.253-6.31l-42.769 22.448c-7.426 3.89-10.064 13.102-6.31 20.253z" fill="#9ce6e6" data-original="#aee69c" /></g><g><path d="m273.886 123.534c-7.262-3.987-9.916-13.106-5.929-20.368l23.247-42.339c3.988-7.262 13.106-9.914 20.368-5.929 7.262 3.987 9.916 13.106 5.929 20.368l-23.247 42.339c-4.028 7.352-13.288 9.816-20.368 5.929z" fill="#ffe179" data-original="#ffe179" /></g></g><path d="m412.534 208.042c10.947-5.18 15.974-19.022 10.714-29.962l-20.661-43.661c-5.307-11.213-18.747-16.02-29.964-10.712-11.211 5.309-16.017 18.75-10.712 29.961l20.661 43.661c5.354 11.338 18.948 15.925 29.962 10.713zm-33.493-70.778c3.666-1.736 8.199-.214 9.987 3.571l20.664 43.666c1.74 3.617.045 8.27-3.574 9.982-3.735 1.768-8.218.167-9.987-3.571l-20.661-43.66c-1.768-3.737-.165-8.218 3.571-9.988zm-63.859-88.941c-10.875-5.967-24.579-1.979-30.551 8.894l-23.247 42.34c-5.962 10.7-1.904 24.623 8.894 30.552 10.592 5.816 24.771 1.836 30.552-8.894l23.247-42.339c5.943-10.712 1.75-24.713-8.895-30.553zm-4.254 23.333-23.25 42.344c-1.918 3.549-6.678 4.884-10.182 2.96-3.576-1.964-4.944-6.617-2.964-10.184l23.246-42.339c1.992-3.625 6.562-4.954 10.186-2.965 3.565 1.956 4.947 6.618 2.964 10.184zm122.474 179.425-42.764 22.445c-10.886 5.617-15.148 19.568-9.471 30.382 5.826 11.098 19.579 15.152 30.379 9.465l42.77-22.448c10.981-5.766 15.228-19.393 9.465-30.379-5.766-10.985-19.396-15.232-30.379-9.465zm13.943 26.563-42.769 22.448c-3.662 1.921-8.204.506-10.127-3.155-1.868-3.558-.432-8.272 3.155-10.126l42.769-22.448c3.665-1.922 8.205-.506 10.126 3.153 1.921 3.662.506 8.206-3.154 10.128zm33.729-143.718c-1.977-3.638-6.529-4.986-10.171-3.008-3.64 1.978-4.986 6.532-3.009 10.171 19.042 35.036 29.106 74.771 29.106 114.911 0 28.893-5.066 57.004-14.748 83.337-20.647 1.046-31.448 13.476-41.019 24.505-9.04 10.418-16.848 19.416-32.516 19.416-15.669 0-23.477-8.998-32.517-19.416-10-11.523-21.334-24.584-43.847-24.584-22.512 0-33.845 13.061-43.845 24.584-9.04 10.418-16.847 19.416-32.515 19.416-7.869 0-14.086-2.107-20.156-6.832-3.269-2.543-7.979-1.958-10.524 1.312-2.545 3.269-1.957 7.981 1.312 10.525 8.64 6.726 18.247 9.995 29.369 9.995 22.512 0 33.845-13.061 43.845-24.584 9.04-10.418 16.847-19.416 32.515-19.416 15.669 0 23.477 8.998 32.517 19.416 10 11.523 21.334 24.584 43.847 24.584 22.512 0 33.846-13.061 43.845-24.584 7.004-8.07 13.284-15.268 23.035-18.111-11.823 26.044-28.354 50.021-49.184 70.851-45.52 45.518-106.04 70.586-170.414 70.586s-124.894-25.068-170.413-70.587c-20.829-20.829-37.361-44.807-49.184-70.851 9.75 2.843 16.029 10.04 23.031 18.111 9.999 11.523 21.332 24.584 43.844 24.584s33.845-13.061 43.844-24.584c9.04-10.418 16.847-19.416 32.515-19.416 8.577 0 15.38 2.591 22.058 8.401 3.126 2.719 7.862 2.391 10.581-.735 2.719-3.125 2.39-7.862-.735-10.581-9.476-8.245-19.613-12.084-31.903-12.084-22.512 0-33.846 13.061-43.845 24.585-9.039 10.418-16.847 19.415-32.514 19.415s-23.475-8.997-32.514-19.416c-9.57-11.029-20.37-23.459-41.016-24.505-9.683-26.333-14.749-54.444-14.749-83.337 0-64.374 25.068-124.894 70.587-170.413s106.039-70.587 170.413-70.587c38.795 0 75.832 8.933 110.082 26.552 32.684 16.812 61.57 41.336 83.539 70.923 2.469 3.325 7.167 4.02 10.492 1.55 3.326-2.469 4.021-7.167 1.551-10.493-23.329-31.419-54.008-57.464-88.721-75.319-36.393-18.721-75.739-28.213-116.943-28.213-68.38 0-132.668 26.629-181.02 74.98-48.351 48.353-74.98 112.64-74.98 181.02s26.629 132.667 74.98 181.02c48.352 48.351 112.64 74.98 181.02 74.98s132.668-26.629 181.02-74.98c48.351-48.353 74.98-112.64 74.98-181.02 0-42.634-10.694-84.847-30.926-122.074zm-225.074 192.93c39.07 0 70.856-31.786 70.856-70.856s-31.786-70.856-70.856-70.856-70.856 31.786-70.856 70.856 31.786 70.856 70.856 70.856zm0-126.712c30.8 0 55.856 25.057 55.856 55.856s-25.056 55.856-55.856 55.856-55.856-25.057-55.856-55.856 25.056-55.856 55.856-55.856zm-173.458 23.915 42.181-23.534c10.831-6.044 14.729-19.775 8.687-30.611-5.979-10.722-19.959-14.696-30.611-8.687l-42.175 23.531c-10.754 5.901-14.653 19.932-8.692 30.615 5.922 10.617 19.934 14.717 30.61 8.686zm-14.616-26.198 42.181-23.534c3.551-2.009 8.216-.668 10.202 2.893 2.015 3.613.716 8.191-2.895 10.206l-42.181 23.534c-3.557 2.008-8.216.664-10.203-2.895-1.959-3.509-.644-8.259 2.896-10.204zm7.247 105.074 46.021 14.676c11.525 3.694 24.455-2.645 28.271-14.6 3.731-11.688-2.976-24.627-14.6-28.273l-46.013-14.674c-11.643-3.791-24.629 2.973-28.279 14.598-3.768 11.82 2.781 24.503 14.6 28.273zm-.309-23.716c1.22-3.827 5.583-6.118 9.424-4.866l46.02 14.676c3.879 1.216 6.109 5.536 4.867 9.422-1.259 3.94-5.488 6.126-9.425 4.868l-46.02-14.676c-3.939-1.256-6.122-5.483-4.866-9.424zm93.763-135.532c4.232 11.334 17.667 17.334 29.062 12.971 11.37-4.354 17.382-17.692 12.964-29.059l-17.275-45.107c-4.438-11.583-17.473-17.398-29.06-12.964-11.489 4.397-17.4 17.617-12.964 29.059zm1.054-60.151c3.773-1.446 8.194.407 9.688 4.321l17.275 45.107c1.472 3.786-.52 8.227-4.321 9.686-3.75 1.439-8.268-.543-9.687-4.322l-17.275-45.107c-1.48-3.804.511-8.225 4.32-9.685z" fill="#000000" data-original="#000000" style= class=""/></g></g></svg>
