<svg viewBox="0 0 511.998 511" xmlns="http://www.w3.org/2000/svg"><path d="m504.488281 267.375c0 69.667969-41.3125 147.78125-111.28125 164.347656-56.355469 13.34375-73.320312 71.675782-137.207031 71.675782-78.960938 0-115.824219-60.582032-161.339844-115.121094-33.589844-40.25-87.148437-28.195313-87.148437-120.902344 0-95.824219 80.777343-111.472656 117.960937-145.316406 43.617188-39.703125 19.367188-114.046875 130.527344-114.046875 98.765625 0 115.164062 55.128906 160.742188 106.15625 36.753906 41.148437 87.746093 44.066406 87.746093 153.207031zm0 0" fill="#efefef"/><path d="m416.742188 114.167969c-45.578126-51.027344-61.976563-106.15625-160.742188-106.15625-10.527344 0-19.832031.667969-28.101562 1.910156 73.058593 10.125 90.503906 58.8125 131.089843 104.246094 36.753907 41.148437 87.746094 44.066406 87.746094 153.207031 0 69.667969-41.3125 147.777344-111.28125 164.347656-47.875 11.335938-67.328125 55.128906-111.265625 68.054688 9.824219 2.339844 20.375 3.621094 31.8125 3.621094 63.886719 0 80.851562-58.332032 137.207031-71.675782 69.96875-16.570312 111.28125-94.679687 111.28125-164.347656 0-109.140625-50.992187-112.058594-87.746093-153.207031zm0 0" fill="#e2e2e2"/><path d="m398.957031 268.453125c0 53.097656-43.042969 96.140625-96.140625 96.140625s-96.140625-43.042969-96.140625-96.140625 43.042969-96.140625 96.140625-96.140625 96.140625 43.042969 96.140625 96.140625zm0 0" fill="#fccf3f"/><path d="m347.527344 183.328125c7.03125 13.355469 11.015625 28.566406 11.015625 44.707031 0 53.097656-43.046875 96.140625-96.140625 96.140625-16.144532 0-31.351563-3.984375-44.710938-11.015625 16.09375 30.578125 48.171875 51.433594 85.125 51.433594 53.097656 0 96.140625-43.046875 96.140625-96.140625 0-36.953125-20.851562-69.03125-51.429687-85.125zm0 0" fill="#efa335"/><path d="m260.542969 212.925781c-17.480469 13.328125-27.507813 33.566407-27.507813 55.527344 0 4.148437 3.363282 7.507813 7.511719 7.507813s7.507813-3.359376 7.507813-7.507813c0-17.234375 7.871093-33.117187 21.597656-43.582031 3.296875-2.515625 3.933594-7.226563 1.417968-10.527344-2.515624-3.300781-7.226562-3.933594-10.527343-1.417969zm0 0"/><path d="m450.886719 134.4375c-5.195313-4.054688-10.566407-8.246094-15.679688-12.695312-3.128906-2.722657-7.871093-2.394532-10.597656.734374-2.722656 3.128907-2.394531 7.875.734375 10.597657 5.417969 4.710937 10.949219 9.03125 16.296875 13.203125 29.691406 23.175781 55.335937 43.1875 55.335937 121.097656 0 33.8125-10.296874 69.5625-28.25 98.085938-13.71875 21.796874-38.253906 49.71875-77.25 58.953124-26.808593 6.347657-44.953124 21.910157-62.503906 36.960938-20.695312 17.746094-40.242187 34.511719-72.972656 34.511719-52.273438 0-85.316406-27.066407-121.6875-70.734375-2.65625-3.1875-7.390625-3.617188-10.578125-.960938-3.1875 2.652344-3.621094 7.390625-.964844 10.578125 30.679688 36.835938 68.8125 76.140625 133.230469 76.140625 38.289062 0 60.894531-19.386718 82.753906-38.132812 16.933594-14.523438 32.925782-28.238282 56.183594-33.746094 76.035156-18.003906 117.058594-101.878906 117.058594-171.65625.003906-85.242188-31.066406-109.488281-61.109375-132.9375zm0 0"/><path d="m100.429688 383.464844c-11.578126-13.871094-24.957032-21.746094-37.898438-29.359375-25.492188-15.003907-47.507812-27.960938-47.507812-86.730469 0-29.878906 8.265624-54.007812 25.277343-73.773438 15.148438-17.601562 34.855469-29.492187 53.917969-40.988281 13.484375-8.136719 26.222656-15.820312 36.308594-25 15.679687-14.273437 23.089844-32.199219 30.261718-49.539062 13.875-33.5625 25.863282-62.550781 95.210938-62.550781 74.6875 0 98.796875 31.613281 129.324219 71.636718 4.726562 6.195313 9.609375 12.601563 14.804687 19.019532 2.609375 3.226562 7.339844 3.722656 10.5625 1.113281 3.226563-2.609375 3.722656-7.339844 1.113282-10.5625-5.054688-6.25-9.875-12.570313-14.535157-18.679688-30.417969-39.882812-59.148437-77.550781-141.269531-77.550781-35.277344 0-60.996094 7.429688-78.628906 22.714844-15.832032 13.722656-23.269532 31.714844-30.464844 49.121094-6.839844 16.539062-13.296875 32.15625-26.492188 44.167968-8.992187 8.1875-21.121093 15.5-33.957031 23.246094-38.519531 23.234375-86.457031 52.148438-86.457031 127.625 0 67.363281 27.914062 83.789062 54.910156 99.675781 12.382813 7.285157 24.078125 14.171875 33.984375 26.039063 3.410157 4.085937 7.023438 8.503906 11.714844 14.328125 1.484375 1.84375 3.660156 2.796875 5.855469 2.796875 1.652344 0 3.320312-.542969 4.707031-1.660156 3.230469-2.605469 3.738281-7.332032 1.136719-10.5625-4.75-5.894532-8.414063-10.375-11.878906-14.527344zm0 0"/><path d="m302.816406 164.800781c-57.152344 0-103.652344 46.5-103.652344 103.652344s46.5 103.652344 103.652344 103.652344 103.652344-46.5 103.652344-103.652344-46.5-103.652344-103.652344-103.652344zm0 192.28125c-48.871094 0-88.628906-39.757812-88.628906-88.628906s39.757812-88.628906 88.628906-88.628906 88.628906 39.757812 88.628906 88.628906-39.757812 88.628906-88.628906 88.628906zm0 0"/></svg>