<svg height="480pt" viewBox="0 -48 480.00044 480" width="480pt" xmlns="http://www.w3.org/2000/svg"><path d="m8 216c0 88.367188 71.636719 160 160 160 88.367188 0 160-71.632812 160-160zm0 0" fill="#6b9777"/><path d="m168 344c70.691406 0 128-57.308594 128-128h-256c0 70.691406 57.308594 128 128 128zm0 0" fill="#dc4d41"/><path d="m424 104h-96l48-96zm0 0" fill="#5e8569"/><path d="m328 104h96c26.511719 0 48 21.492188 48 48v176c0 26.511719-21.488281 48-48 48h-96c-26.507812 0-48-21.488281-48-48v-176c0-26.507812 21.492188-48 48-48zm0 0" fill="#fbb540"/><path d="m320 160c-2.121094 0-4.15625-.84375-5.65625-2.34375l-16-16 11.3125-11.3125 10.34375 10.34375 10.34375-10.34375 11.3125 11.3125-16 16c-1.5 1.5-3.535156 2.34375-5.65625 2.34375zm0 0" fill="#ea9d2d"/><path d="m432 160c-2.121094 0-4.15625-.84375-5.65625-2.34375l-16-16 11.3125-11.3125 10.34375 10.34375 10.34375-10.34375 11.3125 11.3125-16 16c-1.5 1.5-3.535156 2.34375-5.65625 2.34375zm0 0" fill="#ea9d2d"/><path d="m376 160c-2.121094 0-4.15625-.84375-5.65625-2.34375l-16-16 11.3125-11.3125 10.34375 10.34375 10.34375-10.34375 11.3125 11.3125-16 16c-1.5 1.5-3.535156 2.34375-5.65625 2.34375zm0 0" fill="#ea9d2d"/><path d="m320 208c-2.121094 0-4.15625-.84375-5.65625-2.34375l-16-16 11.3125-11.3125 10.34375 10.34375 10.34375-10.34375 11.3125 11.3125-16 16c-1.5 1.5-3.535156 2.34375-5.65625 2.34375zm0 0" fill="#ea9d2d"/><path d="m264 160h23.710938c12.507812-.636719 23.839843 7.316406 27.488281 19.296875l4.800781 20.703125h-23.710938c-12.507812.640625-23.839843-7.316406-27.488281-19.296875zm0 0" fill="#6b9777"/><g fill="#ea9d2d"><path d="m432 208c-2.121094 0-4.15625-.84375-5.65625-2.34375l-16-16 11.3125-11.3125 10.34375 10.34375 10.34375-10.34375 11.3125 11.3125-16 16c-1.5 1.5-3.535156 2.34375-5.65625 2.34375zm0 0"/><path d="m376 208c-2.121094 0-4.15625-.84375-5.65625-2.34375l-16-16 11.3125-11.3125 10.34375 10.34375 10.34375-10.34375 11.3125 11.3125-16 16c-1.5 1.5-3.535156 2.34375-5.65625 2.34375zm0 0"/><path d="m432 256c-2.121094 0-4.15625-.84375-5.65625-2.34375l-16-16 11.3125-11.3125 10.34375 10.34375 10.34375-10.34375 11.3125 11.3125-16 16c-1.5 1.5-3.535156 2.34375-5.65625 2.34375zm0 0"/><path d="m432 304c-2.121094 0-4.15625-.84375-5.65625-2.34375l-16-16 11.3125-11.3125 10.34375 10.34375 10.34375-10.34375 11.3125 11.3125-16 16c-1.5 1.5-3.535156 2.34375-5.65625 2.34375zm0 0"/><path d="m432 352c-2.121094 0-4.15625-.84375-5.65625-2.34375l-16-16 11.3125-11.3125 10.34375 10.34375 10.34375-10.34375 11.3125 11.3125-16 16c-1.5 1.5-3.535156 2.34375-5.65625 2.34375zm0 0"/><path d="m376 352c-2.121094 0-4.15625-.84375-5.65625-2.34375l-16-16 11.3125-11.3125 10.34375 10.34375 10.34375-10.34375 11.3125 11.3125-16 16c-1.5 1.5-3.535156 2.34375-5.65625 2.34375zm0 0"/></g><path d="m424 104 24-88-120 88zm0 0" fill="#6b9777"/><path d="m152 168 26.121094 8.703125c13.066406 4.355469 21.878906 16.585937 21.878906 30.359375v16.9375l-26.121094-8.703125c-13.066406-4.355469-21.878906-16.585937-21.878906-30.359375zm0 0" fill="#85bc94"/><path d="m200.839844 267.578125-8-16c-.167969-.339844-.3125-.691406-.429688-1.050781-5.828125-17.585938.804688-36.898438 16.207032-47.199219l2.941406-1.96875 8.882812 13.3125-2.945312 1.96875c-9.253906 6.183594-13.347656 17.707031-10.070313 28.34375l7.734375 15.457031zm0 0" fill="#a45e14"/><path d="m72 240h16v16h-16zm0 0" fill="#a8a8a8"/><path d="m120 240h16v16h-16zm0 0" fill="#a8a8a8"/><path d="m96 272h16v16h-16zm0 0" fill="#a8a8a8"/><path d="m328 104-24-88 112 88zm0 0" fill="#85bc94"/><path d="m184 248c-33.84375.117188-61.746094 26.570312-63.671875 60.359375-1.925781 33.792969 22.792969 63.242187 56.410156 67.199219 11.558594-.605469 23.015625-2.46875 34.175781-5.550782 27.179688-12.667968 41.917969-42.511718 35.457032-71.792968-6.457032-29.285156-32.382813-50.15625-62.371094-50.214844zm0 0" fill="#5e8569"/><path d="m184 248c-21.355469-.007812-41.308594 10.636719-53.195312 28.382812-11.886719 17.742188-14.136719 40.246094-6.003907 59.992188 41.742188 15.164062 88.375 7.4375 123-20.375.078125-1.328125.199219-2.640625.199219-4 0-35.347656-28.652344-64-64-64zm0 0" fill="#c7463b"/><path d="m152 312c0 35.347656-28.652344 64-64 64s-64-28.652344-64-64zm0 0" fill="#fd9226"/><path d="m88 344c17.671875 0 32-14.328125 32-32h-64c0 17.671875 14.328125 32 32 32zm0 0" fill="#fdbb35"/><path d="m152 312h-32c-.003906 15.558594 5.6875 30.582031 16 42.230469 10.316406-11.648438 16.007812-26.671875 16-42.230469zm0 0" fill="#f08b24"/><path d="m264 312c0 35.347656-28.652344 64-64 64s-64-28.652344-64-64 28.652344-64 64-64 64 28.652344 64 64zm0 0" fill="#fd9226"/><path d="m168 288h16v16h-16zm0 0" fill="#e68523"/><path d="m200 304h16v16h-16zm0 0" fill="#e68523"/><path d="m176 328h16v16h-16zm0 0" fill="#e68523"/><path d="m264 312c-.027344-29.089844-19.671875-54.5-47.816406-61.855469 0 .632813-.183594 1.222657-.183594 1.855469 0 28.933594 6.738281 57.472656 19.679688 83.351562l10.464843 20.929688c11.460938-11.890625 17.863281-27.765625 17.855469-44.28125zm0 0" fill="#f08b24"/><path d="m342.402344 376c-4.113282 0-8.054688-1.628906-10.960938-4.535156l-19.441406-19.464844-19.464844 19.464844c-2.902344 2.898437-6.832031 4.53125-10.933594 4.535156-5.871093-.003906-11.234374-3.320312-13.863281-8.566406l-16-32.082032c-12.964843-25.875-19.722656-54.410156-19.738281-83.351562 0-19.882812 16.117188-36 36-36 7.789062 0 15.367188 2.527344 21.601562 7.199219l6.757813 5.074219c9.269531 6.949218 22.011719 6.949218 31.28125 0l6.761719-5.074219c6.230468-4.671875 13.808594-7.199219 21.597656-7.199219 19.882812 0 36 16.117188 36 36 0 28.933594-6.738281 57.472656-19.679688 83.351562l-16 32.082032c-2.636718 5.265625-8.03125 8.582031-13.917968 8.566406zm0 0" fill="#b9dd33"/><path d="m312 264c-4.417969 0-8-3.582031-8-8v-14.0625c-.066406-23.867188 9.417969-46.765625 26.34375-63.59375 3.140625-3.03125 8.128906-2.988281 11.214844.097656 3.085937 3.085938 3.128906 8.074219.097656 11.214844-13.914062 13.835938-21.710938 32.660156-21.65625 52.28125v14.0625c0 4.417969-3.582031 8-8 8zm0 0" fill="#8d7761"/><path d="m312 267.863281c-9.015625.015625-17.972656-1.429687-26.527344-4.277343-4.199218-1.398438-6.46875-5.933594-5.070312-10.128907 1.394531-4.199219 5.929687-6.46875 10.125-5.074219 13.945312 4.609376 29 4.609376 42.945312 0 4.195313-1.394531 8.730469.875 10.128906 5.074219 1.394532 4.195313-.875 8.730469-5.074218 10.128907-8.554688 2.847656-17.511719 4.292968-26.527344 4.277343zm0 0" fill="#a8c92e"/><path d="m434.207031 96.976562 21.511719-78.871093c.898438-3.285157-.378906-6.773438-3.183594-8.703125-2.800781-1.925782-6.519531-1.871094-9.261718.140625l-42.105469 30.898437-17.96875-36.015625c-1.359375-2.726562-4.152344-4.441406-7.199219-4.425781-3.027344 0-5.796875 1.710938-7.152344 4.417969l-18.824218 37.597656-41.078126-32.277344c-2.714843-2.136719-6.488281-2.289062-9.367187-.382812-2.875 1.90625-4.207031 5.441406-3.296875 8.773437l21.511719 78.871094c-26.503907 4.941406-45.738281 28.042969-45.792969 55h-8c-2.441406 0-4.753906 1.113281-6.269531 3.027344-1.519531 1.914062-2.078125 4.417968-1.523438 6.796875l4.800781 20.695312c1.691407 6.703125 5.554688 12.652344 10.992188 16.921875v8.558594h-56l-4.441406-6.65625-2.941406 1.96875c-.3125.207031-.5625.472656-.855469.679688-1.179688-16.027344-11.871094-29.78125-27.113281-34.878907l-26.121094-8.695312c-2.4375-.8125-5.117188-.40625-7.203125 1.097656-2.085938 1.5-3.320313 3.914063-3.324219 6.484375v16.9375c.003906 8.261719 2.566406 16.316406 7.335938 23.0625h-143.335938c-4.417969 0-8 3.582031-8 8-.0703125 31.085938 8.566406 61.570312 24.9375 88h-.9375c-4.417969 0-8 3.582031-8 8 .042969 39.746094 32.253906 71.957031 72 72 10.863281-.019531 21.574219-2.527344 31.3125-7.335938 21.984375 6.792969 45.148438 8.902344 68 6.183594 24.242188 4.402344 49.042969-3.964844 65.664062-22.152344.273438-.246093.527344-.515624.761719-.800781.285157-.316406.503907-.652343.796875-.972656l6.023438 12.046875c3.378906 6.746094 9.792968 11.457031 17.238281 12.667969 7.449219 1.210937 15.023437-1.230469 20.363281-6.554688l1.175782-1.175781c8.648437 5.238281 18.554687 8.035156 28.664062 8.09375h96c30.914062-.035156 55.964844-25.085938 56-56v-176c-.042969-26.96875-19.28125-50.082031-45.792969-55.023438zm-16.160156-1.542968-31.292969-24.585938 47.503906-34.847656zm-42.046875-69.5625 12.082031 24.167968-14.402343 10.554688-10.808594-8.511719zm16.871094 70.128906h-58.757813l-16-58.757812zm-116.246094 82.878906-2.542969-10.878906h13.597657c8.773437-.601562 16.851562 4.789062 19.664062 13.121094l2.578125 10.878906h-13.601563c-8.785156.617188-16.878906-4.777344-19.695312-13.121094zm19.664062 29.121094h14.335938c-2.148438 5.246094-3.785156 10.6875-4.898438 16.25-1.628906-.574219-3.167968-1.382812-4.566406-2.402344l-6.757812-5.046875c-2.015625-1.503906-4.15625-2.824219-6.402344-3.953125v-5.832031c2.71875.621094 5.5.949219 8.289062.984375zm-71.609374 36.535156c-5.84375-2.148437-11.941407-3.527344-18.144532-4.101562-.648437-5.761719.71875-11.566406 3.867188-16.433594h23.726562c-4.890625 5.902344-8.148437 12.984375-9.449218 20.535156zm-80.679688 112.511719c2.996094 3.753906 6.367188 7.191406 10.054688 10.265625-5.785157-.535156-11.535157-1.398438-17.222657-2.585938 2.578125-2.375 4.976563-4.941406 7.167969-7.679687zm-15.527344-53.046875h-42.070312c-.738282-.679688-1.507813-1.351562-2.210938-2.054688-3.359375-3.359374-6-6.21875-8.34375-9.03125-2.007812-2.402343-3.871094-4.800781-5.855468-7.640624-.625-.800782-1.183594-1.601563-2.097657-3.03125-.746093-1.027344-1.433593-2.097657-2.0625-3.203126l-.488281-.796874c-.96875-1.601563-1.941406-3.28125-2.953125-5.203126-1.007813-1.917968-1.957031-3.628906-2.933594-5.742187-.523437-1-.980469-2.03125-1.375-3.089844-.097656-.253906-.203125-.511719-.320312-.757812-.6875-1.449219-1.234375-2.90625-1.90625-4.738281-.496094-1.207032-.992188-2.460938-1.375-3.597657l-.527344-1.601562c-.289063-.855469-.578125-1.703125-.863281-2.800781l-2.304688-8.796876c-.359375-1.648437-.722656-3.296874-.960937-4.683593-.105469-.796875-.222657-1.597657-.390625-2.316407-.265625-1.769531-.472656-3.632812-.738282-5.914062-.125-1.335938-.261718-2.617188-.367187-4.375 0-.199219 0-.417969 0-.617188h126.359375l16.503906 5.496094c-.71875 3.6875-.929687 7.457032-.621094 11.199219-32.761718 4.371094-58.355468 30.457031-62.097656 63.296875zm-17.839844 16c-3.386718 9.597656-12.457031 16.011719-22.632812 16.011719s-19.246094-6.414063-22.632812-16.011719zm49.367188-140.894531 15.59375 5.183593c9.800781 3.269532 16.410156 12.441407 16.40625 22.773438v5.832031l-15.589844-5.183593c-9.804687-3.265626-16.414062-12.441407-16.410156-22.773438zm-143.800781 44.894531h16.089843c.039063.609375.0625 1.265625.121094 1.839844.085938 1.601562.238282 3.199218.46875 5.503906.25 2.105469.496094 4.265625.800782 6.351562 0 .136719.152343.722657.175781.847657l.167969 1.136719c.320312 1.863281.722656 3.738281 1.21875 6.03125l2.445312 9.28125c.304688 1.175781.695312 2.359374 1.089844 3.535156l.503906 1.535156c.535156 1.601562 1.160156 3.203125 1.664062 4.425781.6875 1.878907 1.375 3.679688 2.199219 5.464844.554688 1.460937 1.1875 2.894531 1.894531 4.289063 1.058594 2.261718 2.183594 4.445312 3.289063 6.398437s2.144531 3.847656 3.25 5.734375l.46875.800781c.796875 1.40625 1.679687 2.761719 2.648437 4.054688.738282 1.222656 1.539063 2.402343 2.402344 3.539062 2.054688 2.917969 4.191406 5.734375 6.472656 8.421875.214844.265625.476563.546875.703126.800782h-20.105469c-16.796875-23.433594-26.503907-51.199219-27.96875-79.992188zm98.464843 137.167969c-8.148437 4.542969-17.335937 6.898437-26.664062 6.832031-27.824219-.035156-51.417969-20.464844-55.429688-48h16.230469c3.785157 18.644531 20.175781 32.039062 39.199219 32.039062s35.414062-13.394531 39.199219-32.039062h1.28125c.890625 7.769531 3.050781 15.335938 6.398437 22.398438-4.867187 7.636718-11.539062 13.957031-19.429687 18.402343-.269531.105469-.53125.226563-.785157.367188zm127.679688-12.488281c-.226562.199218-.441406.414062-.640625.640624-12.125 13.601563-30.121094 20.441407-48.21875 18.324219-18.101563-2.113281-34.035156-12.917969-42.699219-28.949219-.210937-.535156-.476562-1.046874-.800781-1.527343-10.910156-21.410157-6.890625-47.402344 9.972656-64.519531 16.863281-17.117188 42.792969-21.523438 64.363281-10.9375 1.359376 26.859374 8.25 53.144531 20.230469 77.21875l2.035157 4.070312c-1.285157 1.984375-2.703126 3.882812-4.242188 5.679688zm32.527344 15.199218-16.039063-32.070312c-12.355469-24.792969-18.804687-52.109375-18.832031-79.808594 0-10.605469 5.992188-20.300781 15.476562-25.042969 9.488282-4.742187 20.839844-3.71875 29.324219 2.644531l6.757813 5.070313c3.730468 2.757813 7.992187 4.710937 12.515625 5.738281 0 .511719-.074219 1.015625-.074219 1.527344v9.261719c-4.574219-.476563-9.089844-1.417969-13.472656-2.816407-4.195313-1.394531-8.730469.875-10.125 5.074219-1.398438 4.195313.871094 8.730469 5.070312 10.128907 17.226563 5.703124 35.832032 5.703124 53.054688 0 4.199218-1.398438 6.46875-5.933594 5.074218-10.128907-1.398437-4.199219-5.933593-6.46875-10.128906-5.074219-4.382812 1.398438-8.898437 2.339844-13.472656 2.816407v-9.261719c0-.527344.0625-1.042969.082031-1.601562 4.464844-1.035157 8.671875-2.972657 12.359375-5.695313l6.757813-5.039063c8.484375-6.363281 19.835937-7.386718 29.324219-2.644531 9.484374 4.742188 15.476562 14.4375 15.476562 25.042969-.03125 27.691406-6.480469 54.996094-18.832031 79.777344l-16.039063 32.070312c-1.148437 2.078125-3.183594 3.511719-5.523437 3.894532-2.34375.382812-4.730469-.332032-6.476563-1.933594l-19.464844-19.464844c-3.125-3.121094-8.1875-3.121094-11.3125 0l-19.472656 19.464844c-1.746094 1.609375-4.136718 2.324218-6.480468 1.941406s-4.382813-1.820312-5.527344-3.902344zm37.128906-.566406 2.183594 2.183594c-1.03125-.382813-2.023438-.871094-3.023438-1.34375zm152-35.3125c-.027344 22.082031-17.917969 39.972656-40 40h-59.054688l8.269532-16.542969c2.921875 1.152344 6.246094.441407 8.441406-1.800781l16-16-11.03125-11.03125c8.785156-22.511719 13.320312-46.457031 13.375-70.625 0-16.664062-9.414062-31.902344-24.320312-39.355469-14.910157-7.453125-32.746094-5.84375-46.078126 4.15625l-6.761718 5.0625h-.046875c3.40625-12.195312 9.902343-23.300781 18.863281-32.246093 3.03125-3.140626 2.988281-8.128907-.097656-11.214844-3.085938-3.085938-8.074219-3.128906-11.214844-.097656l-5.824219 5.824218-1.597656-6.6875c-4.5-15.4375-18.851563-25.890625-34.921875-25.441406.027344-22.082031 17.921875-39.972656 40-40h96c22.082031.027344 39.972656 17.917969 40 40zm0 0"/><path d="m320 140.6875-10.34375-10.34375-11.3125 11.3125 16 16c3.125 3.125 8.1875 3.125 11.3125 0l16-16-11.3125-11.3125zm0 0"/><path d="m432 140.6875-10.34375-10.34375-11.3125 11.3125 16 16c3.125 3.125 8.1875 3.125 11.3125 0l16-16-11.3125-11.3125zm0 0"/><path d="m376 140.6875-10.34375-10.34375-11.3125 11.3125 16 16c3.125 3.125 8.1875 3.125 11.3125 0l16-16-11.3125-11.3125zm0 0"/><path d="m432 188.6875-10.34375-10.34375-11.3125 11.3125 16 16c3.125 3.125 8.1875 3.125 11.3125 0l16-16-11.3125-11.3125zm0 0"/><path d="m376 188.6875-10.34375-10.34375-11.3125 11.3125 16 16c3.125 3.125 8.1875 3.125 11.3125 0l16-16-11.3125-11.3125zm0 0"/><path d="m432 236.6875-10.34375-10.34375-11.3125 11.3125 16 16c3.125 3.125 8.1875 3.125 11.3125 0l16-16-11.3125-11.3125zm0 0"/><path d="m432 284.6875-10.34375-10.34375-11.3125 11.3125 16 16c3.125 3.125 8.1875 3.125 11.3125 0l16-16-11.3125-11.3125zm0 0"/><path d="m432 332.6875-10.34375-10.34375-11.3125 11.3125 16 16c3.125 3.125 8.1875 3.125 11.3125 0l16-16-11.3125-11.3125zm0 0"/><path d="m168 288h16v16h-16zm0 0"/><path d="m200 304h16v16h-16zm0 0"/><path d="m176 328h16v16h-16zm0 0"/><path d="m72 240h16v16h-16zm0 0"/><path d="m120 240h16v16h-16zm0 0"/><path d="m96 272h16v16h-16zm0 0"/></svg>