<?xml version="1.0"?>
<svg xmlns="http://www.w3.org/2000/svg" xmlns:xlink="http://www.w3.org/1999/xlink" xmlns:svgjs="http://svgjs.com/svgjs" version="1.1" width="512" height="512" x="0" y="0" viewBox="0 0 512.00004 512" style="enable-background:new 0 0 512 512" xml:space="preserve" class=""><g transform="matrix(-0.97,0,0,0.9700000000000001,504.3193506610394,114.93956084251406)"><path xmlns="http://www.w3.org/2000/svg" d="m462.175781 321c0-18.347656-14.875-33.21875-33.21875-33.21875h-33.609375c-7.351562 0-13.222656-5.757812-13.773437-13.089844-2.113281-28.164062-16.070313-55.585937-42.117188-74.078125-33.847656-24.027343-80.347656-24.085937-114.195312-.066406-40.554688 28.78125-51.988281 79.246094-34.625 120.453125zm0 0" fill="#49c3ff" data-original="#b67f5f" class=""/><path xmlns="http://www.w3.org/2000/svg" d="m299.933594 170.746094-129.1875 129.1875c-6.484375 6.484375-6.484375 17 0 23.488281 6.488281 6.484375 17.003906 6.484375 23.488281 0l129.1875-129.1875c6.484375-6.484375 6.484375-17 0-23.488281-6.488281-6.484375-17.003906-6.484375-23.488281 0zm0 0" fill="#49c3ff" data-original="#b67f5f"  class=""/><path xmlns="http://www.w3.org/2000/svg" d="m166.414062 292.523438-165.511718-282.96875c-3.285156-5.617188 3.035156-11.9375 8.652344-8.652344l282.96875 165.511718zm0 0" fill="#f7d291" data-original="#f7d291"  class=""/><path xmlns="http://www.w3.org/2000/svg" d="m206.945312 216.757812 63.347657-63.347656 22.230469 13.003906-126.109376 126.109376-165.511718-282.96875c-1.328125-2.273438-1.078125-4.675782.058594-6.496094l181.605468 212.742187c6.292969 7.367188 17.527344 7.808594 24.378906.957031zm0 0" fill="#f0c382" data-original="#f0c382" class=""/><path xmlns="http://www.w3.org/2000/svg" d="m34.785156 67.484375h16.089844v27.503906l16.605469 28.394531v-6.574218h32.722656v32.71875h-17.429687l9.714843 16.609375h7.714844v13.1875l21.136719 36.136719h28.1875v32.714843h-9.054688l25.660156 43.871094v-27.265625h28.023438l21.300781-21.300781v-28.019531h28.019531l21.304688-21.304688v-28.019531h27.265625l-43.875-25.660157v9.054688h-32.71875v-28.191406l-36.132813-21.136719h-13.1875v-7.710937l-16.605468-9.714844v17.429687h-32.71875v-32.722656h6.574218l-28.390624-16.605469h-27.511719v-16.089844l-16.605469-9.714843v25.804687h-25.800781zm164.0625 82.042969h-32.714844v-32.71875h32.714844zm16.609375 49.324218v-32.71875h32.71875v32.71875zm-16.609375 0h-32.714844v-32.71875h32.714844zm-32.714844 16.605469h32.714844v32.714844h-32.714844zm-49.324218-49.324219h32.71875v32.71875h-32.71875zm0-49.324218h32.71875v32.71875h-32.71875zm-49.328125-49.324219 32.722656-.003906v32.722656h-32.722656zm0 0" fill="#f0c382" data-original="#f0c382"  class=""/><path xmlns="http://www.w3.org/2000/svg" d="m166.132812 292.046875-25.660156-43.875h9.054688v-32.714844h-28.1875l-21.136719-36.132812v-13.191407h-7.714844l-9.714843-16.605468h17.429687v-30.214844l16.605469 19.453125v10.761719h9.183594l14.179687 16.605468h-23.363281v32.71875h32.71875v-21.757812l16.609375 19.453125v2.304687h1.964843l14.175782 16.605469h-16.140625v32.714844h32.714843v-26.957031c2.953126-.664063 5.78125-2.140625 8.09375-4.453125l17.90625-17.910157h23.324219v-23.320312l22.117188-22.121094 21.753906 12.722656h-27.265625v28.023438l-21.300781 21.300781h-28.023438v28.023438l-21.300781 21.300781h-28.019531v27.265625zm0 0" fill="#e3aa75" data-original="#e3aa75"  class=""/><path xmlns="http://www.w3.org/2000/svg" d="m67.480469 80.984375v19.21875h16.40625l14.175781 16.605469h-30.582031v6.574218l-16.605469-28.394531v-27.503906h-16.089844l-9.710937-16.609375h16.707031zm0 0" fill="#e3aa75" data-original="#e3aa75"  class=""/><path xmlns="http://www.w3.org/2000/svg" d="m288.1875 159.003906-129.183594 129.183594c-3.242187 3.242188-3.242187 8.503906 0 11.746094 3.242188 3.242187 8.5 3.242187 11.742188 0l129.1875-129.1875c3.242187-3.242188 3.242187-8.5 0-11.742188-3.242188-3.246094-8.5-3.246094-11.746094 0zm0 0" fill="#f7d291" data-original="#f7d291"  class=""/><path xmlns="http://www.w3.org/2000/svg" d="m211.851562 247.085938c3.242188 3.242187 8.5 3.242187 11.746094 0l-52.851562 52.847656c-3.242188 3.242187-8.5 3.242187-11.742188 0-3.242187-3.242188-3.242187-8.5 0-11.742188l52.847656-52.851562c-3.242187 3.242187-3.242187 8.5 0 11.746094zm0 0" fill="#f0c382" data-original="#f0c382"  class=""/><path xmlns="http://www.w3.org/2000/svg" d="m229.34375 292.0625.605469-.714844c-.324219.011719-.5.300782-.605469.714844zm0 0" fill="#ff8087" data-original="#ff8087"  class=""/><path xmlns="http://www.w3.org/2000/svg" d="m503.695312 312.695312s-210.238281.710938-262.429687.261719c-7.824219-.066406-15.21875-3.71875-19.867187-10.015625-7.347657-10.007812-6.292969-23.878906 2.484374-32.65625l99.539063-99.539062c-6.496094-6.363282-17.042969-6.507813-23.484375-.0625l-.457031.457031c-14.082031 14.082031-68.589844 68.871094-104.289063 104.570313-7.75 7.75-18.230468 12.074218-29.1875 12.074218h-19.398437c-13.613281 0-25.222657 8.222656-30.332031 19.953125-1.3125 3.011719-4.265626 4.957031-7.546876 4.957031h-11.945312c-4.585938 0-8.304688 3.71875-8.304688 8.304688s3.71875 8.304688 8.304688 8.304688h406.914062c4.585938 0 8.304688-3.71875 8.304688-8.304688s-3.71875-8.304688-8.304688-8.304688zm0 0" fill="#00b7ff" data-original="#a06e50"  class=""/></g></svg>
