<svg id="icons" enable-background="new 0 0 64 64" height="512" viewBox="0 0 64 64" width="512" xmlns="http://www.w3.org/2000/svg"><g fill="#656d78"><path d="m51.801 47.55c-2.93 2.94-7.689 2.93-10.62 0-2.93-2.93-2.93-7.689 0-10.62l.011.01c.59-.579 1.54-.579 2.13 0 .58.591.58 1.54 0 2.131h-.011c-1.75 1.76-1.75 4.6 0 6.359 1.761 1.76 4.61 1.76 6.37 0l-.04-.04c2.03-2.04 3.051-4.71 3.051-7.38 1.999 2.92 1.709 6.95-.891 9.54z"/><path d="m36.951 51.79c-5.271-5.271-5.271-13.811 0-19.09 2.93-2.931 7.67-2.931 10.609 0 2.931 2.93 2.931 7.68 0 10.609h-.01c-.58.591-1.53.591-2.12 0-.59-.58-.58-1.529 0-2.12 1.761-1.76 1.761-4.609 0-6.359-1.76-1.76-4.6-1.76-6.359 0-4.101 4.1-4.101 10.74 0 14.84 4.1 4.1 10.75 4.1 14.85 0s4.1-10.75 0-14.85c-.77-.771-1.63-1.391-2.54-1.87-.46-.83-1.04-1.61-1.75-2.32-.77-.77-1.62-1.39-2.53-1.87 3.25.15 6.46 1.46 8.94 3.94 5.28 5.279 5.28 13.819 0 19.09-5.27 5.28-13.82 5.28-19.09 0z"/><path d="m41.181 47.55c2.931 2.93 7.69 2.94 10.62 0 2.601-2.59 2.891-6.62.891-9.54 0 2.67-1.021 5.34-3.051 7.38l.04.04c-1.76 1.76-4.609 1.76-6.37 0-1.75-1.76-1.75-4.6 0-6.359h.011c.58-.591.58-1.54 0-2.131-.59-.579-1.54-.579-2.13 0l-.011-.01c-2.93 2.93-2.93 7.69 0 10.62zm-6.35-16.97c6.45-6.45 16.89-6.45 23.33 0 6.45 6.45 6.45 16.89 0 23.34-6.44 6.44-16.88 6.44-23.33 0-6.45-6.45-6.45-16.89 0-23.34zm12.73 2.12c-2.939-2.931-7.68-2.931-10.609 0-5.271 5.279-5.271 13.819 0 19.09 5.27 5.28 13.819 5.28 19.09 0 5.28-5.271 5.28-13.811 0-19.09-2.48-2.48-5.69-3.79-8.94-3.94.91.48 1.761 1.101 2.53 1.87.71.71 1.29 1.49 1.75 2.32.91.479 1.771 1.1 2.54 1.87 4.1 4.1 4.1 10.75 0 14.85s-10.75 4.1-14.85 0c-4.101-4.1-4.101-10.74 0-14.84 1.76-1.76 4.6-1.76 6.359 0 1.761 1.75 1.761 4.6 0 6.359-.58.591-.59 1.54 0 2.12.59.591 1.54.591 2.12 0h.01c2.93-2.929 2.93-7.679 0-10.609z"/><path d="m17.501 14.25c4.14 0 7.51 3.36 7.51 7.51 0 4.141-3.37 7.51-7.51 7.51v-.02c-.83 0-1.5-.67-1.5-1.5s.67-1.5 1.5-1.5c2.49 0 4.5-2.021 4.5-4.5 0-2.49-2.01-4.5-4.5-4.5v.06c-2.88 0-5.5 1.17-7.38 3.061v-.01c.65-3.481 3.71-6.111 7.38-6.111z"/><path d="m4.001 21.75c0-7.46 6.04-13.5 13.5-13.5s13.5 6.04 13.5 13.5-6.04 13.5-13.5 13.5c-4.14 0-7.5-3.35-7.5-7.5s3.36-7.51 7.5-7.51v.01c.83 0 1.5.67 1.5 1.5s-.67 1.5-1.5 1.5c-2.49 0-4.5 2.01-4.5 4.5s2.01 4.5 4.5 4.5c5.8 0 10.5-4.7 10.5-10.5s-4.7-10.5-10.5-10.5-10.5 4.7-10.5 10.5c0 1.09.16 2.12.47 3.11v.01c-.27.91-.41 1.88-.41 2.88 0 1.08.16 2.13.471 3.11-2.191-2.4-3.531-5.6-3.531-9.11z"/><path d="m1.001 21.75c0-9.12 7.38-16.5 16.5-16.5 9.11 0 16.5 7.38 16.5 16.5 0 9.11-7.39 16.5-16.5 16.5-9.12 0-16.5-7.39-16.5-16.5zm16.5 10.5c-2.49 0-4.5-2.01-4.5-4.5s2.01-4.5 4.5-4.5c.83 0 1.5-.67 1.5-1.5s-.67-1.5-1.5-1.5v-.01c-4.14 0-7.5 3.359-7.5 7.51s3.36 7.5 7.5 7.5c7.46 0 13.5-6.04 13.5-13.5s-6.04-13.5-13.5-13.5-13.5 6.04-13.5 13.5c0 3.51 1.34 6.71 3.53 9.11-.311-.98-.471-2.03-.471-3.11 0-1 .141-1.97.41-2.88v-.01c-.31-.99-.47-2.021-.47-3.11 0-5.8 4.7-10.5 10.5-10.5s10.5 4.7 10.5 10.5-4.699 10.5-10.499 10.5zm-1.5-4.5c0 .83.67 1.5 1.5 1.5v.02c4.14 0 7.51-3.369 7.51-7.51 0-4.149-3.37-7.51-7.51-7.51-3.67 0-6.73 2.63-7.38 6.11v.01c1.88-1.891 4.5-3.061 7.38-3.061v-.06c2.49 0 4.5 2.01 4.5 4.5 0 2.479-2.01 4.5-4.5 4.5-.83.001-1.5.671-1.5 1.501z"/></g><path d="m17.5 30.268c-.553 0-1-.447-1-1s.447-1 1-1c3.59 0 6.51-2.921 6.51-6.511s-2.92-6.51-6.51-6.51c-3.132 0-5.822 2.229-6.398 5.303-.101.542-.615.903-1.167.798-.542-.102-.9-.624-.798-1.167.752-4.018 4.27-6.934 8.363-6.934 4.692 0 8.51 3.817 8.51 8.51s-3.818 8.511-8.51 8.511z"/><path d="m17.502 33.249c-3.032 0-5.499-2.468-5.499-5.5s2.467-5.5 5.499-5.5c.553 0 1 .447 1 1s-.447 1-1 1c-1.93 0-3.499 1.57-3.499 3.5s1.569 3.5 3.499 3.5c.553 0 1 .447 1 1s-.447 1-1 1z"/><path d="m17.502 36.253c-4.689 0-8.502-3.815-8.502-8.504s3.813-8.504 8.502-8.504c.553 0 1 .447 1 1s-.447 1-1 1c-3.585 0-6.502 2.918-6.502 6.504s2.917 6.504 6.502 6.504c.553 0 1 .447 1 1s-.447 1-1 1z"/><path d="m17.502 39.191c-6.308 0-11.439-5.133-11.439-11.442s5.132-11.442 11.439-11.442c.553 0 1 .447 1 1s-.447 1-1 1c-5.205 0-9.439 4.235-9.439 9.442s4.234 9.442 9.439 9.442c.553 0 1 .447 1 1s-.447 1-1 1z"/><path d="m17.499 30.25c-1.379 0-2.501-1.122-2.501-2.502 0-1.379 1.122-2.501 2.501-2.501.553 0 1 .447 1 1s-.447 1-1 1c-.276 0-.501.225-.501.501s.225.502.501.502c.553 0 1 .447 1 1s-.447 1-1 1z"/><path d="m17.502 27.249c-.553 0-1-.447-1-1s.447-1 1-1c1.93 0 3.499-1.57 3.499-3.5s-1.569-3.5-3.499-3.5c-.553 0-1-.447-1-1s.447-1 1-1c3.032 0 5.499 2.468 5.499 5.5s-2.467 5.5-5.499 5.5z"/><path d="m17.505 24.251c-.553 0-1-.447-1-1s.447-1 1-1c.276 0 .501-.225.501-.501s-.225-.502-.501-.502c-.553 0-1-.447-1-1s.447-1 1-1c1.379 0 2.501 1.122 2.501 2.502 0 1.379-1.122 2.501-2.501 2.501z"/><path d="m17.499 33.249c-.553 0-1-.447-1-1s.447-1 1-1c5.238 0 9.5-4.262 9.5-9.5s-4.262-9.5-9.5-9.5-9.5 4.262-9.5 9.5c0 .965.144 1.916.427 2.826.164.527-.131 1.088-.658 1.252-.529.163-1.088-.132-1.252-.658-.343-1.103-.517-2.254-.517-3.42 0-6.341 5.159-11.5 11.5-11.5s11.5 5.159 11.5 11.5-5.159 11.5-11.5 11.5z"/><path d="m17.499 36.249c-.553 0-1-.447-1-1s.447-1 1-1c6.893 0 12.5-5.607 12.5-12.5s-5.607-12.5-12.5-12.5-12.5 5.607-12.5 12.5c0 3.13 1.162 6.125 3.271 8.433.372.407.344 1.04-.063 1.413-.408.371-1.04.345-1.413-.063-2.447-2.677-3.795-6.151-3.795-9.782 0-7.995 6.505-14.5 14.5-14.5s14.5 6.505 14.5 14.5-6.505 14.499-14.5 14.499z"/><path d="m17.499 39.249c-9.649 0-17.5-7.851-17.5-17.5s7.851-17.5 17.5-17.5 17.5 7.851 17.5 17.5-7.851 17.5-17.5 17.5zm0-33c-8.547 0-15.5 6.953-15.5 15.5s6.953 15.5 15.5 15.5 15.5-6.953 15.5-15.5-6.953-15.5-15.5-15.5z"/><path d="m46.493 50.75c-2.18 0-4.358-.829-6.018-2.488-3.318-3.319-3.318-8.718-.001-12.035.391-.391 1.023-.391 1.414 0s.391 1.023 0 1.414c-2.537 2.538-2.537 6.668.001 9.207 2.539 2.537 6.667 2.537 9.206 0 2.214-2.214 2.54-5.694.775-8.274-.312-.456-.195-1.078.261-1.39.457-.312 1.079-.194 1.39.261 2.308 3.374 1.883 7.923-1.012 10.817-1.657 1.659-3.837 2.488-6.016 2.488z"/><path d="m45.437 42.19c-.256 0-.512-.098-.707-.293-.391-.391-.391-1.023 0-1.414 1.363-1.364 1.363-3.585-.001-4.949-1.364-1.363-3.583-1.364-4.949-.001-.391.391-1.023.391-1.414 0s-.391-1.023 0-1.414c2.146-2.144 5.635-2.142 7.777.001 2.144 2.144 2.145 5.633.001 7.777-.196.196-.452.293-.707.293z"/><path d="m47.561 44.314c-.256 0-.512-.098-.707-.293-.391-.391-.391-1.023 0-1.414 1.229-1.229 1.904-2.861 1.904-4.598s-.677-3.37-1.906-4.599-2.862-1.907-4.599-1.907h-.001c-1.735 0-3.368.677-4.597 1.905-.391.391-1.023.391-1.414 0s-.391-1.023 0-1.414c1.606-1.606 3.741-2.491 6.011-2.491h.001c2.271 0 4.406.886 6.013 2.493 1.606 1.606 2.492 3.741 2.492 6.012.001 2.271-.884 4.406-2.49 6.013-.196.196-.452.293-.707.293z"/><path d="m49.638 46.393c-.256 0-.512-.098-.707-.293-.391-.391-.391-1.023 0-1.414 3.681-3.681 3.68-9.67-.002-13.352-3.683-3.681-9.671-3.684-13.352-.003-.391.391-1.023.391-1.414 0s-.391-1.023 0-1.414c4.461-4.461 11.719-4.458 16.18.003s4.462 11.72.002 16.18c-.196.195-.451.293-.707.293z"/><path d="m43.318 40.068c-.256 0-.512-.098-.707-.293-.391-.391-.391-1.023 0-1.414.195-.195.195-.514-.001-.71-.127-.127-.276-.146-.354-.146s-.227.019-.354.146c-.391.393-1.025.391-1.414.002-.392-.391-.392-1.023-.002-1.414.943-.945 2.593-.946 3.538-.001.975.977.975 2.563 0 3.537-.194.196-.45.293-.706.293z"/><path d="m46.498 47.751c-1.469.001-2.851-.572-3.89-1.611-1.039-1.04-1.611-2.421-1.611-3.89s.572-2.85 1.611-3.888c.391-.391 1.023-.391 1.414 0s.391 1.023 0 1.414c-.661.661-1.025 1.539-1.025 2.474s.364 1.813 1.025 2.476c1.324 1.321 3.627 1.323 4.949 0 .391-.391 1.023-.391 1.414 0s.391 1.023 0 1.414c-1.037 1.039-2.418 1.611-3.887 1.611z"/><path d="m46.495 44.754c-.67 0-1.298-.261-1.771-.734-.974-.974-.974-2.561.001-3.535.391-.391 1.023-.391 1.414 0s.391 1.023 0 1.414c-.195.195-.195.513 0 .708.128.128.277.147.355.147.078 0 .227-.02.354-.146.391-.391 1.023-.391 1.414 0s.391 1.023 0 1.414c-.47.472-1.099.732-1.767.732z"/><path d="m46.499 53.743c-2.945 0-5.89-1.121-8.132-3.362-4.483-4.484-4.483-11.779 0-16.264.391-.391 1.023-.391 1.414 0s.391 1.023 0 1.414c-3.703 3.704-3.703 9.731 0 13.436 3.703 3.703 9.73 3.703 13.436 0 3.703-3.704 3.703-9.731 0-13.436-.681-.681-1.455-1.252-2.301-1.697-.489-.258-.677-.862-.419-1.351.257-.488.862-.675 1.351-.419 1.024.539 1.961 1.229 2.783 2.053 4.483 4.484 4.483 11.779 0 16.264-2.242 2.241-5.187 3.362-8.132 3.362z"/><path d="m46.499 56.75c-3.872 0-7.514-1.509-10.253-4.248-5.653-5.653-5.653-14.853 0-20.506.391-.391 1.023-.391 1.414 0s.391 1.023 0 1.414c-2.361 2.361-3.662 5.501-3.662 8.839s1.301 6.478 3.662 8.839 5.501 3.662 8.839 3.662 6.478-1.301 8.839-3.662 3.662-5.501 3.662-8.839-1.301-6.478-3.662-8.839c-2.214-2.214-5.152-3.51-8.276-3.649-.552-.024-.979-.492-.954-1.044s.509-.983 1.044-.954c3.623.162 7.033 1.666 9.601 4.233 5.653 5.653 5.653 14.853 0 20.506-2.74 2.739-6.382 4.248-10.254 4.248z"/><path d="m46.499 59.751c-4.673 0-9.067-1.821-12.374-5.128-6.823-6.823-6.823-17.925 0-24.748 3.307-3.307 7.701-5.128 12.374-5.128s9.067 1.821 12.374 5.128c6.823 6.823 6.823 17.925 0 24.748-3.307 3.307-7.701 5.128-12.374 5.128zm0-33.004c-4.139 0-8.031 1.613-10.96 4.542-6.043 6.043-6.043 15.877 0 21.92 2.929 2.929 6.821 4.542 10.96 4.542s8.031-1.613 10.96-4.542c6.043-6.043 6.043-15.877 0-21.92-2.929-2.929-6.821-4.542-10.96-4.542z"/></svg>