<svg id="Capa_1" enable-background="new 0 0 511.997 511.997" height="512" viewBox="0 0 511.997 511.997" width="512" xmlns="http://www.w3.org/2000/svg"><g id="XMLID_2390_"><g id="XMLID_2406_"><path id="XMLID_332_" d="m287.29 134.359-32.271-60.671-28.045 11.762-23.409-22.11c-5.672-5.357-14.994-1.232-14.843 6.568l.604 31.33-27.042 11.341 18.433 37.552c9.399 19.149 25.495 34.185 45.238 42.261l-41.081 12.971c6.718 19.875 21.731 35.855 41.149 43.798l14.141 5.784c11.25 4.602 23.866 4.546 35.075-.155l14.089-5.909c3.343-1.402 7.19.171 8.592 3.514l5.909 14.089c4.701 11.209 13.661 20.091 24.911 24.693l14.141 5.784c19.418 7.943 41.327 7.066 60.048-2.402l-20.213-38.044c19.743 8.076 41.762 8.631 61.887 1.559l39.467-13.868-11.341-27.042 22.389-21.924c5.574-5.459 1.816-14.934-5.984-15.088l-32.193-.635-11.762-28.045-65.54 20.661c13.202-32.275 33.218-61.318 58.68-85.144l-20.904-8.551c-8.904-3.642-15.086-11.883-16.091-21.45l-4.11-39.103c-.733-6.978-8.938-10.335-14.352-5.871l-30.337 25.012c-7.423 6.12-17.608 7.665-26.512 4.023l-20.904-8.551c1.461 34.841-4.617 69.586-17.819 101.861z" fill="#ffcd69"/></g><g id="XMLID_2401_"><path id="XMLID_310_" d="m129.09 373.569-67.728-11.631-7.871 29.375-31.813 4.972c-7.709 1.205-10.154 11.1-3.894 15.758l25.142 18.704-7.59 28.325 40.977 8.418c20.895 4.292 42.638.772 61.111-9.893l-14.897 40.423c19.827 6.857 41.655 4.77 59.823-5.72l13.231-7.639c10.526-6.077 18.207-16.087 21.353-27.827l3.954-14.757c.938-3.502 4.537-5.58 8.039-4.641l14.757 3.954c11.74 3.146 24.249 1.499 34.775-4.578l13.231-7.639c18.169-10.49 30.89-28.349 34.865-48.949l-42.456-7.311c18.473-10.665 32.393-27.736 39.123-47.977l13.199-39.696-28.325-7.59-3.627-31.125c-.903-7.75-10.696-10.579-15.593-4.506l-20.213 25.065-29.375-7.871-23.792 64.47c-17.435-30.199-28.144-63.806-31.394-98.525l-19.559 11.292c-8.331 4.81-18.632 4.652-26.812-.41l-33.433-20.691c-5.967-3.693-13.644.74-13.429 7.753l1.203 39.3c.294 9.616-4.72 18.615-13.051 23.425l-19.559 11.293c28.442 20.172 52.192 46.25 69.628 76.449z" fill="#ff7b79"/></g><g id="XMLID_337_"><path id="XMLID_340_" d="m506.435 182.023c-2.799-7.059-9.514-11.717-17.107-11.867l-25.685-.507-9.245-22.043c-1.998-4.765-7.299-7.222-12.228-5.67l-43.91 13.842c12.036-22.959 27.748-43.575 46.89-61.487 2.487-2.328 3.618-5.761 3.002-9.111s-2.896-6.156-6.049-7.446l-20.903-8.551c-5.505-2.251-9.311-7.325-9.933-13.24l-4.109-39.104c-.725-6.896-5.162-12.811-11.58-15.436-6.421-2.626-13.729-1.516-19.079 2.895l-30.339 25.013c-4.589 3.784-10.858 4.735-16.364 2.483l-20.903-8.551c-3.152-1.29-6.745-.886-9.533 1.072s-4.387 5.2-4.244 8.603c1.1 26.191-2.141 51.909-9.646 76.721l-21.62-40.648c-2.428-4.563-7.936-6.524-12.696-4.526l-22.044 9.244-18.677-17.64c-5.52-5.214-13.576-6.599-20.518-3.525-6.944 3.073-11.337 9.964-11.19 17.556l.474 24.542-20.78 8.715c-2.541 1.065-4.529 3.131-5.496 5.711-.968 2.58-.827 5.444.387 7.917l18.433 37.553c6.888 14.032 16.977 26.065 29.33 35.225l-19.208 6.064c-2.562.809-4.691 2.615-5.907 5.012-1.216 2.396-1.416 5.181-.556 7.727.946 2.8 2.039 5.53 3.265 8.184l-19.122 11.04c-5.15 2.973-11.491 2.877-16.549-.253l-33.434-20.691c-5.896-3.648-13.291-3.763-19.296-.295-6.006 3.467-9.604 9.927-9.392 16.857l1.203 39.3c.182 5.945-2.905 11.485-8.056 14.459l-19.56 11.292c-2.95 1.703-4.83 4.791-4.989 8.193-.159 3.403 1.426 6.652 4.204 8.624 21.382 15.166 39.731 33.474 54.754 54.6l-45.376-7.792c-5.089-.871-10.014 2.276-11.351 7.267l-6.187 23.089-25.383 3.967c-7.502 1.172-13.527 6.693-15.349 14.065-1.822 7.371.936 15.064 7.029 19.597l19.694 14.651-5.832 21.767c-.713 2.661-.297 5.498 1.15 7.842 1.448 2.344 3.798 3.987 6.496 4.541l40.978 8.417c15.312 3.146 31.002 2.536 45.808-1.624l-6.965 18.9c-.93 2.521-.805 5.31.346 7.739 1.15 2.429 3.229 4.292 5.769 5.17 8.762 3.03 17.858 4.527 26.922 4.527 14.296 0 28.508-3.726 41.171-11.037l13.23-7.639c12.264-7.08 21.202-18.298 25.378-31.745l23.434 40.588c1.853 3.208 5.213 5.001 8.67 5.001 1.696 0 3.416-.432 4.99-1.341 4.783-2.761 6.422-8.877 3.66-13.66l-23.433-40.588c13.734 3.107 27.916.975 40.18-6.106l13.23-7.639c20.692-11.946 35.156-32.253 39.684-55.714.51-2.638-.065-5.371-1.593-7.581-1.527-2.21-3.881-3.713-6.528-4.169l-19.851-3.418c11.006-10.743 19.378-24.026 24.311-38.86l7.172-21.57c9.785 3.886 20.095 5.834 30.391 5.834 12.766 0 25.504-2.971 37.166-8.87 2.397-1.213 4.206-3.339 5.019-5.901.812-2.561.56-5.341-.701-7.714l-9.451-17.788c15.232 2.122 30.863.611 45.609-4.57l39.467-13.868c2.599-.914 4.706-2.858 5.824-5.376s1.147-5.386.082-7.926l-8.715-20.781 17.537-17.173c5.425-5.313 7.123-13.307 4.323-20.365zm-284.198 76.395 5.809 2.376-14.078 38.15c-8.373-18.302-14.261-37.496-17.624-57.38 7.406 7.12 16.159 12.872 25.893 16.854zm91.497 63.362c-5.964 17.937-18.265 33.021-34.634 42.472-3.647 2.105-5.584 6.271-4.845 10.417.74 4.146 3.997 7.384 8.147 8.099l31.57 5.436c-5.014 13.522-14.605 24.988-27.283 32.308l-13.23 7.639c-8.29 4.786-17.945 6.056-27.188 3.579l-6.947-1.861 10.35-38.63c1.43-5.335-1.736-10.818-7.071-12.247-5.336-1.43-10.817 1.737-12.247 7.071l-7.894 29.46-20.912-36.221c-2.761-4.783-8.877-6.421-13.66-3.66s-6.422 8.878-3.66 13.66l20.912 36.221-33.122-8.875c-5.338-1.431-10.817 1.737-12.247 7.071-1.43 5.335 1.736 10.818 7.071 12.247l42.29 11.332-1.862 6.948c-2.477 9.244-8.405 16.97-16.693 21.755l-13.23 7.639c-12.679 7.32-27.404 9.893-41.622 7.474l11.078-30.06c1.457-3.952.281-8.392-2.939-11.105s-7.797-3.119-11.443-1.013c-16.37 9.451-35.584 12.561-54.099 8.758l-30.584-6.283 4.843-18.077c1.061-3.959-.401-8.165-3.69-10.611l-22.851-16.999 28.992-4.531c3.909-.611 7.091-3.47 8.115-7.292l5.51-20.564 58.738 10.087c3.817.655 7.68-.956 9.896-4.139 2.218-3.182 2.395-7.359.456-10.717-15.708-27.207-35.926-50.808-60.224-70.333l6.494-3.75c11.538-6.662 18.453-19.073 18.046-32.391l-1.135-37.07 31.537 19.518c11.329 7.013 25.534 7.23 37.074.567l6.494-3.749c4.761 30.806 15.091 60.117 30.799 87.322 1.938 3.359 5.647 5.293 9.51 4.964 3.864-.33 7.189-2.863 8.532-6.501l20.634-55.912 20.563 5.51c3.821 1.025 7.889-.302 10.372-3.382l18.419-22.842 2.791 23.944c.001.011.003.022.004.033l.503 4.312c.475 4.071 3.385 7.44 7.345 8.501l18.075 4.844zm151.996-111.758c-2.928 2.868-3.81 7.232-2.225 11.012l7.237 17.257-29.457 10.351c-17.832 6.266-37.289 5.776-54.785-1.38-3.899-1.596-8.379-.576-11.202 2.547-2.825 3.123-3.391 7.682-1.415 11.4l15.031 28.29c-13.763 4.315-28.699 3.751-42.249-1.791l-.508-.208c.548-2.36.227-4.851-.931-7.003-1.307-2.425-3.556-4.205-6.217-4.918l-21.766-5.832-1.854-15.909 31.759-13.319c5.094-2.136 7.49-7.996 5.355-13.089-2.135-5.092-7.996-7.489-13.089-5.354l-28.126 11.795 23.109-56.495c2.091-5.112-.358-10.951-5.47-13.042-5.112-2.093-10.951.358-13.042 5.469l-23.109 56.497-13.262-31.622c-2.136-5.092-7.996-7.489-13.089-5.354-5.094 2.136-7.49 7.996-5.354 13.089l16.045 38.258-3.034 3.763-2.71 1.136c-8.827 3.701-18.565 3.744-27.422.12l-14.141-5.784c-13.55-5.542-24.6-15.61-31.393-28.332l30.549-9.645c4.016-1.268 6.808-4.916 6.98-9.124.174-4.207-2.308-8.073-6.205-9.667-17.495-7.157-31.717-20.443-40.047-37.412l-13.757-28.028 17.257-7.237c3.78-1.585 6.21-5.316 6.131-9.415l-.549-28.475 21.332 20.149c2.876 2.717 7.085 3.481 10.733 1.952l19.634-8.233 27.986 52.617c1.821 3.425 5.459 5.492 9.332 5.291 3.873-.195 7.284-2.612 8.753-6.201 11.894-29.077 18.177-59.513 18.737-90.679l6.94 2.839c12.331 5.045 26.379 2.913 36.659-5.562l28.616-23.593 3.876 36.884c1.394 13.251 9.919 24.617 22.251 29.661l6.94 2.839c-21.443 22.624-38.292 48.738-50.186 77.814-1.468 3.59-.729 7.705 1.897 10.558 2.627 2.854 6.666 3.933 10.365 2.765l56.84-17.918 8.233 19.633c1.53 3.649 5.068 6.052 9.025 6.13l29.338.579z"/><path id="XMLID_343_" d="m170.391 335.342c-2.63 0-5.21 1.06-7.07 2.93-1.859 1.86-2.93 4.43-2.93 7.07 0 2.63 1.07 5.2 2.93 7.07 1.86 1.86 4.441 2.93 7.07 2.93 2.641 0 5.21-1.07 7.07-2.93 1.87-1.87 2.939-4.44 2.939-7.07s-1.069-5.21-2.939-7.07c-1.85-1.87-4.43-2.93-7.07-2.93z"/></g></g></svg>