<svg id="Capa_1" enable-background="new 0 0 512.002 512.002" height="512" viewBox="0 0 512.002 512.002" width="512" xmlns="http://www.w3.org/2000/svg"><g><g><g><circle cx="256.051" cy="256.001" fill="#6bcb44" r="248.501"/><path d="m55.262 256.001c0-129.195 98.595-235.348 224.645-247.356-7.852-.748-15.807-1.145-23.856-1.145-137.243 0-248.501 111.258-248.501 248.501s111.258 248.501 248.501 248.501c8.049 0 16.004-.397 23.856-1.145-126.049-12.008-224.645-118.161-224.645-247.356z" fill="#4dc321"/><path d="m265.057 38.018c-109.153 12.681-193.884 105.428-193.884 217.983s84.731 205.302 193.884 217.983c116.321-4.725 209.177-100.502 209.177-217.983s-92.856-213.258-209.177-217.983z" fill="#dbedff"/><path d="m72.369 256.001c0-114.693 88.498-208.71 200.932-217.505-5.692-.445-11.444-.677-17.25-.677-120.499 0-218.182 97.684-218.182 218.182s97.684 218.183 218.182 218.183c5.806 0 11.558-.232 17.25-.677-112.434-8.796-200.932-102.813-200.932-217.506z" fill="#b5dcff"/></g><path d="m490.089 72.607c-44.368-4.578-193.065-9.01-216.545 133.066-.828 5.012 5.323 8.093 8.797 4.386 14.291-15.25 41.983-44.035 82.126-50.88 2.054-.35 2.989 2.454 1.14 3.414-31.769 16.493-78.792 67.423-104.527 195.117-.717 3.56-5.802 3.547-6.519-.013-31.433-155.95-95.03-189.936-123.214-197.296-3.533-.923-5.831 3.618-3.027 5.956 12.126 10.109 32.005 30.593 47.552 65.649 19.917 44.911 45.329 155.11 53.498 191.771 1.574 7.064 7.841 12.082 15.078 12.082.62 0 27.251 0 26.748 0 7.237 0 13.504-5.018 15.078-12.082 7.19-32.266 24.204-123.441 42.605-174.988 2.24-6.275 7.88-10.7 14.511-11.356 22.136-2.191 61.87-8.627 79.905-39.245 25.054-42.533 27.25-91.541 68.591-118.043 3.265-2.094 2.061-7.139-1.797-7.538z" fill="#6bcb44"/><g fill="#4dc321"><path d="m282.34 210.059c4.051-4.323 9.18-9.733 15.363-15.423 22.502-100.793 111.996-121.356 171.635-123.44-58.395-2.03-175.209 9.923-195.794 134.477-.829 5.012 5.323 8.093 8.796 4.386z"/><path d="m251.37 423.776c-8.17-36.66-33.581-146.859-53.499-191.771-13.605-30.677-30.527-50.195-42.668-61.367-9.247-5.521-17.464-8.568-23.856-10.238-3.533-.923-5.832 3.618-3.027 5.956 12.126 10.109 32.005 30.593 47.552 65.649 19.917 44.911 45.329 155.111 53.499 191.771 1.574 7.064 7.841 12.082 15.078 12.082h22c-7.239 0-13.505-5.018-15.079-12.082z"/><path d="m383.296 156.172c-11.104 1.15-18.83 3.007-18.83 3.007 2.054-.35 2.989 2.454 1.14 3.414-31.769 16.493-78.792 67.423-104.526 195.117-.148.732-.486 1.305-.927 1.735l9.774-.761c5.848-.455 10.688-4.743 11.836-10.495 24.865-124.532 76.524-169.638 103.764-185.193 3.444-1.968 1.715-7.233-2.231-6.824z"/></g></g><g><path d="m495.883 86.458c9.239-5.924 5.836-20.185-5.074-21.312-14.79-1.526-38.064-2.794-64.3-.066-46.969-41.976-107.426-65.08-170.508-65.08-141.492 0-256.001 114.497-256.001 256.001 0 141.492 114.497 256.001 256.001 256.001 141.492 0 256.001-114.496 256.001-256.001 0-50.719-14.776-99.61-42.751-141.637 6.659-10.871 15.006-20.453 26.632-27.906zm1.119 169.543c0 132.888-108.112 241.001-241.001 241.001s-241.001-108.113-241.001-241.001 108.112-241.001 241.001-241.001c55.045 0 107.968 18.688 150.621 52.887-6.462 1.164-13.013 2.611-19.581 4.374-33.231-23.74-72.252-37.991-112.946-41.222-4.13-.333-7.743 2.754-8.07 6.883-.328 4.129 2.754 7.742 6.883 8.07 34.155 2.712 67.048 13.745 95.885 32.052-59.372 21.869-92.764 66.293-102.698 126.405-2.034 12.295 13.139 19.842 21.669 10.739 8.726-9.312 23.885-25.488 44.867-36.915-39.565 39.864-62.21 104.35-74.865 159.04-13.901-59.77-34.133-106.368-60.246-138.697-24.258-30.033-48.371-41.304-64.328-45.471-11.258-2.935-18.654 11.527-9.725 18.973 10.424 8.689 30.194 28.419 45.498 62.929 19.793 44.63 45.598 156.988 53.035 190.361 2.355 10.569 11.565 17.951 22.397 17.951h26.755.015c10.822-.01 20.022-7.389 22.376-17.951 3.354-15.055 8.808-42.711 15.512-73.118.892-4.045-1.664-8.047-5.709-8.939-4.055-.89-8.047 1.665-8.939 5.709-6.693 30.358-12.196 58.239-15.504 73.085-.815 3.658-4.005 6.213-7.757 6.213h-26.748c-3.752 0-6.941-2.555-7.757-6.213-37.264-167.215-56.358-211.62-88.096-246.636 29.661 16.496 73.976 61.429 98.614 183.67 1.032 5.12 5.399 8.694 10.621 8.694 5.213-.001 9.572-3.571 10.602-8.682 27.975-138.804 79.693-179.072 100.631-189.942 4.105-2.132 6.018-6.861 4.546-11.245-1.471-4.38-5.841-6.999-10.403-6.219-38.116 6.5-65.897 31.928-80.812 47.322 24.8-119.331 147.56-123.387 197.807-119.83-36.613 28.986-40.323 75.979-63.368 115.104-11.889 20.183-36.153 31.824-74.183 35.588-9.456.936-17.635 7.333-20.835 16.298-6.05 16.947-12.351 39.073-19.265 67.644-.974 4.026 1.5 8.08 5.526 9.054 4.023.976 8.079-1.5 9.054-5.525 6.693-27.664 13.022-49.913 18.812-66.129 1.26-3.529 4.473-6.046 8.187-6.414 15.853-1.569 64.096-6.345 85.628-42.902 6.948-11.794 12.146-23.932 16.854-35.908 13.191 27.965 20.124 58.762 20.124 89.915 0 116.171-94.512 210.683-210.683 210.683-116.17 0-210.682-94.512-210.682-210.683 0-109.136 85.116-201.382 193.775-210.006 4.129-.328 7.211-3.941 6.883-8.07-.327-4.128-3.917-7.214-8.07-6.883-116.849 9.273-207.589 107.074-207.589 224.958 0 124.735 100.936 225.683 225.682 225.683 124.736 0 225.683-100.937 225.683-225.683 0-38.032-9.638-75.581-27.875-108.707 2.356-6.046 4.766-11.971 7.401-17.685 23.445 37.958 35.792 81.409 35.792 126.392z"/></g></g></svg>