<?xml version="1.0" encoding="iso-8859-1"?>
<!-- Generator: Adobe Illustrator 19.0.0, SVG Export Plug-In . SVG Version: 6.00 Build 0)  -->
<svg version="1.1" id="Layer_1" xmlns="http://www.w3.org/2000/svg" xmlns:xlink="http://www.w3.org/1999/xlink" x="0px" y="0px"
	 viewBox="0 0 512.001 512.001" style="enable-background:new 0 0 512.001 512.001;" xml:space="preserve">
<g>
	<polygon style="fill:#FFDA44;" points="266.449,7.837 245.552,7.837 229.878,112.327 282.123,112.327 	"/>
	<rect x="177.633" y="112.327" style="fill:#FFDA44;" width="156.735" height="26.122"/>
</g>
<rect x="177.633" y="112.327" style="fill:#FFF5CC;" width="20.898" height="26.122"/>
<rect x="151.511" y="138.449" style="fill:#FF9811;" width="208.98" height="52.245"/>
<path style="fill:#DD7903;" d="M339.592,138.449v10.449c0,11.542-9.356,20.898-20.898,20.898H151.511v20.898h208.98v-52.245H339.592
	z"/>
<path style="fill:#FFDA44;" d="M368.745,504.163H143.256c-12.364,0-22.024-10.675-20.795-22.977l29.049-290.492h208.98
	l29.049,290.492C390.769,493.489,381.109,504.163,368.745,504.163z"/>
<path style="fill:#EEBF00;" d="M389.539,481.186L360.49,190.694h-208.98l-2.09,20.898H320.68c10.736,0,19.726,8.136,20.794,18.819
	l27.167,271.673c0.07,0.699,0.1,1.392,0.101,2.079h0.003C381.109,504.163,390.769,493.489,389.539,481.186z"/>
<path d="M397.337,480.406l-29.009-290.104v-59.69h-26.122V104.49h-53.333L273.198,0h-34.396l-15.673,104.49h-53.333v26.122h-26.122
	v67.918h209.724l28.342,283.438c0.373,3.715-0.802,7.287-3.309,10.058c-2.509,2.772-5.949,4.3-9.686,4.3H143.256
	c-3.737,0-7.176-1.528-9.686-4.3c-2.507-2.771-3.682-6.344-3.309-10.061l26.958-269.594l-15.596-1.559l-26.958,269.591
	c-0.808,8.06,1.846,16.13,7.283,22.139c5.438,6.011,13.205,9.458,21.309,9.458h225.489c8.103,0,15.871-3.447,21.309-9.458
	C395.49,496.532,398.144,488.464,397.337,480.406z M195.919,146.286v36.571H185.47v-36.571H195.919z M211.592,146.286h10.449v36.571
	h-10.449V146.286z M237.715,146.286h10.449v36.571h-10.449V146.286z M263.837,146.286h10.449v36.571h-10.449V146.286z
	 M289.96,146.286h10.449v36.571H289.96V146.286z M316.082,146.286h10.449v36.571h-10.449V146.286z M252.301,15.673h7.4
	l13.322,88.816h-34.045L252.301,15.673z M185.47,120.163h141.061v10.449H185.47V120.163z M159.347,146.286h10.449v36.571h-10.449
	V146.286z M352.654,182.857h-10.449v-36.571h10.449V182.857z"/>
<path d="M169.915,400.453l-15.596-1.559l-5.017,50.163c-0.807,8.06,1.847,16.13,7.285,22.139c5.438,6.01,13.204,9.457,21.308,9.457
	h52.245v-15.673h-52.245c-3.737,0-7.176-1.527-9.686-4.3c-2.507-2.771-3.682-6.344-3.31-10.061L169.915,400.453z"/>
<g>
</g>
<g>
</g>
<g>
</g>
<g>
</g>
<g>
</g>
<g>
</g>
<g>
</g>
<g>
</g>
<g>
</g>
<g>
</g>
<g>
</g>
<g>
</g>
<g>
</g>
<g>
</g>
<g>
</g>
</svg>
