<?xml version="1.0" encoding="iso-8859-1"?>
<!-- Generator: Adobe Illustrator 19.0.0, SVG Export Plug-In . SVG Version: 6.00 Build 0)  -->
<svg version="1.1" id="Capa_1" xmlns="http://www.w3.org/2000/svg" xmlns:xlink="http://www.w3.org/1999/xlink" x="0px" y="0px"
	 viewBox="0 0 512 512" style="enable-background:new 0 0 512 512;" xml:space="preserve">
<rect x="54.16" y="182" style="fill:#51CEEF;" width="243.68" height="320"/>
<rect x="297.84" y="182" style="fill:#17CCEF;" width="160" height="320"/>
<polygon style="fill:#51CEEF;" points="54.161,182 134.161,50 377.838,50 297.838,182 "/>
<polygon style="fill:#17CCEF;" points="297.838,182 377.838,50 457.838,182 "/>
<rect x="134.16" y="10" style="fill:#51CEEF;" width="243.68" height="40"/>
<polygon style="fill:#EFEFEF;" points="297.841,182 297.841,265.45 296.801,269.88 161.651,502 54.161,502 54.161,422.82 
	194.331,182 "/>
<path d="M200.091,132c-5.52,0-10,4.49-10,10s4.48,10,10,10c5.51,0,10-4.49,10-10S205.601,132,200.091,132z"/>
<path d="M466.371,176.805c0.003-0.002-67.732-111.776-78.532-129.597V10c0-5.522-4.478-10-10-10H134.161c-5.522,0-10,4.478-10,10
	v37.207c-10.804,17.829-78.589,129.687-78.587,129.688c-0.891,1.496-1.413,3.237-1.413,5.105v320c0,5.522,4.478,10,10,10h403.678
	c5.522,0,10-4.478,10-10V182C467.839,180.095,467.296,178.32,466.371,176.805z M440.085,172H315.592l62.247-102.706L440.085,172z
	 M144.161,20h223.678v20H144.161V20z M64.161,192H176.94L64.161,385.761V192z M287.839,492H179.045l108.794-186.855V492z
	 M287.839,264.3l-0.432,1.839L155.903,492H64.161v-66.482L200.081,192h87.758V264.3z M292.207,172H71.915l12.121-20h76.055
	c5.51,0,10-4.49,10-10s-4.49-10-10-10H96.157l43.637-72h220.292l-43.636,72h-76.358c-5.52,0-10,4.49-10,10s4.48,10,10,10h64.237
	L292.207,172z M307.839,192h60v263.82l-60,30V192z M340.199,492l37.64-18.82l37.64,18.82H340.199z M447.839,485.82l-60-30V192h60
	V485.82z"/>
<path d="M207.944,255.934l-7.961-4.596c-4.785-2.761-10.9-1.122-13.66,3.66c-2.762,4.783-1.123,10.899,3.66,13.66l46.188,26.666
	c1.575,0.909,3.294,1.342,4.99,1.342c3.456,0,6.818-1.794,8.67-5.002c2.762-4.783,1.123-10.899-3.66-13.66l-7.96-4.595l22.215-5.952
	c5.335-1.43,8.501-6.913,7.071-12.247s-6.915-8.501-12.247-7.071l-26.769,7.173l-7.173-26.768c-1.43-5.334-6.913-8.503-12.247-7.071
	c-5.335,1.43-8.501,6.913-7.071,12.247L207.944,255.934z"/>
<path d="M192.261,370.047l-46.188-26.666c-4.784-2.762-10.899-1.122-13.66,3.66c-2.762,4.783-1.123,10.898,3.66,13.66l46.188,26.666
	c1.575,0.909,3.294,1.342,4.99,1.342c3.456,0,6.818-1.794,8.67-5.002C198.683,378.924,197.044,372.809,192.261,370.047z"/>
<path d="M172.261,404.688l-46.288-26.719c-2.198-1.237-4.86-1.652-7.487-0.947c-5.335,1.43-8.501,6.913-7.071,12.247l7.174,26.772
	c-10.746,2.883-26.627,7.144-26.714,7.167c-2.494,0.652-4.737,2.253-6.128,4.662c-2.762,4.783-1.123,10.899,3.66,13.66
	l46.188,26.666c1.575,0.909,3.294,1.342,4.99,1.342c3.456,0,6.818-1.794,8.67-5.002c2.762-4.783,1.123-10.899-3.66-13.66
	l-25.281-14.595l13.108-3.512c5.335-1.43,8.501-6.913,7.071-12.247l-3.512-13.108l25.28,14.596c1.575,0.909,3.294,1.342,4.99,1.342
	c3.456,0,6.817-1.794,8.67-5.002C178.683,413.565,177.044,407.45,172.261,404.688z"/>
<path d="M226.172,312.646c-4.784-2.761-10.9-1.123-13.66,3.66l-8.333,14.434l-37.528-21.667c-4.785-2.762-10.898-1.122-13.66,3.66
	c-2.762,4.783-1.123,10.898,3.66,13.66l46.188,26.667c1.575,0.909,3.294,1.342,4.99,1.342c3.456,0,6.818-1.794,8.67-5.002
	l13.333-23.094C232.594,321.522,230.955,315.407,226.172,312.646z"/>
<g>
</g>
<g>
</g>
<g>
</g>
<g>
</g>
<g>
</g>
<g>
</g>
<g>
</g>
<g>
</g>
<g>
</g>
<g>
</g>
<g>
</g>
<g>
</g>
<g>
</g>
<g>
</g>
<g>
</g>
</svg>
