<svg id="Capa_1" enable-background="new 0 0 512.067 512.067" height="512" viewBox="0 0 512.067 512.067" width="512" xmlns="http://www.w3.org/2000/svg"><g><g><path d="m138.776 29.185 122.509 279.284c57.232-25.105 89.757-77.081 57.609-150.367s-122.886-154.023-180.118-128.917z" fill="#f9eed7"/></g><g><path d="m318.895 158.101c-30.521-69.577-113.851-145.857-171.183-131.916 53.278 10.934 115.674 73.765 141.182 131.916 27.273 62.174 7.994 109.007-33.425 137.11l5.815 13.257c57.233-25.105 89.758-77.081 57.611-150.367z" fill="#e9e0c3"/></g><g><path d="m111.637 249.016c32.147 73.286 92.415 84.558 149.648 59.452l-122.509-279.283c-57.233 25.105-59.286 146.545-27.139 219.831z" fill="#d5c6ad"/></g><g><path d="m411.469 74.434-122.509 279.283c-57.233-25.105-89.757-77.082-57.61-150.367s122.887-154.022 180.119-128.916z" fill="#f9eed7"/></g><g><path d="m438.608 294.265c-32.147 73.285-92.415 84.558-149.648 59.452l122.509-279.283c57.233 25.105 59.286 146.545 27.139 219.831z" fill="#d5c6ad"/></g><g><path d="m411.469 74.433-7.708 17.571c34.769 43.264 32.119 140.086 4.846 202.26-19.309 44.019-48.765 65.656-81.614 70.484 44.451 6.064 86.568-13.387 111.614-70.484 32.148-73.285 30.095-194.725-27.138-219.831z" fill="#bfb29b"/></g><g><path d="m73.251 293.991 265.814 149.502c30.637-54.472 25.374-115.559-44.377-154.789s-190.801-49.185-221.437 5.287z" fill="#f9eed7"/></g><g><path d="m294.688 288.704c-39.797-22.383-96.288-35.227-143.162-32.02 39.467 2.493 81.575 14.254 113.162 32.02 64.188 36.101 73.762 90.712 51.005 141.645l23.372 13.145c30.637-54.473 25.374-115.561-44.377-154.79z" fill="#e9e0c3"/></g><g><path d="m183.742 485.965c69.751 39.23 124.686 12 155.323-42.472l-265.814-149.502c-30.637 54.473 40.74 152.744 110.491 191.974z" fill="#d5c6ad"/></g><g><path d="m315.693 430.348c-20.35 36.182-54.347 66.134-95.323 70.679 52.352 13.319 93.646-12.997 118.695-57.534z" fill="#bfb29b"/></g><path d="m459.901 129.766c-7.578-27.995-20.897-48.123-38.742-58.752l6.69-15.251c1.664-3.793-.062-8.217-3.855-9.881-3.792-1.664-8.217.062-9.881 3.855l-6.691 15.254c-27.909-8.354-63.065 2.476-100.009 31.073-3.8 2.941-7.561 6.047-11.274 9.281-41.447-55.095-105.299-99.931-153.321-85.614l-6.686-15.242c-1.664-3.793-6.088-5.519-9.881-3.855-3.794 1.664-5.52 6.088-3.855 9.881l6.691 15.254c-25.05 14.877-40.889 48.077-44.871 94.625-.353 4.127 2.707 7.759 6.833 8.112.217.019.433.028.647.028 3.853 0 7.13-2.952 7.464-6.861 3.411-39.865 16.393-69.158 36.017-82.017l80.485 183.482c.114.259.253.498.392.738-2.709 9.843-4.285 19.453-4.738 28.778-14.117-2.392-28.281-3.757-41.915-3.943-17.62-.241-33.511 1.386-47.403 4.76-1.205-2.427-2.377-4.917-3.495-7.466-11.578-26.395-18.683-59.22-20.005-92.428-.165-4.139-3.668-7.352-7.792-7.196-4.139.165-7.36 3.654-7.196 7.793 1.395 35.035 8.944 69.788 21.257 97.856.874 1.992 1.782 3.949 2.708 5.879-15.892 5.966-28.307 14.75-36.67 26.105l-14.518-8.165c-3.612-2.031-8.183-.75-10.213 2.861-2.03 3.61-.75 8.183 2.861 10.213l14.511 8.161c-25.396 61.535 49.661 157.762 116.616 195.419 23.169 13.03 45.518 19.565 66.783 19.565 10.82 0 21.36-1.692 31.583-5.081 26.961-8.938 50.188-29.622 67.17-59.816 14.473-25.733 20.68-51.753 18.261-76.015 26.238-5.422 59.353-23.129 81.613-73.877 5.676-12.939 10.366-27.378 13.939-42.914.929-4.037-1.591-8.062-5.628-8.99-4.036-.931-8.062 1.59-8.99 5.628-3.364 14.625-7.757 28.167-13.057 40.251-15.933 36.323-40.208 58.69-70.482 65.116-5.735-22.486-19.001-42.108-39.571-58.589l93.384-212.889c16.982 11.035 25.836 32.117 30.35 48.795 6.794 25.096 8.356 56.593 4.399 88.689-.507 4.111 2.415 7.855 6.526 8.362.311.038.621.057.927.057 3.733 0 6.966-2.784 7.435-6.583 4.194-33.979 2.486-67.52-4.803-94.446zm-310.999-96.167c41.206-10.621 99.33 32.504 136.138 81.952-39.932 37.54-61.364 86.67-61.759 87.611zm124.809 459.149c-26.137 8.665-55.171 4.184-86.292-13.32-33.575-18.883-68.143-52.494-90.212-87.716-21.245-33.906-28.491-65.121-20.541-87.195l252.032 141.75c-14.653 23.37-33.549 39.374-54.987 46.481zm73.501-130.685c5.061 22.011 1.199 46.471-11.162 71.129l-252.032-141.75c14.734-18.259 45.148-28.287 85.181-27.734 41.562.566 88.237 12.649 121.812 31.532 6.072 3.415 11.672 7.022 16.81 10.811.129.102.259.202.396.295 20.965 15.575 34.059 34.252 38.995 55.717zm-37.959-73.277c-3.472-2.276-7.095-4.486-10.888-6.619-20.666-11.623-45.973-20.811-72.152-26.6.412-15.424 4.435-31.944 12.006-49.204 15.474-35.276 45.505-72.995 78.375-98.437 31.641-24.491 61.986-34.786 84.739-29.055z"/></g></svg>