<svg id="Capa_1" enable-background="new 0 0 512 512" height="512" viewBox="0 0 512 512" width="512" xmlns="http://www.w3.org/2000/svg"><g><g><g><path d="m298.483 67.343h74.981l13.636-46.905c1.015-3.491-1.604-6.979-5.239-6.979h-92.219c-3.655 0-6.276 3.524-5.225 7.024z" fill="#ffbd86"/><path d="m298.483 67.343h31.679l-14.065-46.859c-1.051-3.501 1.57-7.024 5.225-7.024h-31.679c-3.655 0-6.276 3.524-5.225 7.024z" fill="#f6a96c"/><path d="m376.127 212.522c6.979-7.615 17-12.398 28.118-12.398 21.036 0 38.149 17.113 38.149 38.149 0 10.4-4.187 19.836-10.959 26.724 8.65 4.339 16.766 9.597 24.213 15.655 9.505-11.516 15.216-26.281 15.216-42.379 0-36.792-29.826-66.618-66.618-66.618-10.05 0-19.574 2.239-28.118 6.224v34.643z" fill="#62dbfb"/></g><path d="m397.071 253.378c-12.175-2.295-20.943-13.011-20.943-25.4v-126.472h-78.942v126.151c0 12.507-8.934 23.285-21.251 25.458-28.086 4.955-53.176 18.888-72.178 38.698.755 8.492 1.153 17.232 1.153 26.16 0 21.787-2.354 42.467-6.568 61.094 11.344 2.883 22.329 8.93 31.488 18.089 24.904 24.904 26.887 63.299 4.429 85.758-1.138 1.138-2.328 2.197-3.544 3.21 15.649 7.935 33.312 12.418 51.973 12.418h106.128c63.626 0 115.684-52.058 115.684-115.684 0-64.16-46.479-117.989-107.429-129.48z" fill="#c8effe"/><g><path d="m204.504 333.398c.008-.154.02-.305.028-.458 3.576-6.71 7.873-13.071 12.862-18.947 16.208-19.086 38.54-31.963 62.884-36.258l25.021.047c.712-.138 1.419-.293 2.135-.419 12.317-2.173 21.251-12.951 21.251-25.458v-150.399h-31.5v126.151c0 12.507-8.934 23.285-21.251 25.458-28.086 4.955-53.176 18.888-72.178 38.698.755 8.492 1.153 17.232 1.153 26.16.001 5.21-.142 10.353-.405 15.425z" fill="#99e6fc"/></g><path d="m454.495 314.442c-15.951-18.999-37.99-31.96-62.056-36.498l-112.161-.21c-24.344 4.295-46.677 17.172-62.884 36.258-4.99 5.876-9.286 12.237-12.862 18.947-.816 16.302-2.953 31.82-6.19 46.127 11.344 2.883 22.329 8.93 31.488 18.089 19.298 19.298 24.821 46.692 15.886 68.499 11.298 5.065 23.811 7.886 36.972 7.886h106.128c50.003 0 90.684-40.681 90.684-90.684 0-24.913-8.88-49.209-25.005-68.414z" fill="#fac600"/><path d="m244.504 382.856c0-25.126 9.017-49.583 25.39-68.864 16.098-18.958 38.242-31.779 62.395-36.161l-52.011-.098c-24.344 4.295-46.677 17.172-62.884 36.258-4.99 5.876-9.286 12.237-12.862 18.947-.816 16.302-2.953 31.82-6.19 46.127 11.344 2.883 22.329 8.93 31.488 18.089 19.298 19.298 24.821 46.692 15.886 68.499 11.298 5.065 23.811 7.886 36.972 7.886h52.5c-50.003.001-90.684-40.68-90.684-90.683z" fill="#e8b800"/><g><path d="m383.44 101.506h-97.122c-8.482 0-16.425-4.156-21.262-11.124l-10.351-14.912c-2.383-3.433.074-8.128 4.252-8.128h124.483c9.434 0 17.082 7.648 17.082 17.082 0 9.434-7.648 17.082-17.082 17.082z" fill="#99e6fc"/></g><g><path d="m317.284 90.383-10.351-14.912c-2.383-3.433.074-8.128 4.252-8.128h-52.227c-4.178 0-6.635 4.695-4.252 8.128l10.351 14.912c4.836 6.968 12.78 11.123 21.262 11.123h52.227c-8.483 0-16.426-4.156-21.262-11.123z" fill="#62dbfb"/></g></g><g><g><path d="m156.673 383.452c12.513-6.604 27.373-8.019 41.669-4.386 4.214-18.627 6.568-39.307 6.568-61.094 0-48.755-11.753-92.004-29.887-118.977-1.221-1.817-3.916-1.817-5.137 0-18.133 26.974-29.887 70.222-29.887 118.977 0 16.19 1.3 31.77 3.696 46.351 4.751 6.365 9.077 12.762 12.978 19.129z" fill="#09a76d"/><path d="m156.673 383.452c3.476-1.835 7.132-3.268 10.909-4.304-4.227-18.646-6.582-39.358-6.582-61.176 0-41.218 8.401-78.498 21.955-105.339-2.478-4.908-5.128-9.469-7.931-13.639-1.221-1.817-3.916-1.817-5.137 0-18.133 26.974-29.887 70.222-29.887 118.977 0 16.19 1.3 31.77 3.696 46.351 4.75 6.366 9.076 12.763 12.977 19.13z" fill="#02905d"/></g><g><path d="m80.749 388.555c7.964-3.224 16.785-5.032 26.079-5.032 13.482 0 25.979 3.783 36.28 10.222.322-.34.632-.687.964-1.02 3.791-3.791 8.043-6.868 12.601-9.274-10.429-17.025-23.962-34.264-40.219-50.522-34.475-34.475-73.367-56.746-105.263-62.997-2.148-.421-4.054 1.484-3.633 3.633 6.251 31.896 28.522 70.788 62.997 105.263 3.359 3.361 6.761 6.603 10.194 9.727z" fill="#09a76d"/><path d="m80.749 388.555c7.964-3.224 16.785-5.032 26.079-5.032 1.396 0 2.777.055 4.151.134-7.675-6.225-15.26-13.04-22.642-20.422-28.474-28.474-48.611-59.957-58.285-88.027-6.487-2.318-12.801-4.088-18.861-5.275-2.148-.421-4.053 1.484-3.633 3.633 6.251 31.896 28.522 70.788 62.997 105.263 3.359 3.36 6.761 6.602 10.194 9.726z" fill="#02905d"/></g><g><g><path d="m148.501 478.484c-24.535-24.535-26.805-62.153-5.393-84.738-10.3-6.439-22.797-10.222-36.28-10.222-35.22 0-63.771 25.747-63.771 57.508s28.551 57.508 63.771 57.508c17.619 0 33.57-6.444 45.111-16.861-1.168-1.024-2.321-2.078-3.438-3.195z" fill="#8bc727"/><g><path d="m74.457 441.032c0-26.875 20.444-49.439 48.071-55.747-5.023-1.147-10.282-1.761-15.7-1.761-35.22 0-63.771 25.747-63.771 57.508s28.551 57.508 63.771 57.508c5.418 0 10.677-.614 15.7-1.761-27.627-6.308-48.071-28.872-48.071-55.747z" fill="#81b823"/></g></g><g><g><ellipse cx="189.166" cy="437.819" fill="#8bc727" rx="57.508" ry="63.771" transform="matrix(.707 -.707 .707 .707 -254.18 261.995)"/></g><g><path d="m179.614 478.484c-24.904-24.904-26.887-63.299-4.429-85.758 6.676-6.676 14.766-11.175 23.486-13.571-19.6-5.091-40.32-.708-54.599 13.571-22.458 22.458-20.476 60.853 4.429 85.758 17.501 17.501 41.658 23.665 62.271 18-11.227-2.916-22.088-8.93-31.158-18z" fill="#81b823"/></g></g></g></g><g><path d="m479.385 293.544c-4.214-5.019-8.762-9.709-13.589-14.055 7.925-11.794 12.568-25.97 12.568-41.216 0-11.91-2.911-23.771-8.418-34.3-1.919-3.67-6.452-5.089-10.122-3.17-3.67 1.92-5.089 6.452-3.17 10.122 4.453 8.512 6.71 17.713 6.71 27.348 0 11.68-3.408 22.576-9.278 31.754-3.646-2.637-7.409-5.1-11.282-7.37 4.483-7.06 7.091-15.42 7.091-24.385 0-25.171-20.478-45.649-45.649-45.649-7.418 0-14.422 1.789-20.619 4.945v-14.698c6.423-2.399 13.369-3.717 20.619-3.717 11.085 0 21.901 3.098 31.277 8.958 3.512 2.196 8.139 1.128 10.335-2.385 2.195-3.512 1.128-8.14-2.385-10.335-11.763-7.353-25.328-11.239-39.228-11.239-7.156 0-14.069 1.041-20.619 2.946v-58.099c13.468-.102 24.394-11.085 24.394-24.577 0-13.549-11.019-24.573-24.567-24.581l10.848-37.311c1.148-3.951.39-8.104-2.08-11.394-2.47-3.291-6.247-5.178-10.361-5.178h-92.219c-4.137 0-7.926 1.904-10.395 5.223s-3.203 7.495-2.014 11.457l11.167 37.203h-29.442c-4.733 0-9.037 2.605-11.232 6.8-2.194 4.194-1.881 9.215.818 13.105l10.351 14.911c6.235 8.984 16.487 14.347 27.423 14.347h3.367v118.651c0 8.933-6.331 16.533-15.054 18.072-23.991 4.233-46.454 14.841-65.106 30.466-4.54-32.115-14.302-60.595-28.278-81.383-1.969-2.93-5.256-4.679-8.793-4.679s-6.824 1.749-8.792 4.678c-19.804 29.458-31.163 74.349-31.163 123.162 0 7.371.272 14.673.797 21.86-3.701-4.138-7.549-8.214-11.54-12.205-2.6-2.6-5.271-5.171-8.166-7.86-3.034-2.818-7.78-2.644-10.6.391-2.819 3.035-2.644 7.781.391 10.6 2.759 2.563 5.3 5.008 7.769 7.477 13.616 13.616 25.487 28.173 35.132 42.825-1.492 1.065-2.938 2.214-4.343 3.429-4.711-2.445-9.756-4.411-15.054-5.834l-53.593-53.593c-2.929-2.929-7.678-2.929-10.606 0-2.929 2.929-2.929 7.678 0 10.606l40.443 40.443c-7.217.338-14.152 1.662-20.65 3.823-2.229-2.09-4.437-4.226-6.62-6.409-29.742-29.742-51.527-64.609-59.4-94.689 18.853 4.948 40.049 15.506 60.467 30.197 3.362 2.42 8.05 1.655 10.468-1.708 2.419-3.362 1.655-8.049-1.708-10.468-24.95-17.952-50.211-29.807-73.052-34.283-3.467-.68-7.025.409-9.525 2.91-2.501 2.5-3.588 6.061-2.91 9.525 3.289 16.781 10.833 35.468 21.819 54.04 11.385 19.247 25.931 37.78 43.235 55.083.853.853 1.718 1.688 2.579 2.527-19.417 11.626-32.274 31.65-32.274 54.373 0 35.845 31.972 65.008 71.271 65.008 17.099 0 32.79-5.541 45.082-14.732 13.151 9.755 28.55 14.693 43.539 14.693 12.913 0 25.513-3.683 36.111-11.094 15.583 7.14 32.896 11.134 51.128 11.134h106.128c67.924 0 123.184-55.26 123.184-123.184 0-32.544-11.583-64.263-32.615-89.312zm-75.139-85.92c16.9 0 30.649 13.749 30.649 30.649 0 6.492-2.035 12.513-5.493 17.472-9.864-4.432-20.247-7.721-30.941-9.737-8.595-1.621-14.833-9.203-14.833-18.03v-12.348c5.447-4.968 12.682-8.006 20.618-8.006zm-111.855-186.664h86.747l-11.305 38.883h-63.771zm-21.173 65.145-7.818-11.262h120.04c5.283 0 9.582 4.298 9.582 9.582s-4.298 9.582-9.582 9.582h-97.122c-6.022-.001-11.667-2.954-15.1-7.902zm-98.763 122.907c15.705 26.837 24.955 66.896 24.955 108.96 0 18.222-1.703 35.934-4.886 52.344-4.197-.588-8.405-.785-12.569-.605v-87.823c0-4.142-3.358-7.5-7.5-7.5s-7.5 3.358-7.5 7.5v90.237c-1.845.525-3.663 1.133-5.452 1.827-2.728-4.199-5.628-8.384-8.681-12.541-2.175-13.842-3.323-28.469-3.323-43.439 0-42.064 9.25-82.122 24.956-108.96zm-121.898 232.02c0-27.575 25.243-50.008 56.271-50.008 8.884 0 17.29 1.844 24.769 5.116-16.796 24.773-13.491 60.135 8.974 84.881-9.408 6.286-21.093 10.018-33.743 10.018-31.028.001-56.271-22.433-56.271-50.007zm103.247 32.148c-21.94-21.94-23.927-55.653-4.429-75.151 8.718-8.718 20.52-13.432 33.478-13.432.925 0 1.857.024 2.793.072 14.341.741 28.149 7.058 38.88 17.789 21.94 21.94 23.927 55.653 4.429 75.151-19.499 19.499-53.211 17.511-75.151-4.429zm235.012 17.86h-106.128c-13.777 0-26.954-2.6-39.083-7.317 2.193-2.688 4.131-5.526 5.796-8.492 10.399 3.759 21.608 5.81 33.287 5.81h106.128c49.507 0 91.398-37.025 97.442-86.124.506-4.111-2.417-7.854-6.527-8.36-4.116-.506-7.854 2.417-8.36 6.527-5.12 41.592-40.611 72.957-82.555 72.957h-106.128c-9.683 0-18.976-1.682-27.623-4.744 6.278-23.115-.528-50.042-19.932-69.445-8.279-8.279-17.932-14.248-28.071-17.906 2.453-12.388 4.081-25.444 4.843-38.852 3.171-5.733 6.908-11.185 11.206-16.247 14.936-17.589 35.452-29.507 57.83-33.611l110.777.208c22.109 4.33 42.341 16.322 57.034 33.822 10.012 11.925 17.167 26.251 20.689 41.43.936 4.035 4.961 6.546 9.001 5.61 4.035-.936 6.546-4.966 5.61-9.001-4.054-17.47-12.289-33.958-23.813-47.685-17.062-20.321-40.647-34.188-66.411-39.045-.454-.085-.914-.129-1.375-.13l-112.161-.21c-.427.019-.882.038-1.317.114-25.775 4.548-49.425 18.083-66.712 38.129-.142-4.666-.391-9.286-.739-13.854 17.973-17.761 40.939-29.752 65.713-34.124 15.905-2.806 27.448-16.618 27.448-32.843v-118.651h63.942v118.971c0 16.033 11.378 29.815 27.054 32.771 28.026 5.284 53.674 20.357 72.216 42.442 18.768 22.352 29.103 50.644 29.103 79.666 0 59.653-48.531 108.184-108.184 108.184z"/><path d="m69.248 426.699c-4.142 0-7.5 3.358-7.5 7.5v13.666c0 4.142 3.358 7.5 7.5 7.5s7.5-3.358 7.5-7.5v-13.666c0-4.142-3.357-7.5-7.5-7.5z"/><path d="m162.121 401.112-9.663 9.663c-2.929 2.929-2.929 7.677 0 10.606 1.464 1.465 3.384 2.197 5.303 2.197s3.839-.732 5.303-2.197l9.663-9.663c2.929-2.929 2.929-7.677 0-10.606-2.928-2.929-7.677-2.929-10.606 0z"/></g></g></svg>