<svg id="Layer_1" enable-background="new 0 0 512 512" viewBox="0 0 512 512" xmlns="http://www.w3.org/2000/svg"><path d="m352 45.3c-13.2 3-49.6 13.2-79.4 47-19.5 22.1-29.4 42.3-34.3 58.2-3.1 9.5-4.7 19.4-4.8 29.4 12.5 3 21.8 31.2 21.6 38.9l48.5-32.4c-1-3-7.7-16.1-8-34-.2-12.4 2.7-27.1 12.9-42.3 18.8-28.4 44.7-42 52.2-44-3.8-8.7-4.9-12.1-8.7-20.8z" fill="#689b2d"/><path d="m374.2 444.5c-18 11.5-38.9 17.7-60.2 17.9 27.6-16.9 38.5-105.7 38.5-128.6 0-67.3-10.5-101.9-30.8-127.8-9.8-12.4-28.7-13.4-43.8-9.7 0 0 12.5-6.8 25.7-9.8 3.6-.8 7.2-1.3 10.8-1.3h2.2c66.7 1.4 120.9 62.2 120.9 138.7 0 52.1-25.7 96.9-63.3 120.6z" fill="#fbb040"/><path d="m316.6 185.2c-.8 0-1.5 0-2.2 0-1.8 0-3.6.1-5.4.4 56.8 12 100.1 68 100.1 136.3 0 52.1-25.8 97-63.3 120.7-7.2 4.5-14.8 8.3-22.8 11.1-2.4 3.5-5.5 6.5-9.1 8.8 21.4-.2 42.2-6.4 60.2-17.9 37.6-23.7 63.4-68.5 63.4-120.7 0-76.5-54.2-137.4-120.9-138.7z" fill="#e5952c"/><path d="m280.5 194.9c-1.7.8-2.6 1.3-2.6 1.3 1.3-.3 2.6-.6 3.9-.8-.5-.1-.9-.3-1.3-.5z" fill="#e5952c"/><path d="m171.6 172.5c8.3 3.4 16.3 7.6 23.8 12.6-66.7 1.4-120.9 62.2-120.9 138.7 0 51 26.9 96 64.6 120.8-65.5-3.7-128.1-64.9-128.1-139.8 0-77.3 54.9-139.9 122.6-139.9 13 .1 25.9 2.7 38 7.6z" fill="#fbb040"/><path d="m40.2 305.8c0-72.8 48.7-132.6 110.9-139.3-5.8-1.1-11.7-1.6-17.5-1.6-67.7 0-122.6 62.6-122.6 139.9 0 74.9 62.6 136.1 128.1 139.8-4.2-2.8-8.2-5.7-12.1-8.9-48.3-20.8-86.8-71.1-86.8-129.9z" fill="#e5952c"/><path d="m139.1 444.6c-37.7-24.8-64.6-69.8-64.6-120.8 0-76.4 54.2-137.3 120.9-138.7h1.7c-2.8 2.2-5.1 5-6.6 8.2-14.5 29.6-30.8 73.2-30.8 140.5-.1 21 2.5 41.8 7.6 62.1 4.1 15.8 7.7 31.3 21.1 55.4 2.2 4 9.9 11.9 14.2 13.1.4.1.9.2 1.3.3-23 .1-45.4-7.3-64.8-20.1z" fill="#fbb040"/><path d="m194.8 459c-10.5-3.5-20.5-8.3-29.8-14.4-37.7-24.8-64.6-69.8-64.6-120.8 0-65.1 39.4-119 92.3-134.3 1.2-1.6 2.7-3.1 4.3-4.4-.6 0-1.1 0-1.7 0-66.7 1.4-120.9 62.2-120.9 138.7 0 51 26.9 96 64.6 120.8 19.5 12.8 41.8 20.2 64.9 20.2-.5-.1-.9-.2-1.3-.3-2.1-.7-5.1-2.9-7.8-5.5z" fill="#e5952c"/><path d="m197.1 185.1c9.4-7.4 24-8.1 36.4-5.2 12.5 3 22.5 9.7 22.4 17.3l-.1 12.7-1 226.1c0 4.2.9 14.2-3.5 20.3-1.3 1.9-3.2 3.4-5.4 4.2-5.1 1.9-32.4 5.8-41.8 4.2-.5-.1-.9-.2-1.3-.3-4.4-1.3-12-9.2-14.2-13.1-13.4-24.1-17.1-39.6-21.1-55.4-5.2-20.3-7.8-41.2-7.6-62.1 0-67.3 16.3-110.9 30.8-140.5 1.3-3.2 3.6-6 6.4-8.2z" fill="#fbb040"/><path d="m208.4 451.3c-13.4-24.1-17.1-39.6-21.1-55.4-5.2-20.3-7.8-41.2-7.6-62.1 0-67.3 16.3-110.9 30.8-140.5 1.6-3.2 3.8-6 6.6-8.2 3.9-2.9 8.5-4.9 13.3-5.8-11.6-2.1-24.7-.9-33.3 5.8-2.8 2.2-5.1 5-6.6 8.2-14.5 29.6-30.8 73.2-30.8 140.5-.1 21 2.5 41.8 7.6 62.1 4.1 15.8 7.7 31.3 21.1 55.4 2.2 4 9.9 11.9 14.2 13.1.4.1.9.2 1.3.3 4 .6 11.1.3 18.4-.4-4.3-1.4-11.7-9.1-13.9-13z" fill="#e5952c"/><path d="m378.4 164.9c67.7 0 122.6 62.7 122.6 139.9 0 74.4-61.8 135.3-126.8 139.7 37.6-23.7 63.4-68.5 63.4-120.7 0-76.4-54.2-137.3-120.9-138.7 9.1-6.1 18.9-11 29.2-14.7 10.4-3.6 21.4-5.5 32.5-5.5z" fill="#fbb040"/><path d="m381.3 164.7c-11.1-.2-22.1 1.5-32.7 5-.7.2-1.4.5-2.1.7 4.5-.6 9-.8 13.5-.7 67.7 1.3 121.4 65.1 119.8 142.3-1.2 62.1-45.3 113.9-97.7 131.2 61.2-8.6 117.6-65.8 119-136.2 1.6-77.2-52.1-141-119.8-142.3z" fill="#e5952c"/><path d="m313.9 462.4c-1.4.9-2.9 1.6-4.5 2.1-8.4 2.5-45.4 5.9-58.2-8.1 4.4-6.1 3.5-16.1 3.5-20.3l1-226.1h.5c.9-5.3 10.1-10.8 21.6-13.7 15-3.7 34-2.7 43.8 9.7 20.4 25.9 30.8 60.5 30.8 127.8 0 22.9-10.9 111.7-38.5 128.6z" fill="#efa13a"/><path d="m321.6 206c-9.2-11.7-26.5-13.2-41-10.3 6.7 1.6 12.8 4.9 17.1 10.3 20.4 25.9 30.8 60.5 30.8 127.8 0 22.9-10.9 111.7-38.5 128.6-1.4.9-2.9 1.6-4.5 2.1-3.1.8-6.4 1.4-9.6 1.6 13.9 1.6 28.7-.2 33.6-1.6 1.6-.5 3.1-1.2 4.5-2.1 27.6-16.9 38.5-105.7 38.5-128.6-.1-67.3-10.6-101.9-30.9-127.8z" fill="#e5952c"/><g fill="#b57426" opacity=".5"><path d="m298.7 188.6c0-.3 0-.6.1-.9-.2.1-.5.1-.7.2l.2.8z"/><path d="m459.9 395.8c-15.4 14.8-34.7 24.9-55.6 29.2-1.2 1.1-2.6 2.1-4 2.9-7.7 4.1-43.4 14.6-58.6 3.3-.9 2.1-2.5 3.9-4.5 5.2-4.6 2.8-30.7 11.9-40.2 12.3-22.6 4.5-46 1.6-67.6-7.2-65 9.1-138.2-38.8-152.8-112.2-14.5-73.4 24.1-143.4 87-159.7-9.7-3.1-19.8-4.7-29.9-4.8-67.8.1-122.7 62.7-122.7 140 0 74.9 62.6 136.1 128.1 139.8 19.5 12.8 41.8 20.2 64.9 20.2 9.4 1.5 36.8-2.3 41.8-4.2 2.2-.8 4.1-2.3 5.4-4.2 12.8 14 49.8 10.6 58.2 8.1 1.6-.5 3.1-1.2 4.5-2.1 21.4-.2 42.2-6.4 60.2-17.9 35.8-2.4 70.7-22 94.7-51.5-2.8 1.1-5.8 2-8.9 2.8z"/></g><path d="m345.8 170.4c-10.3 3.7-20.1 8.6-29.2 14.7-.8 0-1.5 0-2.2 0-3.6.1-7.3.5-10.8 1.3-1-3-7.7-16.1-8-34 22.9 4.7 41.4 12.9 50.2 18z" fill="#fbb040"/><path d="m238 150.5.2.1c-3.1 9.5-4.7 19.4-4.8 29.4-12.3-2.9-27-2.2-36.4 5.2-.6 0-1.1 0-1.7 0-7.5-5-15.4-9.2-23.8-12.6 9.9-5.8 36-17.7 66.5-22.1z" fill="#fbb040"/><path d="m378.4 158.9c-10.5 0-21.2 1.7-31.8 5.1-9.5-5.2-25.8-11.9-44.9-16.4.6-10.3 3.7-22.1 11.8-34.3 17.5-26.5 41.9-39.7 48.8-41.5 1.7-.4 3.1-1.6 3.9-3.2s.8-3.4.1-5l-8.7-20.8c-1.2-2.6-4-4.1-6.8-3.5-18.5 4.2-53.8 16.2-82.6 48.9-18.5 21-28.8 40.5-34.4 56.8-27.4 4.5-50.9 14.5-62.6 20.9-12.4-4.6-25.1-7.1-37.4-7.1-71.1.1-128.8 65.6-128.8 146 0 37.1 14.6 72.9 41.2 100.8 25.1 26.4 58.4 42.7 91.5 44.9 20.3 12.6 43.4 19.7 65.6 20.2 1.8.3 4 .4 6.5.4 13.3 0 33.8-3.3 38.1-4.9 1.3-.5 2.5-1.1 3.5-1.8 6.9 4.8 17.1 7.6 30.3 8.2 1.9.1 3.9.1 5.8.1 9.9 0 19.2-1.2 23.7-2.5 1.5-.5 3-1.1 4.4-1.8 21.9-.4 42.6-6.9 60.6-18 32.7-2.6 65.4-19 90-45.2 26.3-27.9 40.8-63.6 40.8-100.4 0-80.4-57.7-145.9-128.6-145.9zm-47 11.1c-5.6 2.6-11.1 5.7-16.5 9.2-.2 0-.3 0-.5 0-2.3 0-4.7.2-7.1.6-1.8-4.4-4.1-11.2-5.2-19.6 11.3 2.7 21.4 6.3 29.3 9.8zm-101.4-12c-1.2 5.6-1.9 10.6-2.3 14.9-11.1-1.4-22.8.1-31.6 5.7-3.6-2.3-7.2-4.3-10.8-6.2 10.9-5 26.8-10.9 44.7-14.4zm-175.1 239.4c-24.4-25.7-37.9-58.6-37.9-92.6 0-73.9 52.3-133.9 116.6-133.9 14.2 0 28.5 3.4 42.6 10.2-26.4 4.9-50.8 18.8-70 40.4-24.3 27.2-37.7 63.6-37.7 102.3 0 38.5 14.5 75.3 41 103.5 2.5 2.7 5.1 5.2 7.8 7.7-22.9-6-44.8-19.1-62.4-37.6zm63.3 21.8c-24.3-26-37.7-59.9-37.7-95.3 0-35.8 12.3-69.3 34.6-94.3 18.9-21.2 43.1-34.2 69.3-37.5-13.4 27.5-30.8 71.9-30.8 141.8 0 22.5 2.6 43.3 7.8 63.6l.6 2.5c3.9 15.2 8 30.8 21.1 54.3.4.8 1.1 1.7 1.8 2.7-24.4-4.6-48-17.8-66.7-37.8zm131.6-222-1 240.9c.2 7.7-.3 15.1-5.1 16.8-4.8 1.8-33.4 5.5-39.4 3.8-2.3-.7-8.8-7.1-10.6-10.3-12.4-22.1-16-36.4-19.9-51.5l-.6-2.5c-5-19.3-7.4-39.1-7.4-60.6 0-68.5 17.2-111.5 30.2-137.9 3.1-6.3 11.6-11.7 24.1-11.7 3.8 0 8 .5 12.5 1.6 11.5 2.8 17.5 8.3 17.4 11.2-.2.1-.2.2-.2.2zm-10.2-21.7c1.9-35.2 26.6-66.9 37.5-79.2 24.3-27.5 53.5-39.1 71.4-43.9l4.3 10.4c-4.7 2.2-10.7 5.6-17.5 10.6-8.6 6.3-21.1 17.3-31.8 33.4-15.2 23-17.9 48.5-7.9 75.7-9.5 2.9-17.5 7-19.9 8.2-4.7 1.2-9.7 3-13.9 5.4-.7-8.7-9.1-16.4-22.2-20.6zm68.1 283.2c-8 2.4-36.5 4.2-49-3.9 2.3-6.2 2.1-13.1 2.1-17l1-226.9c.5-1.7 7.8-7.1 20.8-9.6 22.5-4.2 32 5.3 34.4 8.3 21 26.7 29.5 62.6 29.5 124.1-.1 28.3-13.8 117.5-38.8 125zm21.5-3.5c7.4-10.9 13.8-27.3 19.1-49.1 6.9-28.7 10.1-59.5 10.1-72.3 0-64.4-9.3-102.5-32.1-131.5-4.1-5.2-9.5-8.8-15.4-10.9 1.2-.1 2.4-.2 3.5-.2 31.1 0 60.4 13.6 82.5 38.4 22.3 25 34.6 58.5 34.6 94.3 0 66.9-44.6 122.5-102.3 131.3zm128.3-58.2c-17.1 18.1-38.3 31.1-60.4 37.4 28.4-26.5 46.5-66.2 46.5-110.6 0-38.7-13.4-75.1-37.7-102.3-19.3-21.6-43.6-35.5-70-40.4 14.1-6.8 28.4-10.2 42.6-10.2 64.3 0 116.6 60.1 116.6 133.9-.1 33.8-13.4 66.5-37.6 92.2z"/></svg>