<svg id="Capa_1" enable-background="new 0 0 511.114 511.114" height="512" viewBox="0 0 511.114 511.114" width="512" xmlns="http://www.w3.org/2000/svg"><g><g><path d="m382.454 98.371 21.264-74.666c1.425-5.004-1.56-10.197-6.601-11.484l-17.334-4.425c-5.041-1.287-10.15 1.84-11.298 6.914l-32.322 142.907-15.962 72.11h17.711z" fill="#fedba6"/><path d="m362.611 180.542 103.55-148.271c2.979-4.265 1.85-10.148-2.495-13.009l-14.943-9.836c-4.346-2.86-10.195-1.571-12.935 2.852l-91.551 147.785-43.667 77.801 19.632 7.344z" fill="#fee8c7"/><path d="m429.21 248.951-1.855-8.856c-2.547-12.162-11.657-21.892-23.626-25.232l-.391-.109c-3.169-.884-5.722-3.236-6.862-6.322-4.829-13.066-17.284-21.742-31.214-21.742l-4.079-9.457c-5.261-12.197-17.272-20.096-30.555-20.096h-.805c-5.866 0-11.112-3.651-13.149-9.152-4.911-13.26-17.667-21.969-31.805-21.714-3.475.063-6.834-1.249-9.347-3.65l-8.821-8.427c-12.861-12.286-33.111-12.286-45.972 0l-8.821 8.427c-2.513 2.401-5.872 3.712-9.347 3.65-14.138-.255-26.894 8.454-31.805 21.714-2.037 5.501-7.283 9.152-13.149 9.152h-.805c-13.283 0-25.294 7.9-30.555 20.096l-4.079 9.457c-13.93 0-26.385 8.676-31.214 21.742-1.141 3.086-3.693 5.438-6.862 6.322l-.391.109c-11.968 3.34-21.079 13.07-23.626 25.232l-1.855 8.856v49.61h370.99z" fill="#faf7f7"/><path d="m104.664 269.774 1.855-8.856c2.547-12.162 11.657-21.892 23.626-25.232l.391-.109c3.169-.884 5.721-3.236 6.862-6.322 4.829-13.066 17.284-21.742 31.214-21.742l4.079-9.457c5.261-12.197 17.272-20.096 30.555-20.096h.805c5.866 0 11.112-3.651 13.149-9.152 4.911-13.26 17.667-21.969 31.805-21.714 3.475.063 6.834-1.249 9.347-3.65l8.821-8.427c5.005-4.781 11.156-7.685 17.527-8.745-3.405.011-6.712-1.296-9.178-3.652l-8.821-8.427c-12.862-12.286-33.111-12.286-45.973 0l-8.821 8.427c-2.513 2.401-5.872 3.712-9.347 3.65-14.138-.255-26.894 8.454-31.805 21.714-2.037 5.501-7.283 9.152-13.149 9.152h-.805c-13.283 0-25.294 7.9-30.555 20.096l-4.079 9.457c-13.93 0-26.385 8.676-31.214 21.742-1.141 3.086-3.693 5.438-6.862 6.322l-.391.109c-11.968 3.34-21.079 13.07-23.626 25.232l-1.855 8.856v49.61h46.444v-28.786z" fill="#f9f3f1"/><path d="m344.416 485.928c0 9.768-7.918 17.686-17.686 17.686h-166.03c-9.768 0-17.686-7.918-17.686-17.686v-89.255h201.402z" fill="#c8effe"/><g><g id="XMLID_160_"><g><path d="m444.145 258.887v43.61c0 89.92-72.89 162.81-162.81 162.81h-75.24c-89.92 0-162.81-72.89-162.81-162.81v-43.61c0-5.49 4.45-9.94 9.93-9.94h381c5.48 0 9.93 4.45 9.93 9.94z" fill="#c8effe"/></g></g><path d="m342.57 451.218h-75.24c-89.92 0-162.81-72.89-162.81-162.81v-39.462h-51.305c-5.48 0-9.93 4.45-9.93 9.94v43.61c0 89.92 72.89 162.81 162.81 162.81h75.24c23.71 0 46.233-5.072 66.551-14.184-1.766.058-3.536.096-5.316.096z" fill="#99e6fc"/></g></g><g><path d="m234.171 222.737c5.983-4.896 14.329-5.308 20.766-1.025l2.203 1.465c1.278.85 2.72 1.256 4.147 1.256 2.426 0 4.807-1.176 6.251-3.347 2.294-3.449 1.358-8.104-2.09-10.399l-2.203-1.465c-11.957-7.954-27.458-7.188-38.573 1.905-3.206 2.623-3.678 7.348-1.055 10.554s7.348 3.679 10.554 1.056z"/><path d="m281.776 184.771c2.912-2.383 6.974-2.585 10.107-.499l1.412.939c1.277.85 2.72 1.256 4.147 1.256 2.426 0 4.807-1.176 6.251-3.347 2.294-3.449 1.358-8.104-2.091-10.398l-1.411-.938c-8.651-5.757-19.871-5.203-27.914 1.378-3.206 2.623-3.679 7.348-1.056 10.554 2.625 3.205 7.35 3.677 10.555 1.055z"/><path d="m332.452 220.898c2.912-2.383 6.974-2.584 10.107-.498l1.411.938c1.277.849 2.72 1.256 4.146 1.256 2.426 0 4.808-1.176 6.252-3.348 2.294-3.449 1.357-8.104-2.092-10.398l-1.41-.938c-8.653-5.757-19.871-5.204-27.915 1.378-3.206 2.623-3.678 7.349-1.055 10.554s7.351 3.678 10.556 1.056z"/><path d="m190.987 186.467c1.427 0 2.87-.407 4.147-1.256l1.412-.939c3.132-2.083 7.194-1.884 10.107.5 3.206 2.623 7.931 2.151 10.554-1.056 2.623-3.206 2.15-7.931-1.056-10.554-8.043-6.581-19.261-7.136-27.913-1.379l-1.412.939c-3.449 2.294-4.385 6.95-2.091 10.398 1.445 2.172 3.826 3.347 6.252 3.347z"/><path d="m140.313 222.594c1.427 0 2.87-.407 4.146-1.256l1.413-.939c3.133-2.084 7.195-1.884 10.106.499 3.207 2.623 7.93 2.151 10.554-1.055 2.623-3.206 2.15-7.931-1.055-10.554-8.043-6.582-19.261-7.134-27.913-1.379l-1.411.938c-3.449 2.294-4.386 6.949-2.092 10.398 1.445 2.172 3.825 3.348 6.252 3.348z"/><path d="m475.026 23.828c-.859-4.477-3.429-8.323-7.237-10.83l-14.943-9.836c-3.809-2.507-8.356-3.347-12.808-2.365-4.452.981-8.226 3.656-10.626 7.532l-25.016 40.382 6.537-22.953c1.248-4.384.685-8.975-1.587-12.927s-5.956-6.75-10.373-7.878l-17.333-4.424c-4.416-1.129-8.992-.439-12.879 1.941-3.889 2.38-6.584 6.14-7.589 10.585l-5.474 24.197c-.914 4.04 1.621 8.056 5.661 8.97 4.04.916 8.056-1.621 8.97-5.66l5.473-24.197c.134-.592.502-.925.789-1.1.286-.175.75-.353 1.338-.202l17.333 4.425c.589.15.912.528 1.079.819s.332.76.165 1.344l-20.978 73.661-27.692 44.702 15.437-68.253c.914-4.04-1.621-8.056-5.661-8.97-4.045-.917-8.057 1.621-8.97 5.661l-18.362 81.186h-.455c-2.715 0-5.173-1.711-6.116-4.257-6.01-16.227-21.654-26.93-38.973-26.608-1.514.033-2.94-.531-4.032-1.574l-8.821-8.427c-15.795-15.088-40.539-15.087-56.334 0l-8.821 8.427c-1.091 1.042-2.56 1.613-4.031 1.574-17.309-.327-32.964 10.381-38.974 26.607-.943 2.546-3.401 4.257-6.116 4.257h-.805c-16.292 0-30.989 9.666-37.442 24.626l-2.263 5.247c-14.916 1.888-27.881 11.99-33.178 26.322-.306.826-.995 1.461-1.85 1.7l-.384.107c-14.724 4.109-25.817 15.956-28.951 30.918l-.618 2.949c-9.1.573-16.333 8.138-16.333 17.379v43.61c0 68.748 40.947 128.108 99.731 154.986v28.445c0 13.888 11.298 25.187 25.186 25.187h166.029c13.888 0 25.186-11.299 25.186-25.187v-28.453c13.838-6.298 26.863-14.448 38.656-24.319 3.177-2.658 3.597-7.389.938-10.565-2.659-3.177-7.389-3.596-10.565-.938-27.861 23.317-63.237 36.159-99.613 36.159h-75.233c-85.641 0-155.315-69.674-155.315-155.315v-3.936h268.679c4.142 0 7.5-3.358 7.5-7.5s-3.358-7.5-7.5-7.5h-268.679v-24.674c0-1.343 1.092-2.435 2.435-2.435h36.505c4.142 0 7.5-3.358 7.5-7.5s-3.358-7.5-7.5-7.5h-22.264c2.032-9.371 9.009-16.783 18.263-19.365l.384-.107c5.471-1.526 9.913-5.619 11.882-10.946 3.723-10.073 13.439-16.841 24.179-16.841 2.994 0 5.701-1.781 6.887-4.53l4.079-9.457c4.08-9.457 13.37-15.567 23.669-15.567h.805c8.959 0 17.069-5.645 20.182-14.047 3.799-10.258 13.69-17.025 24.637-16.82 5.47.092 10.694-1.935 14.663-5.726l8.821-8.427c9.983-9.538 25.626-9.539 35.611 0l8.821 8.427c3.968 3.791 9.16 5.808 14.663 5.726 10.944-.192 20.837 6.562 24.637 16.82 3.113 8.401 11.223 14.046 20.182 14.046h.805c10.299 0 19.589 6.11 23.669 15.566l4.079 9.457c1.186 2.749 3.893 4.53 6.887 4.53 10.739 0 20.456 6.768 24.179 16.842 1.969 5.328 6.411 9.419 11.875 10.944l.397.111c9.248 2.58 16.224 9.992 18.257 19.363h-298.286c-4.142 0-7.5 3.358-7.5 7.5s3.358 7.5 7.5 7.5h312.526c1.343 0 2.435 1.092 2.435 2.435v24.674h-84.451c-4.142 0-7.5 3.358-7.5 7.5s3.358 7.5 7.5 7.5h84.451v3.936c0 35.836-11.867 69.505-34.317 97.368-2.599 3.225-2.091 7.947 1.134 10.546 1.386 1.117 3.049 1.66 4.701 1.66 2.191 0 4.363-.956 5.845-2.795 24.271-30.121 37.637-68.042 37.637-106.779v-43.61c0-9.242-7.233-16.806-16.333-17.379l-.618-2.949c-3.133-14.962-14.227-26.81-28.945-30.917l-.397-.111c-.849-.237-1.538-.872-1.843-1.698-5.067-13.709-17.156-23.528-31.251-26.009l100.05-143.255c2.61-3.738 3.575-8.261 2.716-12.738zm-193.694 448.984c19.037 0 37.822-3.215 55.584-9.348v22.465c0 5.617-4.569 10.187-10.186 10.187h-166.03c-5.617 0-10.186-4.57-10.186-10.187v-22.439c17.429 6.034 36.129 9.323 55.584 9.323h75.234zm178.68-444.835-96.556 138.256c-2.485-3.376-5.465-6.31-8.802-8.745l87.508-141.259c.32-.517.777-.711 1.105-.783.327-.073.824-.088 1.332.246l14.943 9.836c.507.334.689.797.752 1.126s.066.826-.282 1.323z"/></g></g></svg>