<svg id="Capa_1" enable-background="new 0 0 512 512" height="512" viewBox="0 0 512 512" width="512" xmlns="http://www.w3.org/2000/svg"><g><g><path clip-rule="evenodd" d="m54.593 243.805c34.295 11.084 76.278-23.784 93.752-77.844 22.551-69.793-11.46-91.14-8.425-129.381.823-10.347-1.248-23.189-10.127-26.052-8.907-2.892-18.098 6.322-23.488 15.195-19.743 32.458-59.769 30.927-82.15 100.153-17.474 54.06-3.858 106.845 30.438 117.929z" fill="#ffda8f" fill-rule="evenodd"/></g><g><path clip-rule="evenodd" d="m267.853 323.86c35.941-2.835 61.414-51.027 56.96-107.667-5.787-73.11-45.387-79.885-57.187-116.398-3.177-9.865-9.985-20.949-19.289-20.241-9.333.737-14.297 12.757-15.914 23.019-5.844 37.533-43.458 51.367-37.728 123.882 4.482 56.641 37.246 100.24 73.158 97.405z" fill="#fff3da" fill-rule="evenodd"/></g><g><path clip-rule="evenodd" d="m429.996 236.604c11.233-36.683 50.72-44.082 55.372-117.277 3.603-56.697-22.637-104.52-58.605-106.788s-68.052 41.842-71.626 98.539c-4.624 72.6 33.189 85.867 39.628 123.287 1.759 10.234 6.921 22.168 16.254 22.764 9.333.595 15.942-10.603 18.977-20.525z" fill="#ffda8f" fill-rule="evenodd"/></g><g><path clip-rule="evenodd" d="m472.206 493.525c10.24 1.758 23.232.879 26.892-7.711 3.659-8.618-4.681-18.568-13.02-24.748-30.863-22.792-24.679-62.48-92.191-91.253-52.308-22.282-106.148-13.494-120.274 19.645-14.155 33.111 16.793 78.043 69.073 100.324 66.971 28.547 92.076-2.664 129.52 3.743z" fill="#fff3da" fill-rule="evenodd"/></g><g><path clip-rule="evenodd" d="m182.044 475.949c26.523-24.408 16.793-78.043-21.7-119.856-49.698-53.947-85.043-34.868-116.87-56.3-8.595-5.811-20.821-10.347-27.686-3.997-6.893 6.322-3.376 18.852 1.702 27.895 18.58 33.139-2.468 67.214 46.833 120.735 38.521 41.785 91.226 55.902 117.721 31.523z" fill="#ffda8f" fill-rule="evenodd"/></g><g><path d="m51.517 253.321c5.32 1.719 10.801 2.569 16.369 2.569 15.321 0 31.288-6.436 46.279-18.884 19.149-15.902 34.667-40.04 43.695-67.97 0 0 0 0 0-.001 15.22-47.103 6.03-74.667-1.355-96.815-4.067-12.197-7.579-22.731-6.617-34.848 1.475-18.567-5.049-32.5-17.01-36.357-11.987-3.892-25.447 3.587-35.118 19.511-6.243 10.264-15.194 16.819-25.56 24.409-18.905 13.843-42.433 31.072-57.561 77.865-9.028 27.929-10.577 56.573-4.363 80.655 6.634 25.705 21.28 43.415 41.241 49.866zm-17.846-124.368c13.137-40.633 32.053-54.485 50.346-67.88 11.073-8.108 22.523-16.492 30.835-30.159 4.583-7.545 9.615-10.919 11.517-10.919.133 0 .251.017.353.05 1.524.491 3.975 6.331 3.227 15.743-1.283 16.17 3.223 29.687 7.582 42.758 7.127 21.378 14.498 43.483 1.296 84.339v-.001c-15.489 47.918-52.654 80.618-81.16 71.404-13.211-4.269-23.163-16.994-28.024-35.831-5.278-20.455-3.847-45.139 4.028-69.504z"/><path d="m384.909 236.058c3.154 18.352 12.915 30.25 25.473 31.05.469.03.934.045 1.397.045 12.135 0 22.452-10.207 27.78-27.621 3.559-11.622 10.697-20.133 18.961-29.99 15.009-17.899 33.688-40.175 36.828-89.58v-.001c1.861-29.291-3.706-57.436-15.676-79.25-12.777-23.283-31.344-36.833-52.28-38.153-20.937-1.316-41.065 9.781-56.679 31.258-14.634 20.129-23.711 47.344-25.557 76.626-3.126 49.08 12.439 73.739 24.945 93.553 6.853 10.859 12.772 20.236 14.808 32.063zm-19.791-124.351c1.61-25.547 9.343-49.032 21.773-66.129 10.891-14.981 24.038-23.121 37.229-23.121.671 0 1.342.021 2.013.063 13.855.873 26.641 10.751 36.004 27.814 10.168 18.529 14.874 42.806 13.25 68.359-2.724 42.854-17.705 60.72-32.193 77.998-8.855 10.56-18.012 21.479-22.76 36.987-2.734 8.936-7.086 13.471-8.725 13.471-.018 0-.036 0-.053-.001-1.604-.103-5.434-5.164-7.035-14.48-2.71-15.749-10.282-27.746-17.605-39.349-12.101-19.17-24.612-38.992-21.898-81.612z"/><path d="m167.701 349.32c0-.001-.001-.002-.002-.003-33.547-36.415-62.089-41.976-85.023-46.444-12.628-2.46-23.533-4.585-33.602-11.365-15.46-10.452-30.817-11.621-40.046-3.083-9.287 8.517-9.386 23.906-.262 40.156 5.877 10.482 7.183 21.497 8.695 34.251 2.757 23.257 6.188 52.199 39.509 88.373 19.899 21.585 44.097 37.017 68.137 43.454 8.175 2.19 16.042 3.273 23.466 3.273 15.879 0 29.734-4.953 40.243-14.624 15.437-14.206 21.333-36.417 16.6-62.542-4.434-24.471-17.827-49.844-37.715-71.446zm7.571 119.27c-22.015 20.257-69.456 6.088-103.594-30.94-28.929-31.406-31.688-54.672-34.355-77.173-1.616-13.629-3.286-27.723-11.114-41.684-4.62-8.228-4.84-14.547-3.631-15.656.295-.273.912-.431 1.795-.431 2.635 0 7.64 1.41 13.514 5.382 13.45 9.056 27.437 11.781 40.965 14.417 22.14 4.314 45.035 8.774 74.134 40.361 17.352 18.848 28.983 40.677 32.748 61.465 3.468 19.14-.248 34.858-10.462 44.259z"/><path d="m268.64 333.83c20.915-1.65 39.27-15.483 51.682-38.95 11.627-21.984 16.762-50.207 14.461-79.476-3.906-49.345-22.927-71.325-38.212-88.985-8.419-9.727-15.689-18.128-19.425-29.689-5.7-17.702-17.035-28.12-29.595-27.145-12.715 1.003-22.063 12.753-25.008 31.448-1.85 11.868-7.625 21.338-14.311 32.302-8.232 13.498-17.562 28.798-21.811 51.938-.998 5.432 2.598 10.644 8.03 11.642 5.436.987 10.645-2.599 11.642-8.031 3.58-19.499 11.529-32.532 19.215-45.136 7.146-11.718 14.535-23.834 16.995-39.619 1.474-9.352 5.224-14.48 6.794-14.604.021-.001.043-.002.066-.002 1.661 0 6.09 4.472 8.948 13.347 4.989 15.437 14.316 26.214 23.336 36.637 14.754 17.047 30.01 34.675 33.397 77.47 2.007 25.531-2.326 49.877-12.203 68.55-9.096 17.199-21.73 27.271-35.583 28.364-19.272 1.528-38.875-14.736-51.162-42.473-2.237-5.051-8.145-7.332-13.194-5.094-5.05 2.237-7.33 8.145-5.093 13.194 15.056 33.989 40.415 54.476 66.933 54.475 1.362.001 2.729-.053 4.098-.163z"/><path d="m492.018 453.021c-9.779-7.222-15.43-16.783-21.973-27.856-11.884-20.108-26.674-45.133-72.238-64.553-.001 0-.001-.001-.001-.001-27.022-11.51-55.428-15.637-79.987-11.629-26.217 4.282-45.184 17.263-53.403 36.545-5.932 13.876-5.634 29.758.862 45.93 10.988 27.353 38.458 52.596 73.485 67.525 23.205 9.892 41.989 13.018 57.867 13.018 15.095 0 27.564-2.826 38.703-5.351 12.527-2.842 23.344-5.293 35.182-3.267 18.374 3.149 32.854-2.076 37.788-13.659 4.982-11.733-1.101-25.45-16.285-36.702zm-2.121 28.873c-.627 1.47-6.673 3.374-16.005 1.774-15.759-2.697-29.598.44-42.981 3.474-22.117 5.015-44.99 10.2-84.306-6.559-29.799-12.701-53.85-34.381-62.767-56.58-3.12-7.767-5.832-19.383-1.027-30.622 7.152-16.778 28.168-25.773 53.986-25.773 16.546 0 35.067 3.697 53.167 11.406 39.527 16.846 51.389 36.919 62.861 56.329 7.012 11.864 14.262 24.133 27.297 33.758 7.595 5.628 10.398 11.327 9.775 12.793z"/><path d="m195.234 241.928c5.523 0 10.001-4.506 10.001-10.029s-4.477-10.001-10.001-10.001c-5.523 0-10.001 4.478-10.001 10.001v.057c0 5.522 4.478 9.972 10.001 9.972z"/></g></g></svg>