<svg height="512" viewBox="0 0 64 64" width="512" xmlns="http://www.w3.org/2000/svg"><g id="Filled_outline" data-name="Filled outline"><path d="m51 61h-15c-2.568 0-5.779-2.441-6-5l-4-53h35l-4 53c-.221 2.559-3.432 5-6 5z" fill="#4f97d5"/><g fill="#f9bb4b"><circle cx="23" cy="56" r="2"/><circle cx="14" cy="59" r="2"/><circle cx="7" cy="51" r="2"/><circle cx="13" cy="51" r="2"/><circle cx="23" cy="44" r="2"/><circle cx="5" cy="42" r="2"/></g><path d="m57 56 3.125-41.411c-2.758-.82-4.408-2.589-8.125-2.589-4.832 0-5.168 3-10 3s-4.166-3-9-3c-3.4 0-4.253 1.485-6.142 2.365l3.142 41.635c.221 2.559 3.432 5 6 5h15c2.568 0 5.779-2.441 6-5z" fill="#f4f4e6"/><path d="m36 61h15c2.568 0 5.779-2.441 6-5h-27c.221 2.559 3.432 5 6 5z" fill="#4f97d5"/><path d="m23 59a3 3 0 1 0 -3-3 3 3 0 0 0 3 3zm0-4a1 1 0 1 1 -1 1 1 1 0 0 1 1-1z"/><path d="m11 59a3 3 0 1 0 3-3 3 3 0 0 0 -3 3zm4 0a1 1 0 1 1 -1-1 1 1 0 0 1 1 1z"/><path d="m7 48a3 3 0 1 0 3 3 3 3 0 0 0 -3-3zm0 4a1 1 0 1 1 1-1 1 1 0 0 1 -1 1z"/><path d="m13 48a3 3 0 1 0 3 3 3 3 0 0 0 -3-3zm0 4a1 1 0 1 1 1-1 1 1 0 0 1 -1 1z"/><path d="m23 47a3 3 0 1 0 -3-3 3 3 0 0 0 3 3zm0-4a1 1 0 1 1 -1 1 1 1 0 0 1 1-1z"/><path d="m8 42a3 3 0 1 0 -3 3 3 3 0 0 0 3-3zm-4 0a1 1 0 1 1 1 1 1 1 0 0 1 -1-1z"/><path d="m54 29h2v2h-2z"/><path d="m47.482 39h14.036v2h-14.036z" transform="matrix(.071 -.997 .997 .071 10.717 91.51)"/><path d="m32 19h2v2h-2z"/><path d="m36 23h2v2h-2z"/><path d="m61 2h-35a1 1 0 0 0 -1 1.075l4 53.011c.278 3.185 4.08 5.914 7 5.914h15c2.92 0 6.722-2.729 7-5.925l4-53a1 1 0 0 0 -1-1.075zm-10 58h-15a5.952 5.952 0 0 1 -4.669-3h24.336a5.945 5.945 0 0 1 -4.667 3zm5.073-5h-25.146l-3.027-40.064c.343-.2.667-.4.972-.6a6.343 6.343 0 0 1 4.128-1.336 5.631 5.631 0 0 1 3.916 1.312 7.546 7.546 0 0 0 5.084 1.688 9.8 9.8 0 0 0 5.5-1.635 7.8 7.8 0 0 1 4.5-1.365 10.585 10.585 0 0 1 5.07 1.4c.632.307 1.281.621 2 .89zm3.155-41.807c-.431-.184-.853-.384-1.285-.593a12.357 12.357 0 0 0 -5.943-1.6 9.8 9.8 0 0 0 -5.5 1.635 7.8 7.8 0 0 1 -4.5 1.365 5.631 5.631 0 0 1 -3.916-1.312 7.546 7.546 0 0 0 -5.084-1.688 8.283 8.283 0 0 0 -5.23 1.667l-.036.023-.656-8.69h32.844z"/></g></svg>