<svg id="Capa_1" enable-background="new 0 0 511.999 511.999" height="512" viewBox="0 0 511.999 511.999" width="512" xmlns="http://www.w3.org/2000/svg"><g><path d="m472.249 210.254h-432.499c-6.9 0-12.493 5.593-12.493 12.493v26.178c0 6.9 5.593 12.493 12.493 12.493h432.499c6.9 0 12.493-5.593 12.493-12.493v-26.178c0-6.9-5.593-12.493-12.493-12.493z" fill="#75cef9"/><path d="m462.464 261.418h-412.929c0 86 52.581 159.718 127.348 190.762 3.841 1.595 5.935 5.755 4.887 9.78l-9.231 35.438c-.936 3.592 1.775 7.1 5.488 7.1h155.948c3.713 0 6.424-3.508 5.488-7.101l-9.231-35.438c-1.048-4.025 1.046-8.185 4.887-9.78 74.764-31.043 127.345-104.762 127.345-190.761z" fill="#75cef9"/><path d="m472.249 210.254h-27.507v.695c0 16.828-13.641 30.469-30.469 30.469h-387.016v7.507c0 6.9 5.593 12.493 12.493 12.493h432.5c6.9 0 12.493-5.593 12.493-12.493v-26.178c-.001-6.9-5.594-12.493-12.494-12.493z" fill="#6bbef6"/><path d="m335.116 452.18c74.767-31.044 127.348-104.762 127.348-190.762h-40.957c-6.991 72.73-51.715 134.436-114.363 165.308-10.797 5.321-16.311 17.55-13.277 29.198 3.766 14.458-7.145 28.575-22.085 28.575h-95.885l-3.36 12.9c-.936 3.593 1.775 7.1 5.488 7.1h155.948c3.712 0 6.424-3.508 5.488-7.101l-9.231-35.438c-1.049-4.025 1.045-8.185 4.886-9.78z" fill="#6bbef6"/><g fill="#f4fbff"><path d="m131.845 100.13 55.876 32.26c4.113 2.374 6.411 6.685 6.408 11.115v-18.595c0-7.076 5.736-12.813 12.813-12.813h56.208c-.026-.109-.054-.219-.083-.328l-25.394-94.771c-1.831-6.835-8.857-10.891-15.692-9.06l-94.771 25.394c-6.835 1.831-10.891 8.857-9.06 15.692z"/><path d="m263.068 111.769c.029.109.057.219.083.328h41.905c7.076 0 12.813 5.736 12.813 12.813v18.596c-.003-4.431 2.295-8.741 6.408-11.115l55.876-32.26 13.693-51.105c1.832-6.835-2.225-13.861-9.06-15.692l-94.769-25.396c-6.835-1.831-13.861 2.225-15.692 9.06l-18.325 68.391z"/><path d="m40.883 190.494 34.225 19.76h82.453l34.85-60.362c3.538-6.128 1.438-13.964-4.69-17.502l-84.969-49.057c-6.128-3.538-13.964-1.438-17.502 4.69l-49.057 84.969c-3.538 6.128-1.438 13.964 4.69 17.502z"/><path d="m317.869 210.254v-85.344c0-7.076-5.737-12.813-12.813-12.813h-98.114c-7.076 0-12.813 5.736-12.813 12.813v85.344z"/><path d="m354.437 210.254h82.454l34.225-19.76c6.128-3.538 8.228-11.374 4.69-17.502l-49.057-84.969c-3.538-6.128-11.374-8.228-17.502-4.69l-84.969 49.057c-6.128 3.538-8.228 11.374-4.69 17.502z"/></g><path d="m263.068 111.769-25.394-94.771c-1.831-6.835-8.857-10.891-15.692-9.06l-19.945 5.344 10.073 37.594c6.075 22.671-8.159 41.22-31.629 41.22h-13.539c-7.076 0-12.813 5.736-12.813 12.813v8.086l33.591 19.394c4.113 2.374 6.411 6.685 6.408 11.115v-18.594c0-7.076 5.736-12.813 12.812-12.813h56.209c-.024-.11-.052-.219-.081-.328z" fill="#e4f6ff"/><path d="m384.787 33.332-30.512-8.176c.054 1.272-.081 2.573-.428 3.868l-5.937 22.157c-4.967 18.536-17.093 34.339-33.711 43.934l-29.414 16.982h20.271c7.076 0 12.813 5.736 12.813 12.813v18.596c-.002-4.431 2.295-8.741 6.408-11.115l55.876-32.26 13.694-51.105c1.832-6.837-2.224-13.863-9.06-15.694z" fill="#e4f6ff"/><path d="m187.721 132.39-84.969-49.057c-2.558-1.477-5.414-1.971-8.13-1.6l53.099 30.657c6.128 3.538 8.228 11.374 4.69 17.502l-18.977 32.869c-9.822 17.013-27.974 27.493-47.619 27.493h-45.33c.131.082.263.162.398.24l34.225 19.76h82.453l34.85-60.362c3.538-6.128 1.438-13.964-4.69-17.502z" fill="#e4f6ff"/><path d="m305.056 112.097h-27.187v50.93c0 15.037-12.19 27.227-27.227 27.227h-56.512v20h123.739v-85.344c0-7.077-5.737-12.813-12.813-12.813z" fill="#e4f6ff"/><path d="m475.805 172.992-49.057-84.969c-3.538-6.128-11.374-8.228-17.502-4.69l-10.244 5.914 36.803 63.744c3.538 6.128 1.438 13.964-4.69 17.502l-10.029 5.791c-15.851 9.151-33.831 13.969-52.134 13.969h-26.062l11.547 20h82.454l34.225-19.76c6.128-3.537 8.227-11.373 4.689-17.501z" fill="#e4f6ff"/><path d="m455.81 314.153c4.052.909 8.056-1.644 8.961-5.675 2.903-12.934 4.6-26.208 5.063-39.56h2.415c11.023 0 19.992-8.969 19.992-19.993v-26.178c0-11.024-8.969-19.993-19.992-19.993h-7.368l9.985-5.765c9.699-5.6 13.035-18.047 7.436-27.748l-49.058-84.969c-5.613-9.722-18.023-13.049-27.747-7.435l-13.413 7.744 9.007-33.616c2.908-10.844-3.517-21.971-14.362-24.878l-94.771-25.393c-10.814-2.894-21.977 3.544-24.878 14.363l-2.74 10.226c-1.072 4.001 1.302 8.114 5.303 9.186 4.001 1.07 8.113-1.303 9.186-5.304l2.74-10.226c.759-2.829 3.681-4.517 6.507-3.757l94.771 25.394c2.837.76 4.517 3.67 3.757 6.507l-12.889 48.104-48.421 27.956c-.898-10.377-9.631-18.547-20.236-18.547h-36.148l-5.147-19.208 6.151-22.955c1.072-4.001-1.302-8.113-5.303-9.186-3.393-.907-6.865.661-8.496 3.597l-11.197-41.789c-2.899-10.817-14.057-17.258-24.878-14.361l-94.77 25.393c-10.844 2.907-17.27 14.034-14.362 24.878l9.007 33.616-13.413-7.744c-9.723-5.613-22.133-2.288-27.747 7.435l-49.057 84.969c-5.601 9.7-2.266 22.147 7.435 27.748l9.985 5.765h-7.368c-11.023 0-19.992 8.969-19.992 19.993v26.178c0 11.024 8.969 19.993 19.992 19.993h2.415c1.394 40.433 14.047 79.254 36.806 112.708 23.583 34.666 56.446 61.458 95.036 77.481.395.164.607.569.505.962l-9.231 35.439c-2.174 8.343 4.119 16.491 12.746 16.491h155.947c8.622 0 14.921-8.142 12.746-16.491l-9.231-35.438c-.103-.394.109-.798.505-.962 52.068-21.62 94.283-63.899 115.82-115.998 1.583-3.828-.237-8.214-4.065-9.796-3.83-1.583-8.215.237-9.796 4.066-20.03 48.45-59.289 87.77-107.711 107.875-7.261 3.015-11.245 11.01-9.269 18.597l8.635 33.148h-151.216l8.635-33.149c1.976-7.587-2.009-15.582-9.269-18.596-72.235-29.993-119.704-98.669-122.585-176.336h43.143c4.143 0 7.5-3.358 7.5-7.5s-3.357-7.5-7.5-7.5h-60.567c-2.753 0-4.992-2.24-4.992-4.993v-26.178c0-2.753 2.239-4.993 4.992-4.993h432.5c2.753 0 4.992 2.24 4.992 4.993v26.178c0 2.753-2.239 4.993-4.992 4.993h-336.932c-4.143 0-7.5 3.358-7.5 7.5s3.357 7.5 7.5 7.5h319.508c-.456 12.246-2.028 24.416-4.69 36.275-.907 4.04 1.633 8.052 5.675 8.959zm-127.782-175.268 84.969-49.057c2.531-1.462 5.782-.609 7.257 1.945l49.058 84.968c1.464 2.537.592 5.793-1.945 7.258l-32.484 18.755h-76.115l-32.685-56.612c-1.468-2.543-.6-5.788 1.945-7.257zm-2.66 36.021 16.078 27.848h-16.078zm-15-49.996v77.844h-108.738c0-16.705 0-60.286 0-77.844 0-2.93 2.383-5.313 5.312-5.313h98.113c2.931 0 5.313 2.383 5.313 5.313zm-123.738 77.844h-16.078l16.078-27.848zm-61.234-155.671c-.76-2.836.92-5.747 3.757-6.506l94.771-25.394c2.829-.757 5.748.927 6.507 3.756l18.289 68.254c.023.094.048.187.075.28l4.588 17.123h-46.439c-10.605 0-19.338 8.17-20.236 18.547l-48.421-27.956zm-80.763 136.916c-2.537-1.465-3.409-4.72-1.944-7.257l49.057-84.969c1.471-2.546 4.719-3.411 7.257-1.945l84.969 49.057c2.542 1.468 3.413 4.712 1.945 7.257l-32.685 56.612h-76.115z"/><path d="m220.099 447.334c-4.143 0-7.5 3.358-7.5 7.5s3.357 7.5 7.5 7.5h71.8c4.143 0 7.5-3.358 7.5-7.5s-3.357-7.5-7.5-7.5z"/></g></svg>