<svg id="Capa_1" enable-background="new 0 0 512 512" height="512" viewBox="0 0 512 512" width="512" xmlns="http://www.w3.org/2000/svg"><g><g><g><path d="m504.5 496.724h-497v-15.295c0-9.223 7.476-16.699 16.699-16.699h463.602c9.223 0 16.699 7.476 16.699 16.699z" fill="#6dc17d"/></g></g><g><g><path d="m175.53 61.118c-4.086 10.632-16.017 15.938-26.649 11.852s-15.938-16.017-11.852-26.649 17.863-35.676 33.496-29.668c14.9 5.726 9.091 33.833 5.005 44.465z" fill="#e9a52d"/></g></g><g><g><path d="m208.622 117.967c-10.407 4.628-22.596-.056-27.224-10.463s.056-22.596 10.463-27.224 37.858-12.596 44.664 2.707c6.486 14.584-17.496 30.351-27.903 34.98z" fill="#e9a52d"/></g></g><g><g><path d="m191.824 181.565c-10.632-4.086-15.938-16.017-11.852-26.649s16.017-15.938 26.649-11.852 35.676 17.863 29.668 33.496c-5.726 14.899-33.834 9.091-44.465 5.005z" fill="#e9a52d"/></g></g><g><g><path d="m134.975 214.657c-4.628-10.407.056-22.596 10.463-27.224s22.596.056 27.224 10.463 12.596 37.858-2.707 44.664c-14.585 6.486-30.352-17.496-34.98-27.903z" fill="#e9a52d"/></g></g><g><g><path d="m71.377 197.858c4.086-10.632 16.017-15.938 26.649-11.852s15.938 16.017 11.852 26.649-17.863 35.676-33.496 29.668c-14.9-5.726-9.092-33.833-5.005-44.465z" fill="#e9a52d"/></g></g><g><g><path d="m38.285 141.009c10.407-4.628 22.596.056 27.224 10.463s-.056 22.596-10.463 27.224-37.858 12.596-44.664-2.707c-6.487-14.584 17.495-30.352 27.903-34.98z" fill="#e9a52d"/></g></g><g><g><path d="m55.083 77.411c10.632 4.086 15.938 16.017 11.852 26.649s-16.017 15.938-26.649 11.852-35.676-17.864-29.668-33.497c5.726-14.899 33.833-9.09 44.465-5.004z" fill="#e9a52d"/></g></g><g><g><path d="m111.932 44.319c4.629 10.407-.056 22.596-10.463 27.224s-22.596-.056-27.224-10.463c-4.629-10.407-12.596-37.858 2.707-44.664 14.584-6.486 30.352 17.496 34.98 27.903z" fill="#e9a52d"/></g></g><g><g><path d="m147.543 62.358c0 13.304-10.785 24.09-24.09 24.09s-24.09-10.785-24.09-24.09 4.527-46.384 24.09-46.384c18.645-.001 24.09 33.079 24.09 46.384z" fill="#f5de46"/></g></g><g><g><path d="m190.583 153.577c-13.304 0-24.09-10.785-24.09-24.09 0-13.304 10.785-24.089 24.09-24.089 13.304 0 46.384 4.527 46.384 24.089.001 18.645-33.079 24.09-46.384 24.09z" fill="#f5de46"/></g></g><g><g><path d="m99.364 196.618c0-13.304 10.785-24.09 24.09-24.09s24.09 10.785 24.09 24.09c0 13.304-4.527 46.384-24.09 46.384-18.645 0-24.09-33.08-24.09-46.384z" fill="#f5de46"/></g></g><g><g><path d="m56.323 105.398c13.304 0 24.09 10.785 24.09 24.089s-10.785 24.09-24.09 24.09c-13.304 0-46.384-4.527-46.384-24.09 0-18.643 33.08-24.089 46.384-24.089z" fill="#f5de46"/></g></g><g><g><path d="m187.955 99.054c-9.408 9.408-24.66 9.408-34.068 0-9.408-9.407-9.408-24.66 0-34.068s36-29.598 49.833-15.765c13.184 13.184-6.357 40.425-15.765 49.833z" fill="#f5de46"/></g></g><g><g><path d="m153.888 193.99c-9.408-9.408-9.408-24.66 0-34.068s24.66-9.408 34.068 0 29.598 36 15.765 49.833c-13.184 13.183-40.426-6.358-49.833-15.765z" fill="#f5de46"/></g></g><g><g><path d="m58.951 159.922c9.408-9.408 24.66-9.408 34.068 0s9.408 24.66 0 34.068-36 29.598-49.833 15.765c-13.183-13.184 6.358-40.425 15.765-49.833z" fill="#f5de46"/></g></g><g><g><path d="m93.019 64.986c9.408 9.408 9.408 24.66 0 34.068s-24.66 9.408-34.068 0c-9.408-9.407-29.598-35.999-15.765-49.833 13.184-13.184 40.426 6.357 49.833 15.765z" fill="#f5de46"/></g></g><g><g><ellipse cx="123.453" cy="129.488" fill="#faf0b0" rx="67.614" ry="67.614" transform="matrix(.23 -.973 .973 .23 -30.934 219.889)"/></g></g><g><g><path d="m123.453 61.874c-5.158 0-10.173.597-15 1.691 30.12 6.826 52.614 33.739 52.614 65.923 0 32.185-22.494 59.098-52.614 65.924 4.827 1.094 9.842 1.691 15 1.691 37.342 0 67.614-30.272 67.614-67.614 0-37.343-30.272-67.615-67.614-67.615z" fill="#f8e883"/></g></g><g><g><path d="m105.417 288.951c18.724 8.433 20.163 17.436 16.303 26.005-3.859 8.569-11.555 13.458-30.279 5.025s-32.221-33.174-32.221-33.174 27.473-6.289 46.197 2.144z" fill="#5ea570"/></g></g><g><g><path d="m141.757 288.951c-18.724 8.433-20.163 17.436-16.303 26.005 3.859 8.569 11.555 13.458 30.279 5.025s32.221-33.174 32.221-33.174-27.473-6.289-46.197 2.144z" fill="#5ea570"/></g></g><g><g><path d="m105.417 374.145c18.724 8.433 20.163 17.436 16.303 26.005-3.859 8.569-11.555 13.458-30.279 5.025s-32.221-33.174-32.221-33.174 27.473-6.289 46.197 2.144z" fill="#5ea570"/></g></g><g><g><path d="m141.757 374.145c-18.724 8.433-20.163 17.436-16.303 26.005 3.859 8.569 11.555 13.458 30.279 5.025s32.221-33.174 32.221-33.174-27.473-6.289-46.197 2.144z" fill="#5ea570"/></g></g><g><g><path d="m441.984 61.118c-4.086 10.632-16.017 15.938-26.649 11.852s-15.938-16.017-11.852-26.649 17.863-35.676 33.496-29.668c14.9 5.726 9.091 33.833 5.005 44.465z" fill="#e9a52d"/></g></g><g><g><path d="m475.076 117.967c-10.407 4.628-22.596-.056-27.224-10.463s.056-22.596 10.463-27.224 37.858-12.596 44.664 2.707c6.486 14.584-17.496 30.351-27.903 34.98z" fill="#e9a52d"/></g></g><g><g><path d="m458.278 181.565c-10.632-4.086-15.938-16.017-11.852-26.649s16.017-15.938 26.649-11.852 35.676 17.863 29.668 33.496c-5.726 14.899-33.834 9.091-44.465 5.005z" fill="#e9a52d"/></g></g><g><g><path d="m401.429 214.657c-4.628-10.407.056-22.596 10.463-27.224s22.596.056 27.224 10.463 12.596 37.858-2.707 44.664c-14.584 6.486-30.352-17.496-34.98-27.903z" fill="#e9a52d"/></g></g><g><g><path d="m337.831 197.858c4.086-10.632 16.017-15.938 26.649-11.852s15.938 16.017 11.852 26.649-17.863 35.676-33.496 29.668c-14.9-5.726-9.091-33.833-5.005-44.465z" fill="#e9a52d"/></g></g><g><g><path d="m304.739 141.009c10.407-4.628 22.596.056 27.224 10.463s-.056 22.596-10.463 27.224-37.858 12.596-44.664-2.707c-6.487-14.584 17.496-30.352 27.903-34.98z" fill="#e9a52d"/></g></g><g><g><path d="m321.537 77.411c10.632 4.086 15.938 16.017 11.852 26.649s-16.017 15.938-26.649 11.852-35.676-17.863-29.668-33.496c5.726-14.9 33.834-9.091 44.465-5.005z" fill="#e9a52d"/></g></g><g><g><path d="m378.386 44.319c4.628 10.407-.056 22.596-10.463 27.224s-22.596-.056-27.224-10.463-12.596-37.858 2.707-44.664c14.584-6.486 30.352 17.496 34.98 27.903z" fill="#e9a52d"/></g></g><g><g><path d="m413.997 62.358c0 13.304-10.785 24.09-24.09 24.09s-24.09-10.785-24.09-24.09 4.527-46.384 24.09-46.384c18.645-.001 24.09 33.079 24.09 46.384z" fill="#f5de46"/></g></g><g><g><path d="m457.038 153.577c-13.304 0-24.09-10.785-24.09-24.09 0-13.304 10.785-24.089 24.09-24.089 13.304 0 46.384 4.527 46.384 24.089 0 18.645-33.08 24.09-46.384 24.09z" fill="#f5de46"/></g></g><g><g><path d="m365.818 196.618c0-13.304 10.785-24.09 24.09-24.09s24.09 10.785 24.09 24.09c0 13.304-4.527 46.384-24.09 46.384-18.645 0-24.09-33.08-24.09-46.384z" fill="#f5de46"/></g></g><g><g><path d="m322.777 105.398c13.304 0 24.09 10.785 24.09 24.089s-10.785 24.09-24.09 24.09-46.384-4.527-46.384-24.09c0-18.643 33.08-24.089 46.384-24.089z" fill="#f5de46"/></g></g><g><g><path d="m454.409 99.054c-9.408 9.408-24.66 9.408-34.068 0-9.408-9.407-9.408-24.66 0-34.068s36-29.598 49.833-15.765c13.184 13.184-6.357 40.425-15.765 49.833z" fill="#f5de46"/></g></g><g><g><path d="m420.342 193.99c-9.408-9.408-9.408-24.66 0-34.068s24.66-9.408 34.068 0 29.598 36 15.765 49.833c-13.184 13.183-40.426-6.358-49.833-15.765z" fill="#f5de46"/></g></g><g><g><path d="m325.405 159.922c9.408-9.408 24.66-9.408 34.068 0s9.408 24.66 0 34.068-36 29.598-49.833 15.765c-13.183-13.184 6.358-40.425 15.765-49.833z" fill="#f5de46"/></g></g><g><g><path d="m359.473 64.986c9.408 9.408 9.408 24.66 0 34.068s-24.66 9.408-34.068 0c-9.408-9.407-29.598-35.999-15.765-49.833 13.184-13.184 40.426 6.357 49.833 15.765z" fill="#f5de46"/></g></g><g><g><ellipse cx="389.907" cy="129.488" fill="#faf0b0" rx="67.614" ry="67.614" transform="matrix(.707 -.707 .707 .707 22.64 313.632)"/></g></g><g><g><path d="m389.908 61.874c-5.158 0-10.173.597-15 1.691 30.12 6.826 52.614 33.739 52.614 65.923 0 32.185-22.494 59.098-52.614 65.924 4.827 1.094 9.842 1.691 15 1.691 37.342 0 67.614-30.272 67.614-67.614 0-37.343-30.272-67.615-67.614-67.615z" fill="#f8e883"/></g></g><g><g><path d="m371.871 288.951c18.724 8.433 20.163 17.436 16.303 26.005-3.859 8.569-11.555 13.458-30.279 5.025s-32.221-33.174-32.221-33.174 27.473-6.289 46.197 2.144z" fill="#5ea570"/></g></g><g><g><path d="m408.211 288.951c-18.724 8.433-20.163 17.436-16.303 26.005 3.859 8.569 11.555 13.458 30.279 5.025s32.221-33.174 32.221-33.174-27.472-6.289-46.197 2.144z" fill="#5ea570"/></g></g><g><g><path d="m371.871 374.145c18.724 8.433 20.163 17.436 16.303 26.005-3.859 8.569-11.555 13.458-30.279 5.025s-32.221-33.174-32.221-33.174 27.473-6.289 46.197 2.144z" fill="#5ea570"/></g></g><g><g><path d="m408.211 374.145c-18.724 8.433-20.163 17.436-16.303 26.005 3.859 8.569 11.555 13.458 30.279 5.025s32.221-33.174 32.221-33.174-27.472-6.289-46.197 2.144z" fill="#5ea570"/></g></g><g><path d="m371.59 489.224h-356.59v-7.795c0-5.072 4.127-9.199 9.199-9.199h156.955c4.143 0 7.5-3.358 7.5-7.5s-3.357-7.5-7.5-7.5h-50.201v-41.631c.703.266 1.426.501 2.172.696 1.931.504 3.98.757 6.16.757 5.597 0 12.047-1.67 19.527-5.039 20.783-9.36 35.125-35.32 35.726-36.42 1.125-2.062 1.219-4.531.255-6.672-.965-2.141-2.876-3.707-5.165-4.231-1.223-.279-30.167-6.744-50.951 2.617-2.862 1.289-5.427 2.632-7.724 4.031v-40.933c2.598.957 5.361 1.382 8.199 1.382 6.589 0 13.558-2.219 19.66-4.967 20.783-9.36 35.125-35.32 35.726-36.421 1.125-2.062 1.219-4.531.255-6.672-.965-2.141-2.876-3.707-5.165-4.231-1.223-.279-30.167-6.744-50.951 2.617-2.596 1.169-5.224 2.52-7.724 4.066v-36.88c4.991-1.665 9.038-4.963 12.275-9.248 8.367 8.627 15.822 11.098 21.607 11.098 3.319 0 6.09-.811 8.167-1.735 5.824-2.59 14.593-9.627 13.261-28.291 2.185.406 4.217.592 6.102.592 7.872-.001 13.199-3.197 16.658-6.656 4.209-4.209 8.053-11.012 6.625-21.381.281.004.569.014.845.014 18.261-.001 24.606-8.741 26.797-14.44 2.324-6.046 3.479-17.213-10.667-29.426 6.954-4.737 11.845-11.312 11.845-20.337 0-8.619-4.195-15.048-10.454-19.776 13.575-13.166 11.898-24.075 9.364-29.773-2.605-5.857-9.645-14.61-28.293-13.27 2.1-11.308-1.776-18.465-6.061-22.751-4.21-4.209-11.013-8.054-21.381-6.625.27-18.905-8.64-25.418-14.425-27.641-6.07-2.332-17.231-3.476-29.43 10.662-4.737-6.952-11.311-11.841-20.334-11.841-8.615 0-15.043 4.192-19.77 10.446-9.935-10.255-20.276-13.583-29.78-9.357-5.988 2.664-14.666 9.761-13.283 28.348-8.261-1.563-16.362-.37-22.738 6.007-6.096 6.096-7.675 13.611-6.59 21.382-18.932-.283-25.45 8.635-27.676 14.425-2.332 6.07-3.475 17.231 10.662 29.429-6.952 4.737-11.841 11.311-11.841 20.334 0 8.615 4.192 15.044 10.446 19.771-10.254 9.934-13.583 20.276-9.356 29.779 2.421 5.444 8.683 13.408 24.574 13.408 1.18 0 2.433-.062 3.722-.154-2.107 11.317 1.771 18.48 6.059 22.767 4.87 4.871 10.74 6.905 17.036 6.905 1.428 0 2.879-.11 4.345-.31-.281 18.928 8.636 25.446 14.425 27.671 1.986.764 4.548 1.409 7.534 1.409 5.998 0 13.706-2.609 21.891-12.078 3.311 4.861 7.521 8.712 12.838 10.591v36.733c-2.228-1.34-4.706-2.628-7.456-3.866-20.78-9.36-49.728-2.896-50.95-2.617-2.289.524-4.2 2.09-5.165 4.231-.964 2.141-.87 4.61.255 6.672.601 1.101 14.942 27.061 35.725 36.421 6.104 2.749 13.07 4.967 19.66 4.967 2.74 0 5.412-.396 7.932-1.284v40.671c-2.228-1.34-4.706-2.628-7.456-3.867-20.78-9.36-49.728-2.896-50.95-2.617-2.289.524-4.2 2.09-5.165 4.231-.964 2.141-.87 4.61.255 6.672.601 1.101 14.942 27.06 35.725 36.42 6.104 2.749 13.07 4.967 19.661 4.967 2.74 0 5.411-.396 7.931-1.284v41.533h-91.755c-13.343 0-24.199 10.855-24.199 24.199v15.295c0 4.142 3.357 7.5 7.5 7.5h364.09c4.142 0 7.5-3.358 7.5-7.5s-3.358-7.5-7.5-7.5zm-256.707-177.348c-1.462 3.245-3.908 8.677-20.361 1.267-9.361-4.216-17.477-13.522-22.669-20.646 8.777-.832 21.126-.922 30.484 3.293 8.776 3.953 11.919 7.35 13.011 9.504.654 1.29 1.111 3.082-.465 6.582zm-.001 85.194c-1.461 3.245-3.907 8.678-20.36 1.267-9.36-4.216-17.476-13.522-22.669-20.646 8.78-.833 21.126-.922 30.484 3.293 8.776 3.953 11.919 7.35 13.011 9.504.654 1.29 1.111 3.082-.466 6.582zm16.945-6.583c1.091-2.154 4.234-5.551 13.01-9.503 9.366-4.218 21.723-4.125 30.499-3.292-5.514 7.502-13.734 16.615-22.684 20.645-8.775 3.952-13.401 4.056-15.738 3.445-1.4-.366-3.045-1.211-4.622-4.711-1.576-3.501-1.119-5.293-.465-6.584zm13.01-94.698c9.366-4.218 21.723-4.125 30.499-3.292-5.514 7.502-13.733 16.615-22.684 20.645-16.451 7.411-18.898 1.979-20.359-1.267-1.462-3.244-3.908-8.676 12.544-16.086zm-37.645-92.98c5.24 1.161 10.677 1.793 16.261 1.793 5.6 0 11.051-.635 16.304-1.803-1.189 13.88-6.195 32.703-16.304 32.703-9.39 0-14.915-18.809-16.261-32.693zm-89.754-73.321c0-9.39 18.81-14.915 32.694-16.262-1.162 5.24-1.793 10.677-1.793 16.262 0 5.6.635 11.051 1.803 16.304-13.879-1.189-32.704-6.196-32.704-16.304zm45.901 0c0-33.147 26.967-60.114 60.114-60.114s60.114 26.967 60.114 60.114-26.967 60.114-60.114 60.114-60.114-26.967-60.114-60.114zm166.129 0c0 9.39-18.81 14.916-32.694 16.262 1.162-5.24 1.793-10.677 1.793-16.262 0-5.599-.635-11.05-1.803-16.303 13.88 1.188 32.704 6.195 32.704 16.303zm-62.561 106.219c-3.033 1.347-8.899-.668-16.415-10.126 2.309-6.913 3.601-14.305 4.176-20.848 4.369 3.557 9.843 7.395 15.725 10.514.019.317.051.636.112.956 2.825 14.903-1.575 18.604-3.598 19.504zm31.509-31.255c-4.125 4.124-12.014 1.772-17.904-.926-6.004-2.75-12.072-6.877-16.732-10.716 9.248-5.91 17.117-13.784 23.022-23.036 3.845 4.551 8.109 10.526 10.966 16.598 3.974 8.452 4.193 14.535.648 18.08zm29.11-38.258c3.061 4.296 2.117 6.752 1.762 7.675-2.204 5.736-14.27 4.959-18.761 4.457-3.289-6.526-7.684-12.742-11.834-17.718 5.441-.569 11.999-1.705 18.429-3.678 4.664 3.062 8.259 6.253 10.404 9.264zm2.147-80.16c1.349 3.034-.671 8.902-10.127 16.415-6.913-2.308-14.305-3.601-20.848-4.176 3.543-4.352 7.367-9.801 10.479-15.656.094-.015.188-.023.282-.042 5.155-1.038 17.439-2.775 20.214 3.459zm-31.257-31.51c4.125 4.125 1.773 12.014-.926 17.906-2.749 6.003-6.876 12.072-10.715 16.732-5.911-9.248-13.784-17.117-23.036-23.022 4.551-3.845 10.526-8.109 16.598-10.966 8.452-3.976 14.533-4.195 18.079-.65zm-38.409-28.999c4.393-3.193 6.89-2.233 7.828-1.872 5.736 2.204 4.958 14.269 4.456 18.76-6.525 3.289-12.742 7.683-17.719 11.834-.569-5.442-1.705-11.999-3.678-18.43 3.01-4.58 6.142-8.132 9.113-10.292zm-36.554-2.051c9.391 0 14.916 18.81 16.262 32.694-5.24-1.162-10.678-1.793-16.262-1.793-5.599 0-11.05.635-16.303 1.803 1.189-13.881 6.195-32.704 16.303-32.704zm-43.453-.205c4.561-2.024 11.237 3.668 16.415 10.128-2.311 6.92-3.604 14.321-4.178 20.869-4.248-3.442-9.682-7.268-15.615-10.416-1.249-6.13-2.738-17.861 3.378-20.581zm-31.51 31.255c6.641-6.644 23.872 2.768 34.641 11.639-9.25 5.911-17.12 13.785-23.025 23.038-8.979-10.654-18.769-27.524-11.616-34.677zm-29.001 38.41c-3.191-4.39-2.232-6.887-1.87-7.827 2.205-5.737 14.273-4.958 18.762-4.456 3.26 6.531 7.581 12.682 11.807 17.721-5.437.57-11.984 1.706-18.404 3.675-4.582-3.01-8.134-6.143-10.295-9.113zm-2.255 80.007c-2.028-4.56 3.666-11.236 10.127-16.414 6.912 2.308 14.304 3.601 20.847 4.176-3.545 4.354-7.37 9.806-10.483 15.665-.138.019-.275.033-.413.06-5.117 1.019-17.318 2.719-20.078-3.487zm31.256 31.511c-6.645-6.645 2.768-23.874 11.639-34.641 5.911 9.25 13.785 17.119 23.038 23.025-10.8 9.116-27.515 18.777-34.677 11.616zm47.159 19.265c-8.66 12.899-14.478 12.412-16.578 11.605-5.714-2.196-4.963-14.178-4.461-18.709 6.2-3.09 12.267-7.268 17.726-11.868.571 5.453 1.712 12.024 3.692 18.465-.131.164-.26.33-.379.507z"/><path d="m487.801 457.23h-90.394v-41.631c.703.266 1.426.501 2.172.696 1.931.504 3.98.757 6.16.757 5.597 0 12.047-1.67 19.527-5.039 20.783-9.36 35.125-35.32 35.726-36.42 1.125-2.062 1.219-4.531.255-6.672-.965-2.141-2.876-3.707-5.165-4.231-1.223-.279-30.169-6.743-50.95 2.617-2.862 1.289-5.427 2.632-7.725 4.031v-40.934c2.598.958 5.361 1.383 8.199 1.382 6.589 0 13.558-2.219 19.66-4.967 20.783-9.36 35.125-35.32 35.726-36.421 1.125-2.062 1.219-4.531.255-6.672-.965-2.141-2.876-3.707-5.165-4.231-1.223-.279-30.169-6.743-50.95 2.617-2.862 1.289-5.427 2.632-7.725 4.031v-36.846c4.991-1.665 9.038-4.963 12.275-9.248 8.367 8.627 15.822 11.098 21.607 11.098 3.319 0 6.09-.811 8.167-1.735 5.824-2.59 14.593-9.627 13.261-28.291 2.185.406 4.217.592 6.102.592 7.872-.001 13.199-3.197 16.657-6.655 4.209-4.21 8.055-11.012 6.626-21.382.281.004.569.014.844.014 18.261-.001 24.606-8.741 26.797-14.44 2.324-6.046 3.479-17.213-10.667-29.426 6.954-4.737 11.845-11.312 11.845-20.337 0-8.619-4.195-15.048-10.454-19.776 13.575-13.166 11.899-24.075 9.364-29.773-2.605-5.857-9.647-14.609-28.293-13.27 2.1-11.308-1.776-18.466-6.061-22.751-4.21-4.209-11.013-8.053-21.381-6.625.271-18.905-8.64-25.418-14.425-27.641-6.068-2.332-17.229-3.476-29.429 10.663-4.737-6.952-11.311-11.841-20.334-11.841-8.615 0-15.043 4.192-19.77 10.446-9.934-10.255-20.276-13.583-29.779-9.357-5.988 2.664-14.667 9.761-13.283 28.348-8.261-1.562-16.361-.369-22.738 6.007-6.096 6.096-7.675 13.611-6.59 21.382-18.93-.282-25.449 8.636-27.675 14.425-2.332 6.07-3.475 17.231 10.662 29.429-6.952 4.737-11.841 11.311-11.841 20.334 0 8.615 4.192 15.044 10.446 19.771-10.254 9.934-13.582 20.276-9.355 29.779 2.421 5.444 8.683 13.408 24.574 13.408 1.18 0 2.433-.062 3.722-.154-2.107 11.317 1.771 18.48 6.059 22.767 4.87 4.871 10.74 6.905 17.036 6.905 1.428 0 2.879-.11 4.345-.31-.281 18.928 8.636 25.446 14.426 27.671 1.986.764 4.548 1.409 7.534 1.409 5.998 0 13.706-2.609 21.891-12.078 3.311 4.861 7.521 8.712 12.838 10.591v36.733c-2.228-1.34-4.706-2.628-7.456-3.866-20.781-9.36-49.728-2.896-50.95-2.617-2.289.524-4.2 2.09-5.165 4.231-.964 2.141-.87 4.61.255 6.672.601 1.101 14.942 27.061 35.725 36.421 6.104 2.749 13.07 4.967 19.66 4.967 2.74 0 5.412-.396 7.932-1.284v40.671c-2.228-1.34-4.706-2.628-7.456-3.867-20.781-9.36-49.728-2.896-50.95-2.617-2.289.524-4.2 2.09-5.165 4.231-.964 2.141-.87 4.61.255 6.672.601 1.101 14.942 27.06 35.725 36.42 6.104 2.749 13.07 4.967 19.661 4.967 2.74 0 5.411-.396 7.931-1.284v41.533h-171.258c-4.143 0-7.5 3.358-7.5 7.5s3.357 7.5 7.5 7.5h276.647c5.072 0 9.199 4.126 9.199 9.199v7.795h-95.41c-4.143 0-7.5 3.358-7.5 7.5s3.357 7.5 7.5 7.5h102.91c4.143 0 7.5-3.358 7.5-7.5v-15.295c0-13.343-10.855-24.198-24.199-24.198zm-106.464-145.354c-1.461 3.245-3.909 8.677-20.361 1.267-9.361-4.216-17.477-13.522-22.669-20.646 8.777-.832 21.126-.922 30.484 3.293 8.776 3.953 11.919 7.35 13.011 9.504.654 1.29 1.111 3.082-.465 6.582zm-.001 85.194c-1.46 3.245-3.907 8.678-20.36 1.267-9.36-4.216-17.476-13.522-22.669-20.646 8.78-.833 21.126-.922 30.484 3.293 8.776 3.953 11.919 7.35 13.011 9.504.654 1.29 1.111 3.082-.466 6.582zm16.945-6.583c1.092-2.154 4.234-5.551 13.011-9.504 6.385-2.876 14.156-3.748 21.239-3.748 3.307 0 6.465.191 9.259.456-5.514 7.502-13.734 16.615-22.684 20.645-8.775 3.952-13.4 4.056-15.738 3.445-1.4-.366-3.045-1.211-4.622-4.711-1.576-3.5-1.119-5.292-.465-6.583zm0-85.194c1.092-2.154 4.234-5.551 13.011-9.504 6.385-2.875 14.156-3.748 21.239-3.748 3.307 0 6.465.19 9.259.456-5.514 7.502-13.733 16.615-22.684 20.645-16.452 7.411-18.898 1.979-20.359-1.267-1.577-3.499-1.12-5.291-.466-6.582zm-24.635-102.484c5.24 1.161 10.677 1.793 16.261 1.793 5.6 0 11.051-.635 16.304-1.803-1.189 13.88-6.195 32.703-16.304 32.703-9.389 0-14.915-18.809-16.261-32.693zm-89.753-73.321c0-9.39 18.81-14.915 32.694-16.262-1.162 5.24-1.793 10.677-1.793 16.262 0 5.6.635 11.051 1.803 16.304-13.88-1.189-32.704-6.196-32.704-16.304zm45.9 0c0-33.147 26.967-60.114 60.114-60.114s60.114 26.967 60.114 60.114-26.967 60.114-60.114 60.114-60.114-26.967-60.114-60.114zm166.129 0c0 9.39-18.81 14.916-32.694 16.262 1.162-5.24 1.793-10.677 1.793-16.262 0-5.599-.635-11.05-1.803-16.303 13.88 1.188 32.704 6.195 32.704 16.303zm-62.561 106.219c-3.033 1.347-8.899-.668-16.415-10.126 2.309-6.913 3.601-14.305 4.176-20.848 4.369 3.557 9.844 7.395 15.725 10.514.019.317.051.636.112.956 2.825 14.903-1.575 18.604-3.598 19.504zm31.509-31.255c-4.125 4.124-12.013 1.772-17.904-.926-6.004-2.75-12.072-6.877-16.732-10.716 9.248-5.91 17.117-13.784 23.022-23.036 3.845 4.551 8.109 10.526 10.966 16.598 3.975 8.452 4.194 14.535.648 18.08zm29.11-38.258c3.06 4.296 2.117 6.752 1.762 7.675-2.204 5.736-14.269 4.959-18.761 4.457-3.289-6.526-7.684-12.742-11.834-17.718 5.442-.569 11.999-1.705 18.43-3.678 4.663 3.062 8.258 6.253 10.403 9.264zm2.147-80.16c1.349 3.034-.671 8.902-10.127 16.415-6.913-2.308-14.305-3.601-20.848-4.176 3.543-4.352 7.367-9.801 10.479-15.656.094-.015.188-.023.283-.042 5.154-1.038 17.439-2.777 20.213 3.459zm-31.257-31.51c4.125 4.125 1.773 12.014-.926 17.906-2.75 6.003-6.876 12.072-10.715 16.732-5.911-9.248-13.784-17.117-23.036-23.022 4.551-3.845 10.526-8.109 16.598-10.966 8.452-3.976 14.534-4.195 18.079-.65zm-38.409-28.999c4.392-3.193 6.889-2.233 7.828-1.872 5.736 2.204 4.958 14.269 4.457 18.76-6.525 3.289-12.742 7.683-17.719 11.834-.569-5.441-1.705-11.999-3.678-18.43 3.009-4.58 6.141-8.132 9.112-10.292zm-36.554-2.051c9.391 0 14.916 18.81 16.262 32.694-5.24-1.162-10.677-1.793-16.262-1.793-5.599 0-11.05.635-16.303 1.803 1.189-13.881 6.196-32.704 16.303-32.704zm-43.453-.205c4.566-2.024 11.239 3.667 16.415 10.127-2.311 6.92-3.604 14.321-4.178 20.869-4.248-3.442-9.682-7.268-15.615-10.416-1.25-6.13-2.738-17.86 3.378-20.58zm-31.51 31.255c6.642-6.644 23.872 2.768 34.641 11.639-9.25 5.911-17.12 13.785-23.025 23.038-8.979-10.654-18.769-27.524-11.616-34.677zm-29.001 38.41c-3.191-4.39-2.231-6.887-1.87-7.827 2.205-5.737 14.273-4.958 18.762-4.456 3.26 6.531 7.581 12.682 11.807 17.721-5.436.57-11.984 1.706-18.404 3.675-4.582-3.01-8.134-6.143-10.295-9.113zm-2.254 80.007c-2.028-4.56 3.666-11.236 10.127-16.414 6.912 2.308 14.304 3.601 20.847 4.176-3.545 4.354-7.37 9.806-10.483 15.665-.138.019-.275.033-.413.06-5.118 1.019-17.319 2.719-20.078-3.487zm31.255 31.511c-6.645-6.645 2.768-23.874 11.639-34.641 5.911 9.25 13.785 17.119 23.038 23.025-10.799 9.116-27.515 18.777-34.677 11.616zm47.159 19.265c-8.66 12.899-14.479 12.412-16.578 11.605-5.714-2.196-4.963-14.178-4.461-18.709 6.2-3.09 12.267-7.268 17.726-11.868.571 5.453 1.712 12.024 3.692 18.465-.131.164-.26.33-.379.507z"/></g></g></svg>