<svg height="512pt" viewBox="0 -92 512 512" width="512pt" xmlns="http://www.w3.org/2000/svg"><path d="m209.410156 45.796875c-13.082031-13.082031-31.613281-17.386719-48.289062-12.933594-4.453125 16.679688-.148438 35.207031 12.933594 48.292969 13.085937 13.082031 31.613281 17.386719 48.292968 12.933594v-25.859375c-2.1875-8.21875-6.492187-15.988281-12.9375-22.433594zm0 0" fill="#60f375"/><path d="m247.347656 50.796875c0-23.910156-11.195312-43.296875-25-43.296875-13.808594 0-25 19.386719-25 43.296875s11.191406 43.292969 25 43.292969c13.804688 0 25-19.382813 25-43.292969zm0 0" fill="#4fe267"/><path d="m376 94.089844h-240c-8.285156 0-15 6.714844-15 15v170.886718h270v-170.886718c0-8.285156-6.714844-15-15-15zm0 0" fill="#fff9eb"/><path d="m376 94.089844h-15v125.886718c0 8.28125-6.714844 15-15 15h-225v45h270v-170.886718c0-8.285156-6.714844-15-15-15zm0 0" fill="#d3cdbf"/><path d="m423.574219 319.972656h-335.148438c-7.957031 0-15.585937-3.160156-21.210937-8.785156l-31.214844-31.214844h440l-31.214844 31.214844c-5.625 5.628906-13.253906 8.785156-21.210937 8.785156zm0 0" fill="#b66652"/><path d="m489.5 294.976562h-467c-8.285156 0-15-6.71875-15-15 0-8.285156 6.714844-15 15-15h467c8.285156 0 15 6.714844 15 15 0 8.28125-6.714844 15-15 15zm0 0" fill="#ce795f"/><path d="m489.5 257.476562h-91v-148.386718c0-12.40625-10.09375-22.5-22.5-22.5h-151.511719c-15.324219-9.816406-23.066406-28.617188-18.195312-46.800782 2.496093-9.335937 8.25-17.640624 16.054687-23.347656 10.894532 7.949219 17.5 20.742188 17.5 34.351563v13.515625c0 4.144531 3.355469 7.5 7.5 7.5 4.140625 0 7.5-3.355469 7.5-7.5v-13.515625c0-20.449219-11.015625-39.523438-28.742187-49.785157-2.324219-1.34375-5.191407-1.34375-7.515625 0-10.539063 6.101563-18.902344 15.507813-23.8125 26.53125-11.265625-4.324218-23.832032-5.0625-35.589844-1.921874-2.597656.691406-4.621094 2.714843-5.316406 5.3125-5.28125 19.789062.421875 41.066406 14.878906 55.527343.046875.042969.09375.085938.136719.132813h-32.886719c-12.40625 0-22.5 10.09375-22.5 22.5v148.386718h-91c-12.40625 0-22.5 10.09375-22.5 22.5s10.09375 22.5 22.5 22.5h25.394531l14.015625 14.015626c7.082032 7.082031 16.5 10.980468 26.515625 10.980468h335.148438c10.015625 0 19.433593-3.898437 26.515625-10.980468l14.015625-14.015626h25.394531c12.40625 0 22.5-10.09375 22.5-22.5s-10.09375-22.5-22.5-22.5zm-322.058594-218.289062c7.792969-1.210938 15.839844-.230469 23.085938 2.800781-2.507813 16.246094 2.066406 32.269531 11.871094 44.601563h-4.847657c-20.589843-5.960938-33.402343-26.304688-30.109375-47.402344zm-38.941406 69.902344c0-4.136719 3.363281-7.5 7.5-7.5h240c4.136719 0 7.5 3.363281 7.5 7.5v148.386718h-255zm361 178.386718h-113.292969c-4.144531 0-7.5 3.355469-7.5 7.5 0 4.140626 3.355469 7.5 7.5 7.5h66.6875l-3.410156 3.40625c-4.25 4.25-9.898437 6.589844-15.910156 6.589844h-335.148438c-6.011719 0-11.660156-2.339844-15.910156-6.585937l-3.410156-3.410157h63.394531c4.144531 0 7.5-3.359374 7.5-7.5 0-4.144531-3.355469-7.5-7.5-7.5h-110c-4.136719 0-7.5-3.363281-7.5-7.5 0-4.136718 3.363281-7.5 7.5-7.5h467c4.136719 0 7.5 3.363282 7.5 7.5 0 4.136719-3.363281 7.5-7.5 7.5zm0 0"/><path d="m216.996094 183.476562c0 4.140626-3.359375 7.5-7.5 7.5s-7.5-3.359374-7.5-7.5c0-4.144531 3.359375-7.5 7.5-7.5s7.5 3.355469 7.5 7.5zm0 0"/><path d="m216.996094 122.472656c0 4.140625-3.359375 7.5-7.5 7.5s-7.5-3.359375-7.5-7.5c0-4.144531 3.359375-7.5 7.5-7.5s7.5 3.355469 7.5 7.5zm0 0"/><path d="m166.992188 152.472656c0 4.144532-3.355469 7.5-7.5 7.5-4.140626 0-7.5-3.355468-7.5-7.5 0-4.140625 3.359374-7.5 7.5-7.5 4.144531 0 7.5 3.359375 7.5 7.5zm0 0"/><path d="m347.003906 122.472656c0 4.140625-3.359375 7.5-7.5 7.5s-7.5-3.359375-7.5-7.5c0-4.144531 3.359375-7.5 7.5-7.5s7.5 3.355469 7.5 7.5zm0 0"/><path d="m347.003906 212.476562c0 4.144532-3.359375 7.5-7.5 7.5s-7.5-3.355468-7.5-7.5c0-4.140624 3.359375-7.5 7.5-7.5s7.5 3.359376 7.5 7.5zm0 0"/></svg>