<svg id="Capa_1" enable-background="new 0 0 510.684 510.684" height="512" viewBox="0 0 510.684 510.684" width="512" xmlns="http://www.w3.org/2000/svg"><g><g><g><path d="m414.747 296.162c1.524 9.299 2.312 18.829 2.312 28.548 0 97.181-78.783 175.974-175.974 175.974s-175.974-78.793-175.974-175.974c0-39.097 12.756-75.21 34.316-104.42l.011-.021 141.647-210.269 90.771 134.744" fill="#a3e0fb"/></g><g><path d="m288.068 233.678c0-17.5 5.704-33.661 15.356-46.733l.005-.01 63.391-94.104 63.391 94.104.005.01c9.652 13.071 15.356 29.233 15.356 46.733 0 43.491-35.256 78.753-78.753 78.753s-78.751-35.261-78.751-78.753z" fill="#4696e6"/></g></g><g><path d="m199.242 439.486c-49.257-15.316-82.352-60.297-82.352-111.931 0-25.238 7.901-49.283 22.85-69.536.341-.462.649-.967.906-1.481 2.47-4.939.464-10.938-4.476-13.408-4.471-2.239-9.819-.801-12.625 3.153-17.437 23.688-26.654 51.788-26.654 81.272 0 29.858 9.428 58.247 27.264 82.095 17.24 23.051 41.797 40.43 69.149 48.934.989.308 1.989.454 2.972.454 4.263 0 8.214-2.749 9.546-7.034 1.64-5.274-1.306-10.878-6.58-12.518z"/><path d="m455.573 233.679c0-19.035-5.932-37.17-17.158-52.464l-63.301-93.971c-1.859-2.759-4.967-4.413-8.294-4.413s-6.435 1.654-8.294 4.413l-26.674 39.597-82.474-122.428c-1.858-2.759-4.967-4.413-8.293-4.413s-6.435 1.654-8.293 4.413l-141.576 210.163c-23.622 32.101-36.105 70.177-36.105 110.134 0 102.546 83.428 185.974 185.974 185.974s185.974-83.428 185.974-185.974c0-8.186-.547-16.387-1.61-24.46 18.458-16.276 30.124-40.085 30.124-66.571zm-88.753-122.949 55.005 81.654c.11.17.226.337.347.501 8.767 11.873 13.401 25.979 13.401 40.793 0 37.91-30.842 68.752-68.753 68.752-37.91 0-68.752-30.842-68.752-68.752 0-14.814 4.634-28.92 13.401-40.793.116-.157.227-.317.334-.482l28.323-42.045c.052-.077.106-.153.156-.232zm40.238 213.98c0 91.519-74.456 165.974-165.974 165.974-91.519 0-165.974-74.455-165.974-165.974 0-35.744 11.19-69.799 32.362-98.481.121-.163.238-.334.351-.509l133.262-197.822 78.711 116.842-24.571 36.476c-11.225 15.293-17.157 33.429-17.157 52.463 0 48.938 39.814 88.752 88.752 88.752 14.31 0 27.837-3.409 39.819-9.45.273 3.9.419 7.816.419 11.729z"/><path d="m331.561 231.24c0-4.845.987-9.521 2.933-13.898 2.244-5.047-.029-10.957-5.075-13.2-5.047-2.241-10.956.028-13.2 5.075-3.091 6.952-4.658 14.361-4.658 22.023 0 18.149 9.016 35.019 24.117 45.123 1.708 1.143 3.64 1.689 5.552 1.689 3.226 0 6.392-1.558 8.32-4.439 3.071-4.591 1.84-10.802-2.75-13.873-9.542-6.385-15.239-17.039-15.239-28.5z"/><path d="m236.343 453.34c-2.448-6.434-11.582-8.269-16.31-3.24-5.629 5.455-2.599 15.471 5.12 16.87 7.653 1.677 14.324-6.446 11.19-13.63z"/><path d="m361.552 285.479c6.448 4.466 15.682-.472 15.55-8.31.145-7.839-9.107-12.787-15.55-8.32-5.84 3.66-5.863 12.982 0 16.63z"/></g></g></svg>