<svg height="512pt" viewBox="-83 0 512 512.00098" width="512pt" xmlns="http://www.w3.org/2000/svg"><path d="m269.320312 9.4375c-6.113281-3.769531-14.121093-1.871094-17.890624 4.242188-36.917969 59.863281-150.488282 66.777343-151.632813 66.84375-7.164063.386718-12.660156 6.507812-12.273437 13.675781.371093 6.933593 6.109374 12.304687 12.96875 12.304687.234374 0 .472656-.007812.707031-.019531 5.21875-.28125 128.285156-7.6875 172.359375-79.160156 3.769531-6.109375 1.871094-14.117188-4.238282-17.886719zm0 0" fill="#edcfb2"/><path d="m302.5 474.5h-260l-20-364h300zm0 0" fill="#60d9fe"/><path d="m292.5 110.5-20 364h30l20-364zm0 0" fill="#40ccf7"/><path d="m42.5 474.5h260v30h-260zm0 0" fill="#fff0d0"/><path d="m272.5 474.5h30v30h-30zm0 0" fill="#edcfb2"/><path d="m322.5 110.5h-300c-8.285156 0-15-6.714844-15-15 0-8.28125 6.714844-15 15-15h300c8.285156 0 15 6.71875 15 15 0 8.285156-6.714844 15-15 15zm0 0" fill="#fff0d0"/><path d="m322.5 80.5h-30c8.285156 0 15 6.71875 15 15 0 8.285156-6.714844 15-15 15h30c8.285156 0 15-6.714844 15-15 0-8.28125-6.714844-15-15-15zm0 0" fill="#edcfb2"/><path d="m314.402344 258-3.851563 70h-276.101562l-3.847657-70zm0 0" fill="#edcfb2"/><path d="m284.402344 258-3.851563 70h30l3.851563-70zm0 0" fill="#cfb49b"/><path d="m256.5 293c0-57.988281-37.609375-105-84-105s-84 47.011719-84 105c0 57.992188 37.609375 105 84 105s84-47.007812 84-105zm0 0" fill="#fff0d0"/><path d="m345 95.503906c0-12.40625-10.09375-22.5-22.5-22.5h-84.722656c18.203125-11.828125 32.335937-25.796875 42.167968-41.738281 5.929688-9.621094 2.929688-22.273437-6.6875-28.207031-4.660156-2.875-10.160156-3.761719-15.492187-2.5-5.324219 1.265625-9.84375 4.527344-12.71875 9.1875-17.46875 28.328125-54.550781 43.867187-82.582031 51.914062-31.484375 9.039063-59.695313 11.140625-62.660156 11.34375h-77.304688c-12.40625 0-22.5 10.09375-22.5 22.5 0 9.902344 6.433594 18.324219 15.335938 21.324219l19.664062 357.878906v29.792969c0 4.144531 3.359375 7.5 7.5 7.5h260c4.140625 0 7.5-3.355469 7.5-7.5v-29.792969l1.199219-21.796875c.226562-4.132812-2.941407-7.671875-7.078125-7.898437-4.140625-.222657-7.671875 2.941406-7.898438 7.078125l-.820312 14.910156h-245.804688l-7.222656-131.5h45.410156c13.667969 41.023438 46.488282 70 84.714844 70s71.050781-28.976562 84.714844-69.996094h45.410156l-4.648438 84.585938c-.226562 4.136718 2.941407 7.671875 7.078126 7.898437.140624.007813.28125.011719.417968.011719 3.953125 0 7.261719-3.09375 7.484375-7.089844l16.707031-304.082031c8.90625-3 15.335938-11.421875 15.335938-21.324219zm-87.1875-77.882812c1.597656-2.585938 4.980469-3.394532 7.570312-1.796875 2.578126 1.59375 3.382813 4.992187 1.792969 7.570312-12.34375 20.011719-32.695312 36.691407-60.476562 49.609375h-30.082031c39.089843-12.761718 66.382812-31.363281 81.195312-55.382812zm-207.8125 464.378906h245v15h-245zm-8.449219-161.496094-3.023437-55h45.242187c-1.804687 8.804688-2.769531 18.015625-2.769531 27.5s.964844 18.695313 2.769531 27.5zm219.679688 0c1.804687-8.804687 2.769531-18.019531 2.769531-27.5 0-9.386718-.9375-18.601562-2.746094-27.5h45.21875l-3.023437 54.996094h-42.21875zm61.269531-217.5h-246.125c-4.140625 0-7.5 3.355469-7.5 7.5 0 4.140625 3.359375 7.5 7.5 7.5h238.203125l-7.28125 132.5h-50.027344c-2.757812-8.316406-6.335937-16.253906-10.714843-23.65625-2.105469-3.566406-6.707032-4.746094-10.269532-2.640625-3.566406 2.109375-4.75 6.707031-2.640625 10.273438 4.617188 7.808593 8.222657 16.3125 10.78125 25.285156.050781.199219.105469.398437.167969.59375 2.898438 10.367187 4.40625 21.355469 4.40625 32.644531 0 11.480469-1.570312 22.5-4.441406 32.738282-.015625.050781-.027344.105468-.042969.15625-10.613281 37.625-38.886719 64.601562-72.015625 64.601562s-61.402344-26.976562-72.011719-64.601562c-.015625-.050782-.027343-.105469-.042969-.15625-2.875-10.238282-4.445312-21.257813-4.445312-32.738282 0-11.484375 1.570312-22.503906 4.445312-32.742187.015626-.054688.027344-.105469.042969-.160157 10.613281-37.621093 38.886719-64.597656 72.011719-64.597656 15.039062 0 29.605469 5.585938 42.128906 16.160156 3.164063 2.671876 7.894532 2.273438 10.566406-.890624 2.675782-3.164063 2.273438-7.894532-.890624-10.570313-15.261719-12.886719-33.175782-19.699219-51.804688-19.699219-38.226562 0-71.046875 28.976563-84.710938 70h-50.085937l-7.277344-132.5h13.949219c4.144531 0 7.5-3.359375 7.5-7.5 0-4.144531-3.355469-7.5-7.5-7.5h-21.875c-4.136719 0-7.5-3.367187-7.5-7.5 0-4.136718 3.363281-7.5 7.5-7.5h185.859375.023437.039063 114.078125c4.136719 0 7.5 3.363282 7.5 7.5 0 4.136719-3.363281 7.5-7.5 7.5zm0 0"/></svg>